<?xml version="1.0" encoding="utf-8"?>
<!-- Generator: Adobe Illustrator 19.2.0, SVG Export Plug-In . SVG Version: 6.00 Build 0)  -->
<svg version="1.1" id="Layer_1" xmlns="http://www.w3.org/2000/svg" xmlns:xlink="http://www.w3.org/1999/xlink" x="0px" y="0px"
	 viewBox="0 0 60 59.5" style="enable-background:new 0 0 60 59.5;" xml:space="preserve">
<style type="text/css">
	.st0{fill:#FFFFFF;}
	.st1{fill:none;stroke:#000000;stroke-width:1.5;stroke-linecap:round;stroke-linejoin:round;}
	.st2{fill:none;stroke:#000000;stroke-linecap:round;stroke-linejoin:round;}
	.st3{fill:#DF0031;}
	.st4{display:none;}
	.st5{display:inline;fill:#ED1B2E;}
	.st6{display:inline;}
	.st7{fill:#ED1B2E;}
	.st8{fill:#ED1C24;}
	.st9{fill:none;stroke:#ED1C24;stroke-width:2;}
</style>
<g id="ICRC">
	<g>
		<circle class="st0" cx="30.1" cy="30.3" r="28"/>
		<circle class="st1" cx="30.1" cy="30.3" r="28"/>
		<path class="st2" d="M49.4,30.3c0,10.6-8.6,19.2-19.2,19.2S11,40.9,11,30.3s8.6-19.2,19.2-19.2S49.4,19.7,49.4,30.3z"/>
		<polygon class="st3" points="16,34.6 16,26.1 44.2,26 44.3,34.5 		"/>
		<path d="M6.6,37.8c-0.5,0.3-0.8,0.7-0.9,1.2s-0.1,1,0.1,1.5c0.3,0.8,0.8,1.3,1.5,1.5c0.7,0.2,1.3,0.1,2.1-0.2
			c0.7-0.3,1.3-0.8,1.6-1.3c0.3-0.6,0.3-1.3,0-2.1c-0.5-1.3-1.5-1.7-2.9-1.4l0.3,0.7c0.4-0.1,0.8-0.1,1.2,0s0.6,0.4,0.8,0.9
			c0.1,0.3,0.2,0.6,0.1,0.8c0,0.3-0.1,0.5-0.2,0.7c-0.3,0.4-0.7,0.8-1.3,1c-0.5,0.2-1.1,0.3-1.5,0.2c-0.5-0.1-0.9-0.5-1.1-1.1
			c-0.1-0.4-0.2-0.7-0.1-1s0.3-0.6,0.6-0.8L6.6,37.8z M7.2,36c0.7-0.1,1.4-0.4,1.8-0.9c0.5-0.5,0.7-1.2,0.6-2
			c-0.1-0.9-0.5-1.5-1.1-1.8c-0.6-0.4-1.3-0.5-2-0.4s-1.4,0.4-1.9,0.9C4.1,32.3,3.9,33,4,33.9c0.1,0.9,0.5,1.5,1.1,1.8
			C5.8,36,6.4,36.1,7.2,36z M7.1,35.3c-0.6,0.1-1.1,0-1.5-0.3c-0.2-0.1-0.4-0.3-0.6-0.5c-0.1-0.2-0.3-0.5-0.3-0.8s0-0.6,0.1-0.9
			s0.2-0.5,0.4-0.6c0.4-0.3,0.9-0.6,1.5-0.6c0.1,0,0.3,0,0.4,0c0.1,0,0.3,0,0.4,0c0.3,0,0.5,0.1,0.7,0.3c0.5,0.2,0.8,0.7,0.9,1.3
			c0.1,0.7-0.1,1.2-0.5,1.5c-0.2,0.2-0.4,0.3-0.7,0.4C7.6,35.2,7.4,35.3,7.1,35.3z M9.3,29.6l0.1-0.7L5,28.1l0,0l4.7-0.9l0.1-0.6
			l-4.1-2.5l0,0l4.4,0.8l0.1-0.7l-5.3-0.9l-0.2,1l4.1,2.5l-4.7,0.9l-0.2,1L9.3,29.6z M10.7,23.1l0.3-0.7l-5-2l-0.3,0.7L10.7,23.1z
			 M12,20.2l0.4-0.6l-4.1-2.4l0.9-1.6l-0.5-0.3L6.5,19L7,19.3l0.9-1.6L12,20.2z M13.7,17.5l2.5-2.8l-0.4-0.4l-2,2.3l-1.4-1.3
			l1.9-2.1l-0.4-0.4L12,14.9l-1.3-1.2l2-2.2L12.3,11l-2.5,2.8L13.7,17.5z M18.6,12.9l0.6-0.4l-2.9-4.6l-0.6,0.4L18.6,12.9z
			 M20.2,11.8l0.6-0.3l-1.7-4.1l0,0l4.2,3l0.7-0.3l-2.1-5l-0.6,0.3L23,9.5l0,0l-4.3-3L18,6.8L20.2,11.8z M26.5,9.6l0.7-0.1l-0.8-4.8
			l1.7-0.3L28,3.8l-4.2,0.7l0.1,0.6l1.7-0.3L26.5,9.6z M29.5,9.2l3.7,0.2V8.8l-3-0.2l0.1-1.9l2.8,0.1V6.2l-2.8-0.1l0.1-1.7l3,0.2V4
			l-3.7-0.2L29.5,9.2z M35.6,6.9l0.5-1.8l1.7,0.5c0.3,0.1,0.5,0.3,0.6,0.5s0.1,0.4,0,0.7c-0.1,0.2-0.1,0.3-0.2,0.4
			c-0.1,0.1-0.2,0.2-0.3,0.2c-0.3,0.1-0.6,0-0.9-0.1L35.6,6.9z M34.1,9.6l0.7,0.2l0.6-2.2l1.7,0.5c0.2,0.1,0.3,0.1,0.4,0.2
			s0.1,0.2,0.2,0.3c0,0.1,0.1,0.2,0.1,0.3s0,0.3,0,0.4c0,0.1,0,0.3-0.1,0.4c0,0.1-0.1,0.3-0.1,0.4c0,0.1-0.1,0.2-0.1,0.3
			s0,0.2,0,0.3l0.8,0.2c0-0.1-0.1-0.2-0.1-0.4c0-0.1,0-0.3,0-0.4c0-0.3,0.1-0.5,0.2-0.8c0.1-0.3,0.1-0.5,0-0.7
			c0-0.1-0.1-0.2-0.1-0.3C38.2,8.2,38.1,8.1,38,8l0,0c0.3,0,0.6-0.1,0.8-0.3s0.3-0.5,0.4-0.8C39.4,6,39,5.4,38,5l-2.4-0.7L34.1,9.6z
			 M39,11.2l0.6,0.3l2.2-3.8l0,0L42,13l0.7,0.4l2.7-4.7l-0.6-0.4l-2.2,3.8l0,0l-0.2-5.3l-0.7-0.4L39,11.2z M43.1,13.7l0.5,0.5
			l1.6-0.7l1.6,1.6l-0.7,1.6l0.6,0.6l2.3-5.4l-0.6-0.6L43.1,13.7z M48.2,12.1L48.2,12.1l-1.1,2.5l-1.3-1.3L48.2,12.1z M47.6,18.8
			l0.4,0.6l4-2.6l0.9,1.5l0.5-0.3l-2.3-3.7l-0.5,0.3l0.9,1.5L47.6,18.8z M49.1,21.6l0.3,0.7l4.9-2.3L54,19.4L49.1,21.6z M52.5,22.4
			c-0.7,0.2-1.3,0.6-1.7,1.1c-0.4,0.6-0.6,1.3-0.4,2.1s0.7,1.4,1.3,1.7c0.6,0.3,1.3,0.3,2,0.2c0.7-0.2,1.3-0.6,1.7-1.1
			c0.4-0.6,0.5-1.3,0.4-2.1c-0.2-0.8-0.6-1.4-1.3-1.7C53.9,22.3,53.2,22.2,52.5,22.4z M52.6,23.1c0.5-0.1,1.1-0.1,1.6,0.1
			c0.2,0.1,0.5,0.3,0.6,0.5c0.2,0.2,0.3,0.5,0.4,0.8s0.1,0.6,0,0.9c-0.1,0.3-0.2,0.5-0.3,0.7c-0.4,0.4-0.8,0.7-1.4,0.8
			c-0.1,0-0.3,0.1-0.4,0.1s-0.3,0-0.4,0c-0.3,0-0.5-0.1-0.8-0.2c-0.5-0.2-0.9-0.6-1-1.2c-0.1-0.6,0-1.2,0.3-1.6
			c0.2-0.2,0.4-0.4,0.6-0.5C52.1,23.3,52.4,23.2,52.6,23.1z M51.1,29.1v0.7l4.3,0.1l0,0L51,32.7v0.8l5.3,0.2V33L52,32.9l0,0l4.4-2.7
			v-0.8L51.1,29.1z M50.9,34l-0.2,0.7l1.4,1.1L51.5,38l-1.7,0.1l-0.2,0.8l5.7-0.5l0.2-0.8L50.9,34z M54.8,37.8L54.8,37.8L52.2,38
			l0.5-1.8L54.8,37.8z M49.2,39.3l-1.7,3.2l0.5,0.3l1.4-2.5l4.2,2.3l0.3-0.6L49.2,39.3z"/>
		<path d="M17.1,52.4l-0.2,0.7l0.4,0.3l1.6-2.4l-2-1.3l-0.3,0.5l1.4,1c-0.3,0.4-0.6,0.7-1,0.8c-0.4,0.1-0.9,0-1.4-0.3
			s-0.7-0.8-0.8-1.3c0-0.5,0.1-1,0.4-1.5c0.3-0.5,0.7-0.9,1.2-1.1s1-0.1,1.6,0.2c0.3,0.2,0.6,0.5,0.7,0.8c0.1,0.3,0.1,0.7-0.1,1.1
			l0.6,0.4c0.3-0.6,0.3-1.1,0.1-1.6s-0.5-0.9-1-1.2c-0.7-0.5-1.4-0.6-2.1-0.3c-0.7,0.2-1.2,0.7-1.7,1.3c-0.4,0.6-0.6,1.3-0.5,1.9
			c0.1,0.7,0.4,1.3,1.1,1.7c0.3,0.2,0.6,0.3,0.9,0.4C16.4,52.6,16.7,52.5,17.1,52.4z M19.4,54.4l3.5,1.3l0.2-0.6l-2.9-1l0.6-1.8
			l2.6,1l0.2-0.6l-2.6-1l0.6-1.6l2.8,1l0.2-0.6l-3.5-1.3L19.4,54.4z M25.1,56.2l0.7,0.1l0.5-4.3l0,0l2.3,4.6l0.8,0.1l0.6-5.4
			l-0.7-0.1l-0.5,4.4l0,0l-2.3-4.7l-0.8-0.1L25.1,56.2z M31.8,56.6l3.7-0.5l-0.1-0.6l-3,0.4L32.2,54l2.8-0.4L34.9,53l-2.8,0.4
			l-0.2-1.7l3-0.4l-0.1-0.6l-3.7,0.5L31.8,56.6z M39.6,49l-0.7,0.3l0.2,5l0,0L36,50.4l-0.7,0.3l3.7,4.4l0.8-0.3L39.6,49z M43.2,53.2
			l3.2-2L46,50.6l-2.6,1.7l-1-1.6l2.3-1.5l-0.3-0.5l-2.3,1.5l-0.9-1.4l2.5-1.6l-0.3-0.5l-3.1,2L43.2,53.2z"/>
		<polygon class="st3" points="25.8,16.2 34.4,16.1 34.4,44.4 25.9,44.4 		"/>
	</g>
</g>
<g id="Red_Crescent" class="st4">
	<path class="st5" d="M128.7,53.6c-13.4,0-24.3-10.9-24.3-24.3S115.2,5,128.7,5c4.3,0,8.3,1.1,11.8,3C135.2,2.9,128-0.3,120-0.3
		c-16.3,0-29.5,13.2-29.5,29.5s13.2,29.5,29.5,29.5c8,0,15.2-3.1,20.5-8.3C137,52.5,132.9,53.6,128.7,53.6z"/>
</g>
<g id="Layer_5" class="st4">
	<g class="st6">
		<path class="st7" d="M201.6,0.2l-29.1,29.1l29.1,29.1l29.1-29.1L201.6,0.2z"/>
		<path class="st0" d="M201.6,14.8L216,29.2l-14.4,14.4l-14.4-14.4L201.6,14.8z"/>
	</g>
</g>
<g id="Red_Cross" class="st4">
	<g class="st6">
		<polygon class="st7" points="270.4,38 270.4,20.6 328,20.3 328.1,37.8 		"/>
		<polygon class="st7" points="290.4,0.4 307.9,0.3 308,58 290.6,58 		"/>
	</g>
</g>
<g id="IFRC_and_RC" class="st4">
	<g class="st6">
		<g>
			<path d="M129.7,149.4h-2.9v-21.2h2.9V149.4z"/>
			<path d="M147.5,149.4H145v-9.6c0-2.6-0.8-4-3.3-4c-1.5,0-4.1,0.9-4.1,5.2v8.4H135V134h2.5v2.1h0.1c0.5-0.9,2-2.6,4.7-2.6
				c2.4,0,5.4,1,5.4,5.4L147.5,149.4L147.5,149.4z"/>
			<path d="M155.1,136.1v10.1c0,1.1,1,1.1,1.5,1.1h0.9v2c-0.9,0.1-1.6,0.1-1.9,0.1c-2.5,0-3.1-1.5-3.1-3.3V136h-2.1v-2.1h2.1v-4.3
				h2.5v4.3h2.5v2.1h-2.4V136.1z"/>
			<path d="M162.8,140.4c0-2.4,1.9-4.5,4.3-4.5c3.1,0,4.1,2.1,4.3,4.5H162.8z M171.2,144.5c-0.1,1.1-1.5,3-4,3c-3,0-4.5-1.9-4.5-5
				h11.2c0-5.5-2.1-8.9-6.7-8.9c-5.2,0-7.4,3.9-7.4,8.5c0,4.5,2.5,7.8,6.9,7.8c2.5,0,3.5-0.5,4.1-1.1c1.9-1.3,2.6-3.5,2.8-4.1
				L171.2,144.5L171.2,144.5z"/>
			<path d="M180.6,149.4h-2.5V134h2.5v2.5h0.1c1-1.9,2.4-3,4.3-3c0.4,0,0.5,0,0.6,0.1v2.6h-1c-2.4,0-3.9,1.9-3.9,4.1L180.6,149.4
				L180.6,149.4z"/>
			<path d="M201.4,149.4h-2.5v-9.6c0-2.6-0.8-4-3.3-4c-1.5,0-4.1,0.9-4.1,5.2v8.4H189V134h2.5v2.1h0.1c0.5-0.9,2-2.6,4.7-2.6
				c2.4,0,5.4,1,5.4,5.4L201.4,149.4L201.4,149.4z"/>
			<path d="M215.2,144c0,2.1-2.4,3.6-4.8,3.6c-1.9,0-2.9-1-2.9-2.6c0-1.9,2-2.3,3.3-2.5c3.1-0.5,3.9-0.6,4.3-1L215.2,144L215.2,144z
				 M208,138.7c0.1-1.1,0.5-3,3.5-3c2.5,0,3.6,0.9,3.6,2.5c0,1.5-0.8,1.8-1.4,1.9l-4.3,0.5c-4.3,0.5-4.7,3.5-4.7,4.9
				c0,2.6,2,4.5,4.9,4.5c3,0,4.5-1.4,5.5-2.5c0.1,1.1,0.5,2.4,2.8,2.4c0.5,0,1-0.1,1.4-0.3v-2.1c-0.3,0.1-0.6,0.1-0.9,0.1
				c-0.5,0-0.9-0.3-0.9-0.9v-8.9c0-3.9-4.5-4.3-5.8-4.3c-3.9,0-6.2,1.5-6.4,5.2L208,138.7L208,138.7z"/>
			<path d="M226,136.1v10.1c0,1.1,1,1.1,1.5,1.1h0.9v2c-0.9,0.1-1.6,0.1-1.9,0.1c-2.5,0-3.1-1.5-3.1-3.3V136h-2v-2.1h2.1v-4.3h2.5
				v4.3h2.5v2.1H226V136.1z"/>
			<path d="M234.2,149.4h-2.5V134h2.5V149.4z M231.7,131.2v-2.9h2.5v2.9H231.7z"/>
			<path d="M240.5,141.8c0-2.1,0.8-5.9,4.5-5.9c3.8,0,4.5,3.9,4.5,5.9c0,2.1-0.8,5.9-4.5,5.9C241.2,147.5,240.5,143.8,240.5,141.8z
				 M237.8,141.8c0,4,2.3,8.2,7.2,8.2c4.9,0,7.2-4.1,7.2-8.2s-2.3-8.2-7.2-8.2S237.8,137.7,237.8,141.8z"/>
			<path d="M268.2,149.4h-2.5v-9.6c0-2.6-0.8-4-3.3-4c-1.5,0-4.1,0.9-4.1,5.2v8.4h-2.5V134h2.5v2.1h0.1c0.5-0.9,2-2.6,4.7-2.6
				c2.4,0,5.4,1,5.4,5.4L268.2,149.4L268.2,149.4z"/>
			<path d="M282.1,144c0,2.1-2.4,3.6-4.8,3.6c-1.9,0-2.9-1-2.9-2.6c0-1.9,2-2.3,3.3-2.5c3.1-0.5,3.9-0.6,4.3-1v2.5H282.1z
				 M274.9,138.7c0.1-1.1,0.5-3,3.5-3c2.5,0,3.6,0.9,3.6,2.5c0,1.5-0.8,1.8-1.4,1.9l-4.3,0.5c-4.3,0.5-4.7,3.5-4.7,4.9
				c0,2.6,2,4.5,4.9,4.5c3,0,4.5-1.4,5.5-2.5c0.1,1.1,0.5,2.4,2.8,2.4c0.5,0,1-0.1,1.4-0.3v-2.1c-0.3,0.1-0.6,0.1-0.9,0.1
				c-0.5,0-0.9-0.3-0.9-0.9v-8.9c0-3.9-4.5-4.3-5.8-4.3c-3.9,0-6.2,1.5-6.4,5.2L274.9,138.7L274.9,138.7z"/>
			<path d="M292.4,149.4h-2.5v-21.2h2.5V149.4z"/>
			<path d="M309.1,149.4h-2.9v-21.2h14.6v2.5H309v6.5h10.4v2.5H309v9.7H309.1z"/>
			<path d="M325.3,140.4c0-2.4,1.9-4.5,4.3-4.5c3.1,0,4.1,2.1,4.3,4.5H325.3z M333.9,144.5c-0.1,1.1-1.5,3-4,3c-3,0-4.5-1.9-4.5-5
				h11.2c0-5.5-2.1-8.9-6.7-8.9c-5.2,0-7.4,3.9-7.4,8.5c0,4.5,2.5,7.8,6.9,7.8c2.5,0,3.5-0.5,4.1-1.1c1.9-1.3,2.6-3.5,2.8-4.1
				L333.9,144.5L333.9,144.5z"/>
			<path d="M342,141.6c0-2,0.1-5.8,4.1-5.8c3.8,0,4.1,4,4.1,6.5c0,4.1-2.5,5.2-4.1,5.2C343.4,147.5,342,145,342,141.6z M353.1,128.3
				h-2.5v7.9h-0.1c-0.6-0.9-1.9-2.6-4.5-2.6c-4.1,0-6.4,3.4-6.4,7.7c0,3.6,1.5,8.5,6.8,8.5c1.5,0,3.3-0.5,4.4-2.5h0.1v2.1h2.5
				L353.1,128.3L353.1,128.3z"/>
			<path d="M359.2,140.4c0-2.4,1.9-4.5,4.3-4.5c3.1,0,4.1,2.1,4.3,4.5H359.2z M367.7,144.5c-0.1,1.1-1.5,3-4,3c-3,0-4.5-1.9-4.5-5
				h11.2c0-5.5-2.1-8.9-6.7-8.9c-5.2,0-7.4,3.9-7.4,8.5c0,4.5,2.5,7.8,6.9,7.8c2.5,0,3.5-0.5,4.1-1.1c1.9-1.3,2.6-3.5,2.8-4.1
				L367.7,144.5L367.7,144.5z"/>
			<path d="M377.1,149.4h-2.5V134h2.5v2.5h0.1c1-1.9,2.4-3,4.3-3c0.4,0,0.5,0,0.6,0.1v2.6h-0.9c-2.4,0-3.9,1.9-3.9,4.1L377.1,149.4
				L377.1,149.4z"/>
			<path d="M393.7,144c0,2.1-2.4,3.6-4.8,3.6c-1.9,0-2.9-1-2.9-2.6c0-1.9,2-2.3,3.3-2.5c3.1-0.5,3.9-0.6,4.3-1v2.5H393.7z
				 M386.7,138.7c0.1-1.1,0.5-3,3.5-3c2.5,0,3.6,0.9,3.6,2.5c0,1.5-0.8,1.8-1.4,1.9l-4.3,0.5c-4.3,0.5-4.7,3.5-4.7,4.9
				c0,2.6,2,4.5,4.9,4.5c3,0,4.5-1.4,5.5-2.5c0.1,1.1,0.5,2.4,2.8,2.4c0.5,0,1-0.1,1.4-0.3v-2.1c-0.3,0.1-0.6,0.1-0.9,0.1
				c-0.5,0-0.9-0.3-0.9-0.9v-8.9c0-3.9-4.5-4.3-5.8-4.3c-3.9,0-6.2,1.5-6.4,5.2L386.7,138.7L386.7,138.7z"/>
			<path d="M404.5,136.1v10.1c0,1.1,1,1.1,1.5,1.1h0.9v2c-0.9,0.1-1.6,0.1-1.9,0.1c-2.5,0-3.1-1.5-3.1-3.3V136h-2.1v-2.1h2.1v-4.3
				h2.5v4.3h2.5v2.1h-2.4V136.1z"/>
			<path d="M412.8,149.4h-2.5V134h2.5V149.4z M410.2,131.2v-2.9h2.5v2.9H410.2z"/>
			<path d="M419,141.8c0-2.1,0.8-5.9,4.5-5.9c3.8,0,4.5,3.9,4.5,5.9c0,2.1-0.8,5.9-4.5,5.9C419.8,147.5,419,143.8,419,141.8z
				 M416.3,141.8c0,4,2.3,8.2,7.2,8.2c4.9,0,7.2-4.1,7.2-8.2s-2.3-8.2-7.2-8.2S416.3,137.7,416.3,141.8z"/>
			<path d="M446.7,149.4h-2.5v-9.6c0-2.6-0.8-4-3.3-4c-1.5,0-4.1,0.9-4.1,5.2v8.4h-2.5V134h2.5v2.1h0.1c0.5-0.9,2-2.6,4.7-2.6
				c2.4,0,5.4,1,5.4,5.4L446.7,149.4L446.7,149.4z"/>
			<path d="M128,176.4c0-2.1,0.8-5.9,4.5-5.9s4.5,3.9,4.5,5.9c0,2.1-0.8,5.9-4.5,5.9C128.7,182.2,128,178.5,128,176.4z M125.3,176.4
				c0,4,2.3,8.2,7.2,8.2c4.9,0,7.2-4.1,7.2-8.2c0-4-2.3-8.2-7.2-8.2C127.6,168.3,125.3,172.4,125.3,176.4z"/>
			<path d="M146.5,170.8V184H144v-13.2h-2.1v-2.1h2.1V166c0-2.3,1.5-3.4,4-3.4c0.4,0,0.8,0,1.1,0.1v2.3c-0.4,0-0.8-0.1-1.1-0.1
				c-1.1,0-1.5,0.5-1.5,1.9v1.9h2.5v2.1H146.5L146.5,170.8z"/>
			<path d="M164.2,165.4h7.2c1.4,0,3.9,0.3,3.9,3.5c0,3.1-2.1,3.6-4.3,3.6h-6.7L164.2,165.4L164.2,165.4L164.2,165.4z M164.2,175.1
				h6.9c3.4,0,3.8,2,3.8,3.8c0,0.9,0.1,4,0.5,5.3h3.5v-0.5c-0.9-0.5-1-0.9-1.1-2.1l-0.1-3.9c-0.1-2.9-1.4-3.5-2.5-4
				c1.4-0.9,2.9-1.9,2.9-5c0-4.5-3.5-5.7-6.9-5.7h-9.8v21.2h2.9L164.2,175.1L164.2,175.1L164.2,175.1L164.2,175.1z"/>
			<path d="M184.7,175.2c0-2.4,1.9-4.5,4.3-4.5c3.1,0,4.1,2.1,4.3,4.5H184.7z M193.1,179.2c-0.1,1.1-1.5,3-4,3c-3,0-4.5-1.9-4.5-5
				h11.2c0-5.5-2.1-8.9-6.7-8.9c-5.2,0-7.4,3.9-7.4,8.5c0,4.5,2.5,7.8,6.9,7.8c2.5,0,3.5-0.5,4.1-1.1c1.9-1.3,2.6-3.5,2.8-4.1
				L193.1,179.2L193.1,179.2z"/>
			<path d="M201.4,176.3c0-2,0.1-5.8,4.1-5.8c3.8,0,4.1,4,4.1,6.5c0,4.1-2.5,5.2-4.1,5.2C202.6,182.2,201.4,179.7,201.4,176.3z
				 M212.3,163h-2.5v7.9h-0.1c-0.6-0.9-1.9-2.6-4.5-2.6c-4.1,0-6.4,3.4-6.4,7.7c0,3.6,1.5,8.5,6.8,8.5c1.5,0,3.3-0.5,4.4-2.5h0.1
				v2.1h2.5L212.3,163L212.3,163z"/>
			<path d="M240.5,169.3c-0.9-3.8-3.9-4.4-5.9-4.4c-3.9,0-6.9,2.9-6.9,8.4c0,5,1.8,8.8,7,8.8c1.9,0,5-0.9,6-5.9h2.8
				c-1.1,7.9-7.7,8.3-9.2,8.3c-4.9,0-9.6-3.1-9.6-11.2c0-6.5,3.8-11.1,9.9-11.1c5.5,0,8.3,3.4,8.7,6.9L240.5,169.3L240.5,169.3z"/>
			<path d="M250.1,184.1h-2.5v-15.5h2.5v2.5h0.1c1-1.9,2.4-3,4.3-3c0.4,0,0.5,0,0.6,0.1v2.6h-0.9c-2.4,0-3.9,1.9-3.9,4.1
				L250.1,184.1L250.1,184.1z"/>
			<path d="M259.4,176.4c0-2.1,0.8-5.9,4.5-5.9c3.8,0,4.5,3.9,4.5,5.9c0,2.1-0.8,5.9-4.5,5.9C260.2,182.2,259.4,178.5,259.4,176.4z
				 M256.7,176.4c0,4,2.3,8.2,7.2,8.2c4.9,0,7.2-4.1,7.2-8.2c0-4-2.3-8.2-7.2-8.2C258.9,168.3,256.7,172.4,256.7,176.4z"/>
			<path d="M283.3,173.1c0-1-0.4-2.5-3.6-2.5c-0.9,0-3.1,0.3-3.1,2.1c0,1.3,0.9,1.5,2.9,2.1l2.5,0.6c3.1,0.9,4.3,2,4.3,4.1
				c0,3.1-2.6,5.2-6.2,5.2c-6.2,0-6.5-3.5-6.7-5.4h2.5c0.1,1.1,0.5,3.1,4.1,3.1c1.9,0,3.5-0.8,3.5-2.5c0-1.3-0.9-1.6-3.1-2.1l-3-0.8
				c-2.1-0.5-3.5-1.6-3.5-3.8c0-3.4,2.9-4.9,5.9-4.9c5.5,0,5.9,4.1,5.9,4.9h-2.4L283.3,173.1L283.3,173.1z"/>
			<path d="M298.7,173.1c0-1-0.4-2.5-3.6-2.5c-0.9,0-3.1,0.3-3.1,2.1c0,1.3,0.9,1.5,2.9,2.1l2.5,0.6c3.1,0.9,4.3,2,4.3,4.1
				c0,3.1-2.6,5.2-6.2,5.2c-6.2,0-6.5-3.5-6.7-5.4h2.5c0.1,1.1,0.5,3.1,4.1,3.1c1.9,0,3.5-0.8,3.5-2.5c0-1.3-0.9-1.6-3.1-2.1l-3-0.8
				c-2.1-0.5-3.5-1.6-3.5-3.8c0-3.4,2.9-4.9,5.9-4.9c5.5,0,5.9,4.1,5.9,4.9h-2.4L298.7,173.1L298.7,173.1z"/>
			<path d="M323.4,178.8c0,2.1-2.4,3.6-4.8,3.6c-1.9,0-2.9-1-2.9-2.6c0-1.9,2-2.3,3.3-2.5c3.1-0.5,3.9-0.6,4.3-1v2.5H323.4z
				 M316.4,173.4c0.1-1.1,0.5-3,3.5-3c2.5,0,3.6,0.9,3.6,2.5s-0.8,1.8-1.4,1.9l-4.3,0.5c-4.3,0.5-4.7,3.5-4.7,4.9
				c0,2.6,2,4.5,4.9,4.5c3,0,4.5-1.4,5.5-2.5c0.1,1.1,0.5,2.4,2.8,2.4c0.5,0,1-0.1,1.4-0.3v-1.9c-0.3,0.1-0.6,0.1-0.9,0.1
				c-0.5,0-0.9-0.3-0.9-0.9v-8.9c0-3.9-4.5-4.3-5.8-4.3c-3.9,0-6.2,1.5-6.4,5.2h2.5v-0.2H316.4z"/>
			<path d="M343.5,184.1h-2.6v-9.6c0-2.6-0.8-4-3.3-4c-1.5,0-4.1,0.9-4.1,5.2v8.4H331v-15.5h2.5v2.1h0.1c0.5-0.9,2-2.6,4.7-2.6
				c2.4,0,5.4,1,5.4,5.4v10.6L343.5,184.1L343.5,184.1z"/>
			<path d="M349.8,176.3c0-2,0.1-5.8,4.1-5.8c3.8,0,4.1,4,4.1,6.5c0,4.1-2.5,5.2-4.1,5.2C351.1,182.2,349.8,179.7,349.8,176.3z
				 M360.8,163h-2.5v7.9h-0.1c-0.6-0.9-1.9-2.6-4.5-2.6c-4.1,0-6.4,3.4-6.4,7.7c0,3.6,1.5,8.5,6.8,8.5c1.5,0,3.3-0.5,4.4-2.5h0.1
				v2.1h2.5L360.8,163L360.8,163z"/>
			<path d="M377.3,165.4h7.2c1.4,0,3.9,0.3,3.9,3.5c0,3.1-2.1,3.6-4.3,3.6h-6.7v-7.2L377.3,165.4L377.3,165.4z M377.3,175.1h6.9
				c3.4,0,3.8,2,3.8,3.8c0,0.9,0.1,4,0.5,5.3h3.5v-0.5c-0.9-0.5-1-0.9-1.1-2.1l-0.1-3.9c-0.1-2.9-1.4-3.5-2.5-4
				c1.4-0.9,2.9-1.9,2.9-5c0-4.5-3.5-5.7-6.9-5.7h-9.8v21.2h2.9L377.3,175.1L377.3,175.1L377.3,175.1L377.3,175.1z"/>
			<path d="M397.7,175.2c0-2.4,1.9-4.5,4.3-4.5c3.1,0,4.1,2.1,4.3,4.5H397.7z M406.1,179.2c-0.1,1.1-1.5,3-4,3c-3,0-4.5-1.9-4.5-5
				h11.2c0-5.5-2.1-8.9-6.7-8.9c-5.2,0-7.4,3.9-7.4,8.5c0,4.5,2.5,7.8,6.9,7.8c2.5,0,3.5-0.5,4.1-1.1c1.9-1.3,2.6-3.5,2.8-4.1
				L406.1,179.2L406.1,179.2z"/>
			<path d="M414.4,176.3c0-2,0.1-5.8,4.1-5.8c3.8,0,4.1,4,4.1,6.5c0,4.1-2.5,5.2-4.1,5.2C415.7,182.2,414.4,179.7,414.4,176.3z
				 M425.4,163h-2.5v7.9h-0.1c-0.6-0.9-1.9-2.6-4.5-2.6c-4.1,0-6.4,3.4-6.4,7.7c0,3.6,1.5,8.5,6.8,8.5c1.5,0,3.3-0.5,4.4-2.5h0.1
				v2.1h2.5L425.4,163L425.4,163z"/>
			<path d="M453.5,169.3c-0.9-3.8-3.9-4.4-5.9-4.4c-3.9,0-6.9,2.9-6.9,8.4c0,5,1.8,8.8,7,8.8c1.9,0,5-0.9,6-5.9h2.8
				c-1.1,7.9-7.7,8.3-9.2,8.3c-4.9,0-9.6-3.1-9.6-11.2c0-6.5,3.8-11.1,9.9-11.1c5.5,0,8.3,3.4,8.7,6.9L453.5,169.3L453.5,169.3z"/>
			<path d="M463.2,184.1h-2.5v-15.5h2.5v2.5h0.1c1-1.9,2.4-3,4.3-3c0.4,0,0.5,0,0.6,0.1v2.6h-1c-2.4,0-3.9,1.9-3.9,4.1L463.2,184.1
				L463.2,184.1z"/>
			<path d="M472.6,175.2c0-2.4,1.9-4.5,4.3-4.5c3.1,0,4.1,2.1,4.3,4.5H472.6z M481,179.2c-0.1,1.1-1.5,3-4,3c-3,0-4.5-1.9-4.5-5
				h11.2c0-5.5-2.1-8.9-6.7-8.9c-5.2,0-7.4,3.9-7.4,8.5c0,4.5,2.5,7.8,6.9,7.8c2.5,0,3.5-0.5,4.1-1.1c1.9-1.3,2.6-3.5,2.8-4.1
				L481,179.2L481,179.2z"/>
			<path d="M496.4,173.1c0-1-0.4-2.5-3.6-2.5c-0.9,0-3.1,0.3-3.1,2.1c0,1.3,0.9,1.5,2.9,2.1l2.5,0.6c3.1,0.9,4.3,2,4.3,4.1
				c0,3.1-2.6,5.2-6.2,5.2c-6.2,0-6.5-3.5-6.7-5.4h2.5c0.1,1.1,0.5,3.1,4.1,3.1c1.9,0,3.5-0.8,3.5-2.5c0-1.3-0.9-1.6-3.1-2.1l-3-0.8
				c-2.1-0.5-3.5-1.6-3.5-3.8c0-3.4,2.9-4.9,5.9-4.9c5.5,0,5.9,4.1,5.9,4.9h-2.4L496.4,173.1L496.4,173.1z"/>
			<path d="M512.5,173.8c-0.4-2.1-1.5-3.3-3.6-3.3c-3.1,0-4.1,3.1-4.1,5.9c0,2.6,0.6,5.9,4.1,5.9c1.8,0,3.1-1.3,3.6-3.6h2.5
				c-0.3,2.5-1.8,5.9-6.3,5.9c-4.3,0-6.9-3.3-6.9-7.8c0-4.8,2.3-8.5,7.4-8.5c4,0,5.5,2.9,5.8,5.7L512.5,173.8L512.5,173.8z"/>
			<path d="M520.3,175.2c0-2.4,1.9-4.5,4.3-4.5c3.1,0,4.1,2.1,4.3,4.5H520.3z M528.7,179.2c-0.1,1.1-1.5,3-4,3c-3,0-4.5-1.9-4.5-5
				h11.2c0-5.5-2.1-8.9-6.7-8.9c-5.2,0-7.4,3.9-7.4,8.5c0,4.5,2.5,7.8,6.9,7.8c2.5,0,3.5-0.5,4.1-1.1c1.9-1.3,2.6-3.5,2.8-4.1
				L528.7,179.2L528.7,179.2z"/>
			<path d="M547.8,184.1h-2.5v-9.6c0-2.6-0.8-4-3.3-4c-1.5,0-4.1,0.9-4.1,5.2v8.4h-2.5v-15.5h2.5v2.1h0.1c0.5-0.9,2-2.6,4.7-2.6
				c2.4,0,5.4,1,5.4,5.4L547.8,184.1L547.8,184.1z"/>
			<path d="M555.3,170.8v10.1c0,1.1,1,1.1,1.5,1.1h0.9v2c-0.9,0.1-1.6,0.1-1.9,0.1c-2.5,0-3.1-1.5-3.1-3.3v-10.2h-2v-2.1h2.1v-4.3
				h2.5v4.3h2.5v2.1h-2.5V170.8z"/>
			<path d="M582.9,169.2c-0.1-3.3-2.9-4.3-5.2-4.3c-1.9,0-4.9,0.5-4.9,3.8c0,1.9,1.3,2.4,2.5,2.6l6,1.4c2.8,0.6,4.9,2.3,4.9,5.7
				c0,5-4.7,6.4-8.3,6.4c-3.9,0-5.5-1.1-6.4-2c-1.9-1.6-2.1-3.4-2.1-5.4h2.6c0,3.9,3.1,4.9,5.9,4.9c2.1,0,5.5-0.5,5.5-3.5
				c0-2.1-1-2.9-4.5-3.8l-4.3-1c-1.4-0.4-4.5-1.3-4.5-5c0-3.3,2.1-6.5,7.3-6.5c7.4,0,8.2,4.4,8.2,6.8L582.9,169.2L582.9,169.2z"/>
			<path d="M591.8,176.4c0-2.1,0.8-5.9,4.5-5.9c3.8,0,4.5,3.9,4.5,5.9c0,2.1-0.8,5.9-4.5,5.9C592.5,182.2,591.8,178.5,591.8,176.4z
				 M589.1,176.4c0,4,2.3,8.2,7.2,8.2s7.2-4.1,7.2-8.2c0-4-2.3-8.2-7.2-8.2C591.4,168.3,589.1,172.4,589.1,176.4z"/>
			<path d="M616.5,173.8c-0.4-2.1-1.5-3.3-3.6-3.3c-3.1,0-4.1,3.1-4.1,5.9c0,2.6,0.6,5.9,4.1,5.9c1.8,0,3.1-1.3,3.6-3.6h2.5
				c-0.3,2.5-1.8,5.9-6.3,5.9c-4.3,0-6.9-3.3-6.9-7.8c0-4.8,2.3-8.5,7.4-8.5c4,0,5.5,2.9,5.8,5.7L616.5,173.8L616.5,173.8z"/>
			<path d="M625,184.1h-2.6v-15.5h2.5L625,184.1L625,184.1z M622.3,165.9V163h2.5v2.9H622.3z"/>
			<path d="M631.5,175.2c0-2.4,1.9-4.5,4.3-4.5c3.1,0,4.1,2.1,4.3,4.5H631.5z M639.9,179.2c-0.1,1.1-1.5,3-4,3c-3,0-4.5-1.9-4.5-5
				h11.2c0-5.5-2.1-8.9-6.7-8.9c-5.2,0-7.4,3.9-7.4,8.5c0,4.5,2.5,7.8,6.9,7.8c2.5,0,3.5-0.5,4.1-1.1c1.9-1.3,2.6-3.5,2.8-4.1
				L639.9,179.2L639.9,179.2z"/>
			<path d="M649.6,170.8v10.1c0,1.1,1,1.1,1.5,1.1h0.9v2c-0.9,0.1-1.6,0.1-1.9,0.1c-2.5,0-3.1-1.5-3.1-3.3v-10.2h-2v-2.1h2.1v-4.3
				h2.5v4.3h2.5v2.1h-2.5V170.8z"/>
			<path d="M657.8,184.1h-2.5v-15.5h2.5V184.1z M655.3,165.9V163h2.5v2.9H655.3z"/>
			<path d="M664.4,175.2c0-2.4,1.9-4.5,4.3-4.5c3.1,0,4.1,2.1,4.3,4.5H664.4z M672.7,179.2c-0.1,1.1-1.5,3-4,3c-3,0-4.5-1.9-4.5-5
				h11.2c0-5.5-2.1-8.9-6.7-8.9c-5.2,0-7.4,3.9-7.4,8.5c0,4.5,2.5,7.8,6.9,7.8c2.5,0,3.5-0.5,4.1-1.1c1.9-1.3,2.6-3.5,2.8-4.1
				L672.7,179.2L672.7,179.2z"/>
			<path d="M688.1,173.1c0-1-0.4-2.5-3.6-2.5c-0.9,0-3.1,0.3-3.1,2.1c0,1.3,0.9,1.5,2.9,2.1l2.5,0.6c3.1,0.9,4.3,2,4.3,4.1
				c0,3.1-2.6,5.2-6.2,5.2c-6.2,0-6.5-3.5-6.7-5.4h2.5c0.1,1.1,0.5,3.1,4.1,3.1c1.9,0,3.5-0.8,3.5-2.5c0-1.3-0.9-1.6-3.1-2.1l-3-0.8
				c-2.1-0.5-3.5-1.6-3.5-3.8c0-3.4,2.9-4.9,5.9-4.9c5.5,0,5.9,4.1,5.9,4.9h-2.4L688.1,173.1L688.1,173.1z"/>
		</g>
		<g>
			<rect x="2.5" y="123.8" class="st0" width="112.4" height="64.4"/>
			<g>
				<polygon class="st8" points="31.1,162.5 16.4,162.5 16.4,150.1 31.1,150.1 31.1,150.1 31.1,135.3 43.6,135.3 43.6,150.1 
					43.6,150.1 58.2,150.1 58.2,162.5 43.6,162.5 43.6,162.5 43.6,177.2 31.1,177.2 				"/>
				<g>
					<path class="st8" d="M77.6,156.1c0-9.8,7.9-17.6,17.6-17.6c2.1,0,4.1,0.4,6.2,1.1c-3.5-2.9-8.2-4.5-13.2-4.5
						c-11.7,0-21.2,9.6-21.2,21.2s9.6,21.2,21.2,21.2c5.2,0,9.8-1.9,13.6-4.9c-2,0.9-4.1,1.3-6.5,1.3
						C85.5,173.7,77.6,165.8,77.6,156.1z"/>
				</g>
				<rect x="7.4" y="128.7" class="st9" width="102.9" height="55.2"/>
			</g>
		</g>
	</g>
</g>
<g id="Combo" class="st4">
	<g class="st6">
		<rect x="369.4" y="-3.3" class="st0" width="113.9" height="65.2"/>
		<g>
			<polygon class="st7" points="398.2,35.9 383.5,35.9 383.5,23.3 398.2,23.3 398.2,23.3 398.2,8.4 411,8.4 411,23.3 411,23.3 
				425.7,23.3 425.7,35.9 411,35.9 411,35.9 411,50.7 398.2,50.7 			"/>
			<g>
				<path class="st7" d="M445.5,29.5c0-9.9,8-17.8,17.8-17.8c2.2,0,4.2,0.4,6.2,1.1c-3.6-2.9-8.3-4.6-13.4-4.6
					c-11.8,0-21.5,9.7-21.5,21.5s9.7,21.5,21.5,21.5c5.2,0,9.9-1.9,13.8-5c-2,0.9-4.2,1.3-6.6,1.3C453.4,47.3,445.5,39.3,445.5,29.5
					z"/>
			</g>
			<rect x="374.3" y="1.6" class="st9" width="104.3" height="55.9"/>
		</g>
	</g>
</g>
</svg>
