<?xml version="1.0" encoding="utf-8"?>
<!-- Generator: Adobe Illustrator 19.2.0, SVG Export Plug-In . SVG Version: 6.00 Build 0)  -->
<svg version="1.1" id="Layer_1" xmlns="http://www.w3.org/2000/svg" xmlns:xlink="http://www.w3.org/1999/xlink" x="0px" y="0px"
	 viewBox="0 0 112.4 64.4" style="enable-background:new 0 0 112.4 64.4;" xml:space="preserve">
<style type="text/css">
	.st0{fill:#FFFFFF;}
	.st1{fill:#EC2227;}
	.st2{fill:none;stroke:#EC2227;stroke-width:2;}
</style>
<g>
	<rect class="st0" width="112.4" height="64.4"/>
	<g>
		<polygon class="st1" points="28.6,38.7 13.9,38.7 13.9,26.3 28.6,26.3 28.6,26.3 28.6,11.5 41.1,11.5 41.1,26.3 41.1,26.3 
			55.7,26.3 55.7,38.7 41.1,38.7 41.1,38.7 41.1,53.4 28.6,53.4 		"/>
		<g>
			<path class="st1" d="M75.1,32.3c0-9.8,7.9-17.6,17.6-17.6c2.1,0,4.1,0.4,6.2,1.1c-3.5-2.9-8.2-4.5-13.2-4.5
				c-11.7,0-21.2,9.6-21.2,21.2s9.6,21.2,21.2,21.2c5.2,0,9.8-1.9,13.6-4.9c-2,0.9-4.1,1.3-6.5,1.3C83,49.9,75.1,42,75.1,32.3z"/>
		</g>
		<rect x="4.9" y="4.9" class="st2" width="102.9" height="55.2"/>
	</g>
</g>
</svg>
