<?xml version="1.0" encoding="utf-8"?>
<!-- Generator: Adobe Illustrator 19.2.0, SVG Export Plug-In . SVG Version: 6.00 Build 0)  -->
<svg version="1.1" id="Layer_1" xmlns="http://www.w3.org/2000/svg" xmlns:xlink="http://www.w3.org/1999/xlink" x="0px" y="0px"
	 viewBox="0 0 58.2 58.2" style="enable-background:new 0 0 58.2 58.2;" xml:space="preserve">
<style type="text/css">
	.st0{display:none;}
	.st1{display:inline;}
	.st2{fill:#FFFFFF;}
	.st3{fill:none;stroke:#000000;stroke-width:1.5;stroke-linecap:round;stroke-linejoin:round;}
	.st4{fill:none;stroke:#000000;stroke-linecap:round;stroke-linejoin:round;}
	.st5{fill:#DF0031;}
	.st6{display:inline;fill:#ED1B2E;}
	.st7{fill:#ED1B2E;}
	.st8{fill:#ED1C24;}
	.st9{fill:none;stroke:#ED1C24;stroke-width:2;}
</style>
<g id="ICRC" class="st0">
	<g class="st1">
		<circle class="st2" cx="-142.4" cy="29.1" r="28"/>
		<circle class="st3" cx="-142.4" cy="29.1" r="28"/>
		<path class="st4" d="M-123.1,29.1c0,10.6-8.6,19.2-19.2,19.2c-10.6,0-19.2-8.6-19.2-19.2s8.6-19.2,19.2-19.2
			C-131.7,9.9-123.1,18.5-123.1,29.1z"/>
		<polygon class="st5" points="-156.5,33.4 -156.5,24.9 -128.3,24.8 -128.2,33.3 		"/>
		<path d="M-165.9,36.6c-0.5,0.3-0.8,0.7-0.9,1.2c-0.1,0.5-0.1,1,0.1,1.5c0.3,0.8,0.8,1.3,1.5,1.5s1.3,0.1,2.1-0.2
			c0.7-0.3,1.3-0.8,1.6-1.3c0.3-0.6,0.3-1.3,0-2.1c-0.5-1.3-1.5-1.7-2.9-1.4l0.3,0.7c0.4-0.1,0.8-0.1,1.2,0c0.4,0.1,0.6,0.4,0.8,0.9
			c0.1,0.3,0.2,0.6,0.1,0.8c0,0.3-0.1,0.5-0.2,0.7c-0.3,0.4-0.7,0.8-1.3,1c-0.5,0.2-1.1,0.3-1.5,0.2c-0.5-0.1-0.9-0.5-1.1-1.1
			c-0.1-0.4-0.2-0.7-0.1-1c0.1-0.3,0.3-0.6,0.6-0.8L-165.9,36.6z M-165.3,34.8c0.7-0.1,1.4-0.4,1.8-0.9c0.5-0.5,0.7-1.2,0.6-2
			c-0.1-0.9-0.5-1.5-1.1-1.8c-0.6-0.4-1.3-0.5-2-0.4s-1.4,0.4-1.9,0.9c-0.5,0.5-0.7,1.2-0.6,2.1s0.5,1.5,1.1,1.8
			C-166.7,34.8-166.1,34.9-165.3,34.8z M-165.4,34.1c-0.6,0.1-1.1,0-1.5-0.3c-0.2-0.1-0.4-0.3-0.6-0.5c-0.1-0.2-0.3-0.5-0.3-0.8
			s0-0.6,0.1-0.9c0.1-0.3,0.2-0.5,0.4-0.6c0.4-0.3,0.9-0.6,1.5-0.6c0.1,0,0.3,0,0.4,0c0.1,0,0.3,0,0.4,0c0.3,0,0.5,0.1,0.7,0.3
			c0.5,0.2,0.8,0.7,0.9,1.3c0.1,0.7-0.1,1.2-0.5,1.5c-0.2,0.2-0.4,0.3-0.7,0.4C-164.9,34-165.1,34.1-165.4,34.1z M-163.2,28.4
			l0.1-0.7l-4.4-0.8l0,0l4.7-0.9l0.1-0.6l-4.1-2.5l0,0l4.4,0.8l0.1-0.7l-5.3-0.9l-0.2,1l4.1,2.5l-4.7,0.9l-0.2,1L-163.2,28.4z
			 M-161.8,21.9l0.3-0.7l-5-2l-0.3,0.7L-161.8,21.9z M-160.5,19l0.4-0.6l-4.1-2.4l0.9-1.6l-0.5-0.3l-2.2,3.7l0.5,0.3l0.9-1.6
			L-160.5,19z M-158.8,16.3l2.5-2.8l-0.4-0.4l-2,2.3l-1.4-1.3l1.9-2.1l-0.4-0.4l-1.9,2.1l-1.3-1.2l2-2.2l-0.4-0.5l-2.5,2.8
			L-158.8,16.3z M-153.9,11.7l0.6-0.4l-2.9-4.6l-0.6,0.4L-153.9,11.7z M-152.3,10.6l0.6-0.3l-1.7-4.1l0,0l4.2,3l0.7-0.3l-2.1-5
			l-0.6,0.3l1.7,4.1l0,0l-4.3-3l-0.7,0.3L-152.3,10.6z M-146,8.4l0.7-0.1l-0.8-4.8l1.7-0.3l-0.1-0.6l-4.2,0.7l0.1,0.6l1.7-0.3
			L-146,8.4z M-143,8l3.7,0.2V7.6l-3-0.2l0.1-1.9l2.8,0.1V5l-2.8-0.1l0.1-1.7l3,0.2V2.8l-3.7-0.2L-143,8z M-136.9,5.7l0.5-1.8
			l1.7,0.5c0.3,0.1,0.5,0.3,0.6,0.5c0.1,0.2,0.1,0.4,0,0.7c-0.1,0.2-0.1,0.3-0.2,0.4c-0.1,0.1-0.2,0.2-0.3,0.2
			c-0.3,0.1-0.6,0-0.9-0.1L-136.9,5.7z M-138.4,8.4l0.7,0.2l0.6-2.2l1.7,0.5c0.2,0.1,0.3,0.1,0.4,0.2s0.1,0.2,0.2,0.3
			c0,0.1,0.1,0.2,0.1,0.3s0,0.3,0,0.4c0,0.1,0,0.3-0.1,0.4c0,0.1-0.1,0.3-0.1,0.4c0,0.1-0.1,0.2-0.1,0.3s0,0.2,0,0.3l0.8,0.2
			c0-0.1-0.1-0.2-0.1-0.4c0-0.1,0-0.3,0-0.4c0-0.3,0.1-0.5,0.2-0.8c0.1-0.3,0.1-0.5,0-0.7c0-0.1-0.1-0.2-0.1-0.3
			c-0.1-0.1-0.2-0.2-0.3-0.3l0,0c0.3,0,0.6-0.1,0.8-0.3s0.3-0.5,0.4-0.8c0.2-0.9-0.2-1.5-1.2-1.9l-2.4-0.7L-138.4,8.4z M-133.5,10
			l0.6,0.3l2.2-3.8l0,0l0.2,5.3l0.7,0.4l2.7-4.7l-0.6-0.4l-2.2,3.8l0,0l-0.2-5.3l-0.7-0.4L-133.5,10z M-129.4,12.5l0.5,0.5l1.6-0.7
			l1.6,1.6l-0.7,1.6l0.6,0.6l2.3-5.4l-0.6-0.6L-129.4,12.5z M-124.3,10.9L-124.3,10.9l-1.1,2.5l-1.3-1.3L-124.3,10.9z M-124.9,17.6
			l0.4,0.6l4-2.6l0.9,1.5l0.5-0.3l-2.3-3.7l-0.5,0.3l0.9,1.5L-124.9,17.6z M-123.4,20.4l0.3,0.7l4.9-2.3l-0.3-0.6L-123.4,20.4z
			 M-120,21.2c-0.7,0.2-1.3,0.6-1.7,1.1c-0.4,0.6-0.6,1.3-0.4,2.1s0.7,1.4,1.3,1.7c0.6,0.3,1.3,0.3,2,0.2c0.7-0.2,1.3-0.6,1.7-1.1
			c0.4-0.6,0.5-1.3,0.4-2.1c-0.2-0.8-0.6-1.4-1.3-1.7C-118.6,21.1-119.3,21-120,21.2z M-119.9,21.9c0.5-0.1,1.1-0.1,1.6,0.1
			c0.2,0.1,0.5,0.3,0.6,0.5c0.2,0.2,0.3,0.5,0.4,0.8s0.1,0.6,0,0.9c-0.1,0.3-0.2,0.5-0.3,0.7c-0.4,0.4-0.8,0.7-1.4,0.8
			c-0.1,0-0.3,0.1-0.4,0.1s-0.3,0-0.4,0c-0.3,0-0.5-0.1-0.8-0.2c-0.5-0.2-0.9-0.6-1-1.2c-0.1-0.6,0-1.2,0.3-1.6
			c0.2-0.2,0.4-0.4,0.6-0.5C-120.4,22.1-120.1,22-119.9,21.9z M-121.4,27.9v0.7l4.3,0.1l0,0l-4.4,2.8v0.8l5.3,0.2v-0.7l-4.3-0.1l0,0
			l4.4-2.7v-0.8L-121.4,27.9z M-121.6,32.8l-0.2,0.7l1.4,1.1l-0.6,2.2l-1.7,0.1l-0.2,0.8l5.7-0.5l0.2-0.8L-121.6,32.8z M-117.7,36.6
			L-117.7,36.6l-2.6,0.2l0.5-1.8L-117.7,36.6z M-123.3,38.1l-1.7,3.2l0.5,0.3l1.4-2.5l4.2,2.3l0.3-0.6L-123.3,38.1z"/>
		<path d="M-155.4,51.2l-0.2,0.7l0.4,0.3l1.6-2.4l-2-1.3l-0.3,0.5l1.4,1c-0.3,0.4-0.6,0.7-1,0.8c-0.4,0.1-0.9,0-1.4-0.3
			s-0.7-0.8-0.8-1.3c0-0.5,0.1-1,0.4-1.5s0.7-0.9,1.2-1.1s1-0.1,1.6,0.2c0.3,0.2,0.6,0.5,0.7,0.8c0.1,0.3,0.1,0.7-0.1,1.1l0.6,0.4
			c0.3-0.6,0.3-1.1,0.1-1.6s-0.5-0.9-1-1.2c-0.7-0.5-1.4-0.6-2.1-0.3c-0.7,0.2-1.2,0.7-1.7,1.3c-0.4,0.6-0.6,1.3-0.5,1.9
			c0.1,0.7,0.4,1.3,1.1,1.7c0.3,0.2,0.6,0.3,0.9,0.4C-156.1,51.4-155.8,51.3-155.4,51.2z M-153.1,53.2l3.5,1.3l0.2-0.6l-2.9-1
			l0.6-1.8l2.6,1l0.2-0.6l-2.6-1l0.6-1.6l2.8,1l0.2-0.6l-3.5-1.3L-153.1,53.2z M-147.4,55l0.7,0.1l0.5-4.3l0,0l2.3,4.6l0.8,0.1
			l0.6-5.4l-0.7-0.1l-0.5,4.4l0,0l-2.3-4.7l-0.8-0.1L-147.4,55z M-140.7,55.4l3.7-0.5l-0.1-0.6l-3,0.4l-0.2-1.9l2.8-0.4l-0.1-0.6
			l-2.8,0.4l-0.2-1.7l3-0.4l-0.1-0.6l-3.7,0.5L-140.7,55.4z M-132.9,47.8l-0.7,0.3l0.2,5l0,0l-3.1-3.9l-0.7,0.3l3.7,4.4l0.8-0.3
			L-132.9,47.8z M-129.3,52l3.2-2l-0.4-0.6l-2.6,1.7l-1-1.6l2.3-1.5l-0.3-0.5l-2.3,1.5l-0.9-1.4l2.5-1.6l-0.3-0.5l-3.1,2L-129.3,52z
			"/>
		<polygon class="st5" points="-146.7,15 -138.1,14.9 -138.1,43.2 -146.6,43.2 		"/>
	</g>
</g>
<g id="Red_Crescent" class="st0">
	<path class="st6" d="M-43.8,53.4c-13.4,0-24.3-10.9-24.3-24.3S-57.3,4.8-43.8,4.8c4.3,0,8.3,1.1,11.8,3c-5.3-5.1-12.5-8.3-20.5-8.3
		C-68.8-0.5-82,12.7-82,29s13.2,29.5,29.5,29.5c8,0,15.2-3.1,20.5-8.3C-35.5,52.3-39.6,53.4-43.8,53.4z"/>
</g>
<g id="Layer_5">
	<g>
		<path class="st7" d="M29.1,0L0,29.1l29.1,29.1l29.1-29.1L29.1,0z"/>
		<path class="st2" d="M29.1,14.6L43.5,29L29.1,43.4L14.7,29L29.1,14.6z"/>
	</g>
</g>
<g id="Red_Cross" class="st0">
	<g class="st1">
		<polygon class="st7" points="97.9,37.8 97.9,20.4 155.5,20.1 155.6,37.6 		"/>
		<polygon class="st7" points="117.9,0.2 135.4,0.1 135.5,57.8 118.1,57.8 		"/>
	</g>
</g>
<g id="IFRC_and_RC" class="st0">
	<g class="st1">
		<g>
			<path d="M-42.8,149.2h-2.9V128h2.9V149.2z"/>
			<path d="M-25,149.2h-2.5v-9.6c0-2.6-0.8-4-3.3-4c-1.5,0-4.1,0.9-4.1,5.2v8.4h-2.6v-15.4h2.5v2.1h0.1c0.5-0.9,2-2.6,4.7-2.6
				c2.4,0,5.4,1,5.4,5.4L-25,149.2L-25,149.2z"/>
			<path d="M-17.4,135.9V146c0,1.1,1,1.1,1.5,1.1h0.9v2c-0.9,0.1-1.6,0.1-1.9,0.1c-2.5,0-3.1-1.5-3.1-3.3v-10.1h-2.1v-2.1h2.1v-4.3
				h2.5v4.3h2.5v2.1h-2.4V135.9z"/>
			<path d="M-9.7,140.2c0-2.4,1.9-4.5,4.3-4.5c3.1,0,4.1,2.1,4.3,4.5H-9.7z M-1.3,144.3c-0.1,1.1-1.5,3-4,3c-3,0-4.5-1.9-4.5-5H1.4
				c0-5.5-2.1-8.9-6.7-8.9c-5.2,0-7.4,3.9-7.4,8.5c0,4.5,2.5,7.8,6.9,7.8c2.5,0,3.5-0.5,4.1-1.1c1.9-1.3,2.6-3.5,2.8-4.1L-1.3,144.3
				L-1.3,144.3z"/>
			<path d="M8.1,149.2H5.6v-15.4h2.5v2.5h0.1c1-1.9,2.4-3,4.3-3c0.4,0,0.5,0,0.6,0.1v2.6h-1c-2.4,0-3.9,1.9-3.9,4.1L8.1,149.2
				L8.1,149.2z"/>
			<path d="M28.9,149.2h-2.5v-9.6c0-2.6-0.8-4-3.3-4c-1.5,0-4.1,0.9-4.1,5.2v8.4h-2.5v-15.4H19v2.1h0.1c0.5-0.9,2-2.6,4.7-2.6
				c2.4,0,5.4,1,5.4,5.4L28.9,149.2L28.9,149.2z"/>
			<path d="M42.7,143.8c0,2.1-2.4,3.6-4.8,3.6c-1.9,0-2.9-1-2.9-2.6c0-1.9,2-2.3,3.3-2.5c3.1-0.5,3.9-0.6,4.3-1L42.7,143.8
				L42.7,143.8z M35.5,138.5c0.1-1.1,0.5-3,3.5-3c2.5,0,3.6,0.9,3.6,2.5c0,1.5-0.8,1.8-1.4,1.9l-4.3,0.5c-4.3,0.5-4.7,3.5-4.7,4.9
				c0,2.6,2,4.5,4.9,4.5c3,0,4.5-1.4,5.5-2.5c0.1,1.1,0.5,2.4,2.8,2.4c0.5,0,1-0.1,1.4-0.3v-2.1c-0.3,0.1-0.6,0.1-0.9,0.1
				c-0.5,0-0.9-0.3-0.9-0.9v-8.9c0-3.9-4.5-4.3-5.8-4.3c-3.9,0-6.2,1.5-6.4,5.2L35.5,138.5L35.5,138.5z"/>
			<path d="M53.5,135.9V146c0,1.1,1,1.1,1.5,1.1h0.9v2c-0.9,0.1-1.6,0.1-1.9,0.1c-2.5,0-3.1-1.5-3.1-3.3v-10.1h-2v-2.1H51v-4.3h2.5
				v4.3H56v2.1h-2.5V135.9z"/>
			<path d="M61.7,149.2h-2.5v-15.4h2.5V149.2z M59.2,131v-2.9h2.5v2.9H59.2z"/>
			<path d="M68,141.6c0-2.1,0.8-5.9,4.5-5.9c3.8,0,4.5,3.9,4.5,5.9c0,2.1-0.8,5.9-4.5,5.9C68.7,147.3,68,143.6,68,141.6z
				 M65.3,141.6c0,4,2.3,8.2,7.2,8.2c4.9,0,7.2-4.1,7.2-8.2s-2.3-8.2-7.2-8.2S65.3,137.5,65.3,141.6z"/>
			<path d="M95.7,149.2h-2.5v-9.6c0-2.6-0.8-4-3.3-4c-1.5,0-4.1,0.9-4.1,5.2v8.4h-2.5v-15.4h2.5v2.1h0.1c0.5-0.9,2-2.6,4.7-2.6
				c2.4,0,5.4,1,5.4,5.4L95.7,149.2L95.7,149.2z"/>
			<path d="M109.6,143.8c0,2.1-2.4,3.6-4.8,3.6c-1.9,0-2.9-1-2.9-2.6c0-1.9,2-2.3,3.3-2.5c3.1-0.5,3.9-0.6,4.3-1v2.5H109.6z
				 M102.4,138.5c0.1-1.1,0.5-3,3.5-3c2.5,0,3.6,0.9,3.6,2.5c0,1.5-0.8,1.8-1.4,1.9l-4.3,0.5c-4.3,0.5-4.7,3.5-4.7,4.9
				c0,2.6,2,4.5,4.9,4.5c3,0,4.5-1.4,5.5-2.5c0.1,1.1,0.5,2.4,2.8,2.4c0.5,0,1-0.1,1.4-0.3v-2.1c-0.3,0.1-0.6,0.1-0.9,0.1
				c-0.5,0-0.9-0.3-0.9-0.9v-8.9c0-3.9-4.5-4.3-5.8-4.3c-3.9,0-6.2,1.5-6.4,5.2L102.4,138.5L102.4,138.5z"/>
			<path d="M119.9,149.2h-2.5V128h2.5V149.2z"/>
			<path d="M136.6,149.2h-2.9V128h14.6v2.5h-11.8v6.5h10.4v2.5h-10.4v9.7H136.6z"/>
			<path d="M152.8,140.2c0-2.4,1.9-4.5,4.3-4.5c3.1,0,4.1,2.1,4.3,4.5H152.8z M161.4,144.3c-0.1,1.1-1.5,3-4,3c-3,0-4.5-1.9-4.5-5
				h11.2c0-5.5-2.1-8.9-6.7-8.9c-5.2,0-7.4,3.9-7.4,8.5c0,4.5,2.5,7.8,6.9,7.8c2.5,0,3.5-0.5,4.1-1.1c1.9-1.3,2.6-3.5,2.8-4.1
				L161.4,144.3L161.4,144.3z"/>
			<path d="M169.5,141.4c0-2,0.1-5.8,4.1-5.8c3.8,0,4.1,4,4.1,6.5c0,4.1-2.5,5.2-4.1,5.2C170.9,147.3,169.5,144.8,169.5,141.4z
				 M180.6,128.1h-2.5v7.9H178c-0.6-0.9-1.9-2.6-4.5-2.6c-4.1,0-6.4,3.4-6.4,7.7c0,3.6,1.5,8.5,6.8,8.5c1.5,0,3.3-0.5,4.4-2.5h0.1
				v2.1h2.5L180.6,128.1L180.6,128.1z"/>
			<path d="M186.7,140.2c0-2.4,1.9-4.5,4.3-4.5c3.1,0,4.1,2.1,4.3,4.5H186.7z M195.2,144.3c-0.1,1.1-1.5,3-4,3c-3,0-4.5-1.9-4.5-5
				h11.2c0-5.5-2.1-8.9-6.7-8.9c-5.2,0-7.4,3.9-7.4,8.5c0,4.5,2.5,7.8,6.9,7.8c2.5,0,3.5-0.5,4.1-1.1c1.9-1.3,2.6-3.5,2.8-4.1
				L195.2,144.3L195.2,144.3z"/>
			<path d="M204.6,149.2h-2.5v-15.4h2.5v2.5h0.1c1-1.9,2.4-3,4.3-3c0.4,0,0.5,0,0.6,0.1v2.6h-0.9c-2.4,0-3.9,1.9-3.9,4.1
				L204.6,149.2L204.6,149.2z"/>
			<path d="M221.2,143.8c0,2.1-2.4,3.6-4.8,3.6c-1.9,0-2.9-1-2.9-2.6c0-1.9,2-2.3,3.3-2.5c3.1-0.5,3.9-0.6,4.3-1v2.5H221.2z
				 M214.2,138.5c0.1-1.1,0.5-3,3.5-3c2.5,0,3.6,0.9,3.6,2.5c0,1.5-0.8,1.8-1.4,1.9l-4.3,0.5c-4.3,0.5-4.7,3.5-4.7,4.9
				c0,2.6,2,4.5,4.9,4.5c3,0,4.5-1.4,5.5-2.5c0.1,1.1,0.5,2.4,2.8,2.4c0.5,0,1-0.1,1.4-0.3v-2.1c-0.3,0.1-0.6,0.1-0.9,0.1
				c-0.5,0-0.9-0.3-0.9-0.9v-8.9c0-3.9-4.5-4.3-5.8-4.3c-3.9,0-6.2,1.5-6.4,5.2L214.2,138.5L214.2,138.5z"/>
			<path d="M232,135.9V146c0,1.1,1,1.1,1.5,1.1h0.9v2c-0.9,0.1-1.6,0.1-1.9,0.1c-2.5,0-3.1-1.5-3.1-3.3v-10.1h-2.1v-2.1h2.1v-4.3
				h2.5v4.3h2.5v2.1H232V135.9z"/>
			<path d="M240.3,149.2h-2.5v-15.4h2.5V149.2z M237.7,131v-2.9h2.5v2.9H237.7z"/>
			<path d="M246.5,141.6c0-2.1,0.8-5.9,4.5-5.9c3.8,0,4.5,3.9,4.5,5.9c0,2.1-0.8,5.9-4.5,5.9C247.3,147.3,246.5,143.6,246.5,141.6z
				 M243.8,141.6c0,4,2.3,8.2,7.2,8.2c4.9,0,7.2-4.1,7.2-8.2s-2.3-8.2-7.2-8.2S243.8,137.5,243.8,141.6z"/>
			<path d="M274.2,149.2h-2.5v-9.6c0-2.6-0.8-4-3.3-4c-1.5,0-4.1,0.9-4.1,5.2v8.4h-2.5v-15.4h2.5v2.1h0.1c0.5-0.9,2-2.6,4.7-2.6
				c2.4,0,5.4,1,5.4,5.4L274.2,149.2L274.2,149.2z"/>
			<path d="M-44.5,176.2c0-2.1,0.8-5.9,4.5-5.9s4.5,3.9,4.5,5.9c0,2.1-0.8,5.9-4.5,5.9C-43.8,182-44.5,178.3-44.5,176.2z
				 M-47.2,176.2c0,4,2.3,8.2,7.2,8.2s7.2-4.1,7.2-8.2c0-4-2.3-8.2-7.2-8.2C-44.9,168.1-47.2,172.2-47.2,176.2z"/>
			<path d="M-26,170.6v13.2h-2.5v-13.2h-2.1v-2.1h2.1v-2.7c0-2.3,1.5-3.4,4-3.4c0.4,0,0.8,0,1.1,0.1v2.3c-0.4,0-0.8-0.1-1.1-0.1
				c-1.1,0-1.5,0.5-1.5,1.9v1.9h2.5v2.1H-26L-26,170.6z"/>
			<path d="M-8.3,165.2h7.2c1.4,0,3.9,0.3,3.9,3.5c0,3.1-2.1,3.6-4.3,3.6h-6.7L-8.3,165.2L-8.3,165.2L-8.3,165.2z M-8.3,174.9h6.9
				c3.4,0,3.8,2,3.8,3.8c0,0.9,0.1,4,0.5,5.3h3.5v-0.5c-0.9-0.5-1-0.9-1.1-2.1l-0.1-3.9c-0.1-2.9-1.4-3.5-2.5-4
				c1.4-0.9,2.9-1.9,2.9-5c0-4.5-3.5-5.7-6.9-5.7h-9.8V184h2.9L-8.3,174.9L-8.3,174.9L-8.3,174.9L-8.3,174.9z"/>
			<path d="M12.2,175c0-2.4,1.9-4.5,4.3-4.5c3.1,0,4.1,2.1,4.3,4.5H12.2z M20.6,179c-0.1,1.1-1.5,3-4,3c-3,0-4.5-1.9-4.5-5h11.2
				c0-5.5-2.1-8.9-6.7-8.9c-5.2,0-7.4,3.9-7.4,8.5c0,4.5,2.5,7.8,6.9,7.8c2.5,0,3.5-0.5,4.1-1.1c1.9-1.3,2.6-3.5,2.8-4.1L20.6,179
				L20.6,179z"/>
			<path d="M28.9,176.1c0-2,0.1-5.8,4.1-5.8c3.8,0,4.1,4,4.1,6.5c0,4.1-2.5,5.2-4.1,5.2C30.1,182,28.9,179.5,28.9,176.1z
				 M39.8,162.8h-2.5v7.9h-0.1c-0.6-0.9-1.9-2.6-4.5-2.6c-4.1,0-6.4,3.4-6.4,7.7c0,3.6,1.5,8.5,6.8,8.5c1.5,0,3.3-0.5,4.4-2.5h0.1
				v2.1h2.5L39.8,162.8L39.8,162.8z"/>
			<path d="M68,169.1c-0.9-3.8-3.9-4.4-5.9-4.4c-3.9,0-6.9,2.9-6.9,8.4c0,5,1.8,8.8,7,8.8c1.9,0,5-0.9,6-5.9H71
				c-1.1,7.9-7.7,8.3-9.2,8.3c-4.9,0-9.6-3.1-9.6-11.2c0-6.5,3.8-11.1,9.9-11.1c5.5,0,8.3,3.4,8.7,6.9L68,169.1L68,169.1z"/>
			<path d="M77.6,183.9h-2.5v-15.5h2.5v2.5h0.1c1-1.9,2.4-3,4.3-3c0.4,0,0.5,0,0.6,0.1v2.6h-0.9c-2.4,0-3.9,1.9-3.9,4.1L77.6,183.9
				L77.6,183.9z"/>
			<path d="M86.9,176.2c0-2.1,0.8-5.9,4.5-5.9c3.8,0,4.5,3.9,4.5,5.9c0,2.1-0.8,5.9-4.5,5.9C87.7,182,86.9,178.3,86.9,176.2z
				 M84.2,176.2c0,4,2.3,8.2,7.2,8.2c4.9,0,7.2-4.1,7.2-8.2c0-4-2.3-8.2-7.2-8.2C86.4,168.1,84.2,172.2,84.2,176.2z"/>
			<path d="M110.8,172.9c0-1-0.4-2.5-3.6-2.5c-0.9,0-3.1,0.3-3.1,2.1c0,1.3,0.9,1.5,2.9,2.1l2.5,0.6c3.1,0.9,4.3,2,4.3,4.1
				c0,3.1-2.6,5.2-6.2,5.2c-6.2,0-6.5-3.5-6.7-5.4h2.5c0.1,1.1,0.5,3.1,4.1,3.1c1.9,0,3.5-0.8,3.5-2.5c0-1.3-0.9-1.6-3.1-2.1l-3-0.8
				c-2.1-0.5-3.5-1.6-3.5-3.8c0-3.4,2.9-4.9,5.9-4.9c5.5,0,5.9,4.1,5.9,4.9h-2.4L110.8,172.9L110.8,172.9z"/>
			<path d="M126.2,172.9c0-1-0.4-2.5-3.6-2.5c-0.9,0-3.1,0.3-3.1,2.1c0,1.3,0.9,1.5,2.9,2.1l2.5,0.6c3.1,0.9,4.3,2,4.3,4.1
				c0,3.1-2.6,5.2-6.2,5.2c-6.2,0-6.5-3.5-6.7-5.4h2.5c0.1,1.1,0.5,3.1,4.1,3.1c1.9,0,3.5-0.8,3.5-2.5c0-1.3-0.9-1.6-3.1-2.1l-3-0.8
				c-2.1-0.5-3.5-1.6-3.5-3.8c0-3.4,2.9-4.9,5.9-4.9c5.5,0,5.9,4.1,5.9,4.9h-2.4L126.2,172.9L126.2,172.9z"/>
			<path d="M150.9,178.6c0,2.1-2.4,3.6-4.8,3.6c-1.9,0-2.9-1-2.9-2.6c0-1.9,2-2.3,3.3-2.5c3.1-0.5,3.9-0.6,4.3-1v2.5H150.9z
				 M143.9,173.2c0.1-1.1,0.5-3,3.5-3c2.5,0,3.6,0.9,3.6,2.5s-0.8,1.8-1.4,1.9l-4.3,0.5c-4.3,0.5-4.7,3.5-4.7,4.9
				c0,2.6,2,4.5,4.9,4.5c3,0,4.5-1.4,5.5-2.5c0.1,1.1,0.5,2.4,2.8,2.4c0.5,0,1-0.1,1.4-0.3v-1.9c-0.3,0.1-0.6,0.1-0.9,0.1
				c-0.5,0-0.9-0.3-0.9-0.9v-8.9c0-3.9-4.5-4.3-5.8-4.3c-3.9,0-6.2,1.5-6.4,5.2h2.5v-0.2H143.9z"/>
			<path d="M171,183.9h-2.6v-9.6c0-2.6-0.8-4-3.3-4c-1.5,0-4.1,0.9-4.1,5.2v8.4h-2.5v-15.5h2.5v2.1h0.1c0.5-0.9,2-2.6,4.7-2.6
				c2.4,0,5.4,1,5.4,5.4v10.6L171,183.9L171,183.9z"/>
			<path d="M177.3,176.1c0-2,0.1-5.8,4.1-5.8c3.8,0,4.1,4,4.1,6.5c0,4.1-2.5,5.2-4.1,5.2C178.6,182,177.3,179.5,177.3,176.1z
				 M188.3,162.8h-2.5v7.9h-0.1c-0.6-0.9-1.9-2.6-4.5-2.6c-4.1,0-6.4,3.4-6.4,7.7c0,3.6,1.5,8.5,6.8,8.5c1.5,0,3.3-0.5,4.4-2.5h0.1
				v2.1h2.5L188.3,162.8L188.3,162.8z"/>
			<path d="M204.8,165.2h7.2c1.4,0,3.9,0.3,3.9,3.5c0,3.1-2.1,3.6-4.3,3.6h-6.7v-7.2L204.8,165.2L204.8,165.2z M204.8,174.9h6.9
				c3.4,0,3.8,2,3.8,3.8c0,0.9,0.1,4,0.5,5.3h3.5v-0.5c-0.9-0.5-1-0.9-1.1-2.1l-0.1-3.9c-0.1-2.9-1.4-3.5-2.5-4
				c1.4-0.9,2.9-1.9,2.9-5c0-4.5-3.5-5.7-6.9-5.7H202V184h2.9L204.8,174.9L204.8,174.9L204.8,174.9L204.8,174.9z"/>
			<path d="M225.2,175c0-2.4,1.9-4.5,4.3-4.5c3.1,0,4.1,2.1,4.3,4.5H225.2z M233.6,179c-0.1,1.1-1.5,3-4,3c-3,0-4.5-1.9-4.5-5h11.2
				c0-5.5-2.1-8.9-6.7-8.9c-5.2,0-7.4,3.9-7.4,8.5c0,4.5,2.5,7.8,6.9,7.8c2.5,0,3.5-0.5,4.1-1.1c1.9-1.3,2.6-3.5,2.8-4.1L233.6,179
				L233.6,179z"/>
			<path d="M241.9,176.1c0-2,0.1-5.8,4.1-5.8c3.8,0,4.1,4,4.1,6.5c0,4.1-2.5,5.2-4.1,5.2C243.2,182,241.9,179.5,241.9,176.1z
				 M252.9,162.8h-2.5v7.9h-0.1c-0.6-0.9-1.9-2.6-4.5-2.6c-4.1,0-6.4,3.4-6.4,7.7c0,3.6,1.5,8.5,6.8,8.5c1.5,0,3.3-0.5,4.4-2.5h0.1
				v2.1h2.5L252.9,162.8L252.9,162.8z"/>
			<path d="M281,169.1c-0.9-3.8-3.9-4.4-5.9-4.4c-3.9,0-6.9,2.9-6.9,8.4c0,5,1.8,8.8,7,8.8c1.9,0,5-0.9,6-5.9h2.8
				c-1.1,7.9-7.7,8.3-9.2,8.3c-4.9,0-9.6-3.1-9.6-11.2c0-6.5,3.8-11.1,9.9-11.1c5.5,0,8.3,3.4,8.7,6.9L281,169.1L281,169.1z"/>
			<path d="M290.7,183.9h-2.5v-15.5h2.5v2.5h0.1c1-1.9,2.4-3,4.3-3c0.4,0,0.5,0,0.6,0.1v2.6h-1c-2.4,0-3.9,1.9-3.9,4.1L290.7,183.9
				L290.7,183.9z"/>
			<path d="M300.1,175c0-2.4,1.9-4.5,4.3-4.5c3.1,0,4.1,2.1,4.3,4.5H300.1z M308.5,179c-0.1,1.1-1.5,3-4,3c-3,0-4.5-1.9-4.5-5h11.2
				c0-5.5-2.1-8.9-6.7-8.9c-5.2,0-7.4,3.9-7.4,8.5c0,4.5,2.5,7.8,6.9,7.8c2.5,0,3.5-0.5,4.1-1.1c1.9-1.3,2.6-3.5,2.8-4.1L308.5,179
				L308.5,179z"/>
			<path d="M323.9,172.9c0-1-0.4-2.5-3.6-2.5c-0.9,0-3.1,0.3-3.1,2.1c0,1.3,0.9,1.5,2.9,2.1l2.5,0.6c3.1,0.9,4.3,2,4.3,4.1
				c0,3.1-2.6,5.2-6.2,5.2c-6.2,0-6.5-3.5-6.7-5.4h2.5c0.1,1.1,0.5,3.1,4.1,3.1c1.9,0,3.5-0.8,3.5-2.5c0-1.3-0.9-1.6-3.1-2.1l-3-0.8
				c-2.1-0.5-3.5-1.6-3.5-3.8c0-3.4,2.9-4.9,5.9-4.9c5.5,0,5.9,4.1,5.9,4.9h-2.4L323.9,172.9L323.9,172.9z"/>
			<path d="M340,173.6c-0.4-2.1-1.5-3.3-3.6-3.3c-3.1,0-4.1,3.1-4.1,5.9c0,2.6,0.6,5.9,4.1,5.9c1.8,0,3.1-1.3,3.6-3.6h2.5
				c-0.3,2.5-1.8,5.9-6.3,5.9c-4.3,0-6.9-3.3-6.9-7.8c0-4.8,2.3-8.5,7.4-8.5c4,0,5.5,2.9,5.8,5.7L340,173.6L340,173.6z"/>
			<path d="M347.8,175c0-2.4,1.9-4.5,4.3-4.5c3.1,0,4.1,2.1,4.3,4.5H347.8z M356.2,179c-0.1,1.1-1.5,3-4,3c-3,0-4.5-1.9-4.5-5h11.2
				c0-5.5-2.1-8.9-6.7-8.9c-5.2,0-7.4,3.9-7.4,8.5c0,4.5,2.5,7.8,6.9,7.8c2.5,0,3.5-0.5,4.1-1.1c1.9-1.3,2.6-3.5,2.8-4.1L356.2,179
				L356.2,179z"/>
			<path d="M375.3,183.9h-2.5v-9.6c0-2.6-0.8-4-3.3-4c-1.5,0-4.1,0.9-4.1,5.2v8.4h-2.5v-15.5h2.5v2.1h0.1c0.5-0.9,2-2.6,4.7-2.6
				c2.4,0,5.4,1,5.4,5.4L375.3,183.9L375.3,183.9z"/>
			<path d="M382.8,170.6v10.1c0,1.1,1,1.1,1.5,1.1h0.9v2c-0.9,0.1-1.6,0.1-1.9,0.1c-2.5,0-3.1-1.5-3.1-3.3v-10.2h-2v-2.1h2.1V164
				h2.5v4.3h2.5v2.1h-2.5V170.6z"/>
			<path d="M410.4,169c-0.1-3.3-2.9-4.3-5.2-4.3c-1.9,0-4.9,0.5-4.9,3.8c0,1.9,1.3,2.4,2.5,2.6l6,1.4c2.8,0.6,4.9,2.3,4.9,5.7
				c0,5-4.7,6.4-8.3,6.4c-3.9,0-5.5-1.1-6.4-2c-1.9-1.6-2.1-3.4-2.1-5.4h2.6c0,3.9,3.1,4.9,5.9,4.9c2.1,0,5.5-0.5,5.5-3.5
				c0-2.1-1-2.9-4.5-3.8l-4.3-1c-1.4-0.4-4.5-1.3-4.5-5c0-3.3,2.1-6.5,7.3-6.5c7.4,0,8.2,4.4,8.2,6.8L410.4,169L410.4,169z"/>
			<path d="M419.3,176.2c0-2.1,0.8-5.9,4.5-5.9c3.8,0,4.5,3.9,4.5,5.9c0,2.1-0.8,5.9-4.5,5.9C420,182,419.3,178.3,419.3,176.2z
				 M416.6,176.2c0,4,2.3,8.2,7.2,8.2s7.2-4.1,7.2-8.2c0-4-2.3-8.2-7.2-8.2C418.9,168.1,416.6,172.2,416.6,176.2z"/>
			<path d="M444,173.6c-0.4-2.1-1.5-3.3-3.6-3.3c-3.1,0-4.1,3.1-4.1,5.9c0,2.6,0.6,5.9,4.1,5.9c1.8,0,3.1-1.3,3.6-3.6h2.5
				c-0.3,2.5-1.8,5.9-6.3,5.9c-4.3,0-6.9-3.3-6.9-7.8c0-4.8,2.3-8.5,7.4-8.5c4,0,5.5,2.9,5.8,5.7L444,173.6L444,173.6z"/>
			<path d="M452.5,183.9h-2.6v-15.5h2.5L452.5,183.9L452.5,183.9z M449.8,165.7v-2.9h2.5v2.9H449.8z"/>
			<path d="M459,175c0-2.4,1.9-4.5,4.3-4.5c3.1,0,4.1,2.1,4.3,4.5H459z M467.4,179c-0.1,1.1-1.5,3-4,3c-3,0-4.5-1.9-4.5-5h11.2
				c0-5.5-2.1-8.9-6.7-8.9c-5.2,0-7.4,3.9-7.4,8.5c0,4.5,2.5,7.8,6.9,7.8c2.5,0,3.5-0.5,4.1-1.1c1.9-1.3,2.6-3.5,2.8-4.1L467.4,179
				L467.4,179z"/>
			<path d="M477.1,170.6v10.1c0,1.1,1,1.1,1.5,1.1h0.9v2c-0.9,0.1-1.6,0.1-1.9,0.1c-2.5,0-3.1-1.5-3.1-3.3v-10.2h-2v-2.1h2.1V164
				h2.5v4.3h2.5v2.1h-2.5V170.6z"/>
			<path d="M485.3,183.9h-2.5v-15.5h2.5V183.9z M482.8,165.7v-2.9h2.5v2.9H482.8z"/>
			<path d="M491.9,175c0-2.4,1.9-4.5,4.3-4.5c3.1,0,4.1,2.1,4.3,4.5H491.9z M500.2,179c-0.1,1.1-1.5,3-4,3c-3,0-4.5-1.9-4.5-5h11.2
				c0-5.5-2.1-8.9-6.7-8.9c-5.2,0-7.4,3.9-7.4,8.5c0,4.5,2.5,7.8,6.9,7.8c2.5,0,3.5-0.5,4.1-1.1c1.9-1.3,2.6-3.5,2.8-4.1L500.2,179
				L500.2,179z"/>
			<path d="M515.6,172.9c0-1-0.4-2.5-3.6-2.5c-0.9,0-3.1,0.3-3.1,2.1c0,1.3,0.9,1.5,2.9,2.1l2.5,0.6c3.1,0.9,4.3,2,4.3,4.1
				c0,3.1-2.6,5.2-6.2,5.2c-6.2,0-6.5-3.5-6.7-5.4h2.5c0.1,1.1,0.5,3.1,4.1,3.1c1.9,0,3.5-0.8,3.5-2.5c0-1.3-0.9-1.6-3.1-2.1l-3-0.8
				c-2.1-0.5-3.5-1.6-3.5-3.8c0-3.4,2.9-4.9,5.9-4.9c5.5,0,5.9,4.1,5.9,4.9h-2.4L515.6,172.9L515.6,172.9z"/>
		</g>
		<g>
			<rect x="-170" y="123.6" class="st2" width="112.4" height="64.4"/>
			<g>
				<polygon class="st8" points="-141.4,162.3 -156.1,162.3 -156.1,149.9 -141.4,149.9 -141.4,149.9 -141.4,135.1 -128.9,135.1 
					-128.9,149.9 -128.9,149.9 -114.3,149.9 -114.3,162.3 -128.9,162.3 -128.9,162.3 -128.9,177 -141.4,177 				"/>
				<g>
					<path class="st8" d="M-94.9,155.9c0-9.8,7.9-17.6,17.6-17.6c2.1,0,4.1,0.4,6.2,1.1c-3.5-2.9-8.2-4.5-13.2-4.5
						c-11.7,0-21.2,9.6-21.2,21.2s9.6,21.2,21.2,21.2c5.2,0,9.8-1.9,13.6-4.9c-2,0.9-4.1,1.3-6.5,1.3
						C-87,173.5-94.9,165.6-94.9,155.9z"/>
				</g>
				<rect x="-165.1" y="128.5" class="st9" width="102.9" height="55.2"/>
			</g>
		</g>
	</g>
</g>
<g id="Combo" class="st0">
	<g class="st1">
		<rect x="196.9" y="-3.5" class="st2" width="113.9" height="65.2"/>
		<g>
			<polygon class="st7" points="225.7,35.7 211,35.7 211,23.1 225.7,23.1 225.7,23.1 225.7,8.2 238.5,8.2 238.5,23.1 238.5,23.1 
				253.2,23.1 253.2,35.7 238.5,35.7 238.5,35.7 238.5,50.5 225.7,50.5 			"/>
			<g>
				<path class="st7" d="M273,29.3c0-9.9,8-17.8,17.8-17.8c2.2,0,4.2,0.4,6.2,1.1c-3.6-2.9-8.3-4.6-13.4-4.6
					c-11.8,0-21.5,9.7-21.5,21.5S271.8,51,283.6,51c5.2,0,9.9-1.9,13.8-5c-2,0.9-4.2,1.3-6.6,1.3C280.9,47.1,273,39.1,273,29.3z"/>
			</g>
			<rect x="201.8" y="1.4" class="st9" width="104.3" height="55.9"/>
		</g>
	</g>
</g>
</svg>
