<?xml version="1.0" encoding="utf-8"?>
<!-- Generator: Adobe Illustrator 19.2.0, SVG Export Plug-In . SVG Version: 6.00 Build 0)  -->
<svg version="1.1" id="Layer_1" xmlns="http://www.w3.org/2000/svg" xmlns:xlink="http://www.w3.org/1999/xlink" x="0px" y="0px"
	 viewBox="0 0 50 59" style="enable-background:new 0 0 50 59;" xml:space="preserve">
<style type="text/css">
	.st0{display:none;}
	.st1{display:inline;}
	.st2{fill:#FFFFFF;}
	.st3{fill:none;stroke:#000000;stroke-width:1.5;stroke-linecap:round;stroke-linejoin:round;}
	.st4{fill:none;stroke:#000000;stroke-linecap:round;stroke-linejoin:round;}
	.st5{fill:#DF0031;}
	.st6{fill:#ED1B2E;}
	.st7{fill:#ED1C24;}
	.st8{fill:none;stroke:#ED1C24;stroke-width:2;}
</style>
<g id="ICRC" class="st0">
	<g class="st1">
		<circle class="st2" cx="-60.4" cy="29.6" r="28"/>
		<circle class="st3" cx="-60.4" cy="29.6" r="28"/>
		<path class="st4" d="M-41.1,29.6c0,10.6-8.6,19.2-19.2,19.2s-19.2-8.6-19.2-19.2s8.6-19.2,19.2-19.2S-41.1,19-41.1,29.6z"/>
		<polygon class="st5" points="-74.5,33.9 -74.5,25.4 -46.3,25.3 -46.2,33.8 		"/>
		<path d="M-83.9,37.1c-0.5,0.3-0.8,0.7-0.9,1.2c-0.1,0.5-0.1,1,0.1,1.5c0.3,0.8,0.8,1.3,1.5,1.5c0.7,0.2,1.3,0.1,2.1-0.2
			c0.7-0.3,1.3-0.8,1.6-1.3c0.3-0.6,0.3-1.3,0-2.1c-0.5-1.3-1.5-1.7-2.9-1.4l0.3,0.7c0.4-0.1,0.8-0.1,1.2,0s0.6,0.4,0.8,0.9
			c0.1,0.3,0.2,0.6,0.1,0.8c0,0.3-0.1,0.5-0.2,0.7c-0.3,0.4-0.7,0.8-1.3,1c-0.5,0.2-1.1,0.3-1.5,0.2c-0.5-0.1-0.9-0.5-1.1-1.1
			c-0.1-0.4-0.2-0.7-0.1-1s0.3-0.6,0.6-0.8L-83.9,37.1z M-83.3,35.3c0.7-0.1,1.4-0.4,1.8-0.9c0.5-0.5,0.7-1.2,0.6-2
			c-0.1-0.9-0.5-1.5-1.1-1.8c-0.6-0.4-1.3-0.5-2-0.4s-1.4,0.4-1.9,0.9c-0.5,0.5-0.7,1.2-0.6,2.1s0.5,1.5,1.1,1.8
			C-84.7,35.3-84.1,35.4-83.3,35.3z M-83.4,34.6c-0.6,0.1-1.1,0-1.5-0.3c-0.2-0.1-0.4-0.3-0.6-0.5c-0.1-0.2-0.3-0.5-0.3-0.8
			s0-0.6,0.1-0.9c0.1-0.3,0.2-0.5,0.4-0.6c0.4-0.3,0.9-0.6,1.5-0.6c0.1,0,0.3,0,0.4,0s0.3,0,0.4,0c0.3,0,0.5,0.1,0.7,0.3
			c0.5,0.2,0.8,0.7,0.9,1.3c0.1,0.7-0.1,1.2-0.5,1.5c-0.2,0.2-0.4,0.3-0.7,0.4C-82.9,34.5-83.1,34.6-83.4,34.6z M-81.2,28.9l0.1-0.7
			l-4.4-0.8l0,0l4.7-0.9l0.1-0.6l-4.1-2.5l0,0l4.4,0.8l0.1-0.7l-5.3-0.9l-0.2,1l4.1,2.5l-4.7,0.9l-0.2,1L-81.2,28.9z M-79.8,22.4
			l0.3-0.7l-5-2l-0.3,0.7L-79.8,22.4z M-78.5,19.5l0.4-0.6l-4.1-2.4l0.9-1.6l-0.5-0.3l-2.2,3.7l0.5,0.3l0.9-1.6L-78.5,19.5z
			 M-76.8,16.8l2.5-2.8l-0.4-0.4l-2,2.3l-1.4-1.3l1.9-2.1l-0.4-0.4l-1.9,2.1l-1.3-1.2l2-2.2l-0.4-0.5l-2.5,2.8L-76.8,16.8z
			 M-71.9,12.2l0.6-0.4l-2.9-4.6l-0.6,0.4L-71.9,12.2z M-70.3,11.1l0.6-0.3l-1.7-4.1l0,0l4.2,3l0.7-0.3l-2.1-5l-0.6,0.3l1.7,4.1l0,0
			l-4.3-3l-0.7,0.3L-70.3,11.1z M-64,8.9l0.7-0.1L-64.1,4l1.7-0.3l-0.1-0.6l-4.2,0.7l0.1,0.6l1.7-0.3L-64,8.9z M-61,8.5l3.7,0.2V8.1
			l-3-0.2l0.1-1.9l2.8,0.1V5.5l-2.8-0.1l0.1-1.7l3,0.2V3.3l-3.7-0.2L-61,8.5z M-54.9,6.2l0.5-1.8l1.7,0.5c0.3,0.1,0.5,0.3,0.6,0.5
			s0.1,0.4,0,0.7c-0.1,0.2-0.1,0.3-0.2,0.4c-0.1,0.1-0.2,0.2-0.3,0.2c-0.3,0.1-0.6,0-0.9-0.1L-54.9,6.2z M-56.4,8.9l0.7,0.2l0.6-2.2
			l1.7,0.5c0.2,0.1,0.3,0.1,0.4,0.2s0.1,0.2,0.2,0.3c0,0.1,0.1,0.2,0.1,0.3s0,0.3,0,0.4c0,0.1,0,0.3-0.1,0.4c0,0.1-0.1,0.3-0.1,0.4
			c0,0.1-0.1,0.2-0.1,0.3s0,0.2,0,0.3l0.8,0.2c0-0.1-0.1-0.2-0.1-0.4c0-0.1,0-0.3,0-0.4c0-0.3,0.1-0.5,0.2-0.8
			c0.1-0.3,0.1-0.5,0-0.7c0-0.1-0.1-0.2-0.1-0.3c-0.1-0.1-0.2-0.2-0.3-0.3l0,0c0.3,0,0.6-0.1,0.8-0.3s0.3-0.5,0.4-0.8
			c0.2-0.9-0.2-1.5-1.2-1.9l-2.4-0.7L-56.4,8.9z M-51.5,10.5l0.6,0.3l2.2-3.8l0,0l0.2,5.3l0.7,0.4l2.7-4.7l-0.6-0.4l-2.2,3.8l0,0
			l-0.2-5.3l-0.7-0.4L-51.5,10.5z M-47.4,13l0.5,0.5l1.6-0.7l1.6,1.6l-0.7,1.6l0.6,0.6l2.3-5.4l-0.6-0.6L-47.4,13z M-42.3,11.4
			L-42.3,11.4l-1.1,2.5l-1.3-1.3L-42.3,11.4z M-42.9,18.1l0.4,0.6l4-2.6l0.9,1.5l0.5-0.3l-2.3-3.7l-0.5,0.3l0.9,1.5L-42.9,18.1z
			 M-41.4,20.9l0.3,0.7l4.9-2.3l-0.3-0.6L-41.4,20.9z M-38,21.7c-0.7,0.2-1.3,0.6-1.7,1.1c-0.4,0.6-0.6,1.3-0.4,2.1s0.7,1.4,1.3,1.7
			c0.6,0.3,1.3,0.3,2,0.2c0.7-0.2,1.3-0.6,1.7-1.1c0.4-0.6,0.5-1.3,0.4-2.1c-0.2-0.8-0.6-1.4-1.3-1.7C-36.6,21.6-37.3,21.5-38,21.7z
			 M-37.9,22.4c0.5-0.1,1.1-0.1,1.6,0.1c0.2,0.1,0.5,0.3,0.6,0.5c0.2,0.2,0.3,0.5,0.4,0.8s0.1,0.6,0,0.9c-0.1,0.3-0.2,0.5-0.3,0.7
			c-0.4,0.4-0.8,0.7-1.4,0.8c-0.1,0-0.3,0.1-0.4,0.1s-0.3,0-0.4,0c-0.3,0-0.5-0.1-0.8-0.2c-0.5-0.2-0.9-0.6-1-1.2
			c-0.1-0.6,0-1.2,0.3-1.6c0.2-0.2,0.4-0.4,0.6-0.5C-38.4,22.6-38.1,22.5-37.9,22.4z M-39.4,28.4v0.7l4.3,0.1l0,0l-4.4,2.8v0.8
			l5.3,0.2v-0.7l-4.3-0.1l0,0l4.4-2.7v-0.8L-39.4,28.4z M-39.6,33.3l-0.2,0.7l1.4,1.1l-0.6,2.2l-1.7,0.1l-0.2,0.8l5.7-0.5l0.2-0.8
			L-39.6,33.3z M-35.7,37.1L-35.7,37.1l-2.6,0.2l0.5-1.8L-35.7,37.1z M-41.3,38.6l-1.7,3.2l0.5,0.3l1.4-2.5l4.2,2.3l0.3-0.6
			L-41.3,38.6z"/>
		<path d="M-73.4,51.7l-0.2,0.7l0.4,0.3l1.6-2.4l-2-1.3l-0.3,0.5l1.4,1c-0.3,0.4-0.6,0.7-1,0.8c-0.4,0.1-0.9,0-1.4-0.3
			s-0.7-0.8-0.8-1.3c0-0.5,0.1-1,0.4-1.5s0.7-0.9,1.2-1.1s1-0.1,1.6,0.2c0.3,0.2,0.6,0.5,0.7,0.8c0.1,0.3,0.1,0.7-0.1,1.1l0.6,0.4
			C-71,49-71,48.5-71.2,48c-0.2-0.5-0.5-0.9-1-1.2c-0.7-0.5-1.4-0.6-2.1-0.3c-0.7,0.2-1.2,0.7-1.7,1.3c-0.4,0.6-0.6,1.3-0.5,1.9
			c0.1,0.7,0.4,1.3,1.1,1.7c0.3,0.2,0.6,0.3,0.9,0.4C-74.1,51.9-73.8,51.8-73.4,51.7z M-71.1,53.7l3.5,1.3l0.2-0.6l-2.9-1l0.6-1.8
			l2.6,1l0.2-0.6l-2.6-1l0.6-1.6l2.8,1l0.2-0.6l-3.5-1.3L-71.1,53.7z M-65.4,55.5l0.7,0.1l0.5-4.3l0,0l2.3,4.6l0.8,0.1l0.6-5.4
			l-0.7-0.1l-0.5,4.4l0,0l-2.3-4.7l-0.8-0.1L-65.4,55.5z M-58.7,55.9l3.7-0.5l-0.1-0.6l-3,0.4l-0.2-1.9l2.8-0.4l-0.1-0.6l-2.8,0.4
			l-0.2-1.7l3-0.4l-0.1-0.6l-3.7,0.5L-58.7,55.9z M-50.9,48.3l-0.7,0.3l0.2,5l0,0l-3.1-3.9l-0.7,0.3l3.7,4.4l0.8-0.3L-50.9,48.3z
			 M-47.3,52.5l3.2-2l-0.4-0.6l-2.6,1.7l-1-1.6l2.3-1.5l-0.3-0.5l-2.3,1.5l-0.9-1.4l2.5-1.6l-0.3-0.5l-3.1,2L-47.3,52.5z"/>
		<polygon class="st5" points="-64.7,15.5 -56.1,15.4 -56.1,43.7 -64.6,43.7 		"/>
	</g>
</g>
<g id="Red_Crescent">
	<path class="st6" d="M38.2,53.9c-13.4,0-24.3-10.9-24.3-24.3S24.7,5.3,38.2,5.3c4.3,0,8.3,1.1,11.8,3C44.7,3.2,37.5,0,29.5,0
		C13.2,0,0,13.2,0,29.5S13.2,59,29.5,59c8,0,15.2-3.1,20.5-8.3C46.5,52.8,42.4,53.9,38.2,53.9z"/>
</g>
<g id="Layer_5" class="st0">
	<g class="st1">
		<path class="st6" d="M111.1,0.5L82,29.6l29.1,29.1l29.1-29.1L111.1,0.5z"/>
		<path class="st2" d="M111.1,15.1l14.4,14.4l-14.4,14.4L96.7,29.5L111.1,15.1z"/>
	</g>
</g>
<g id="Red_Cross" class="st0">
	<g class="st1">
		<polygon class="st6" points="179.9,38.3 179.9,20.9 237.5,20.6 237.6,38.1 		"/>
		<polygon class="st6" points="199.9,0.7 217.4,0.6 217.5,58.3 200.1,58.3 		"/>
	</g>
</g>
<g id="IFRC_and_RC" class="st0">
	<g class="st1">
		<g>
			<path d="M39.2,149.7h-2.9v-21.2h2.9V149.7z"/>
			<path d="M57,149.7h-2.5v-9.6c0-2.6-0.8-4-3.3-4c-1.5,0-4.1,0.9-4.1,5.2v8.4h-2.6v-15.4H47v2.1h0.1c0.5-0.9,2-2.6,4.7-2.6
				c2.4,0,5.4,1,5.4,5.4L57,149.7L57,149.7z"/>
			<path d="M64.6,136.4v10.1c0,1.1,1,1.1,1.5,1.1H67v2c-0.9,0.1-1.6,0.1-1.9,0.1c-2.5,0-3.1-1.5-3.1-3.3v-10.1h-2.1v-2.1H62v-4.3
				h2.5v4.3H67v2.1h-2.4V136.4z"/>
			<path d="M72.3,140.7c0-2.4,1.9-4.5,4.3-4.5c3.1,0,4.1,2.1,4.3,4.5H72.3z M80.7,144.8c-0.1,1.1-1.5,3-4,3c-3,0-4.5-1.9-4.5-5h11.2
				c0-5.5-2.1-8.9-6.7-8.9c-5.2,0-7.4,3.9-7.4,8.5c0,4.5,2.5,7.8,6.9,7.8c2.5,0,3.5-0.5,4.1-1.1c1.9-1.3,2.6-3.5,2.8-4.1L80.7,144.8
				L80.7,144.8z"/>
			<path d="M90.1,149.7h-2.5v-15.4h2.5v2.5h0.1c1-1.9,2.4-3,4.3-3c0.4,0,0.5,0,0.6,0.1v2.6h-1c-2.4,0-3.9,1.9-3.9,4.1L90.1,149.7
				L90.1,149.7z"/>
			<path d="M110.9,149.7h-2.5v-9.6c0-2.6-0.8-4-3.3-4c-1.5,0-4.1,0.9-4.1,5.2v8.4h-2.5v-15.4h2.5v2.1h0.1c0.5-0.9,2-2.6,4.7-2.6
				c2.4,0,5.4,1,5.4,5.4L110.9,149.7L110.9,149.7z"/>
			<path d="M124.7,144.3c0,2.1-2.4,3.6-4.8,3.6c-1.9,0-2.9-1-2.9-2.6c0-1.9,2-2.3,3.3-2.5c3.1-0.5,3.9-0.6,4.3-1L124.7,144.3
				L124.7,144.3z M117.5,139c0.1-1.1,0.5-3,3.5-3c2.5,0,3.6,0.9,3.6,2.5c0,1.5-0.8,1.8-1.4,1.9l-4.3,0.5c-4.3,0.5-4.7,3.5-4.7,4.9
				c0,2.6,2,4.5,4.9,4.5c3,0,4.5-1.4,5.5-2.5c0.1,1.1,0.5,2.4,2.8,2.4c0.5,0,1-0.1,1.4-0.3v-2.1c-0.3,0.1-0.6,0.1-0.9,0.1
				c-0.5,0-0.9-0.3-0.9-0.9v-8.9c0-3.9-4.5-4.3-5.8-4.3c-3.9,0-6.2,1.5-6.4,5.2L117.5,139L117.5,139z"/>
			<path d="M135.5,136.4v10.1c0,1.1,1,1.1,1.5,1.1h0.9v2c-0.9,0.1-1.6,0.1-1.9,0.1c-2.5,0-3.1-1.5-3.1-3.3v-10.1h-2v-2.1h2.1v-4.3
				h2.5v4.3h2.5v2.1h-2.5V136.4z"/>
			<path d="M143.7,149.7h-2.5v-15.4h2.5V149.7z M141.2,131.5v-2.9h2.5v2.9H141.2z"/>
			<path d="M150,142.1c0-2.1,0.8-5.9,4.5-5.9c3.8,0,4.5,3.9,4.5,5.9c0,2.1-0.8,5.9-4.5,5.9C150.7,147.8,150,144.1,150,142.1z
				 M147.3,142.1c0,4,2.3,8.2,7.2,8.2c4.9,0,7.2-4.1,7.2-8.2s-2.3-8.2-7.2-8.2S147.3,138,147.3,142.1z"/>
			<path d="M177.7,149.7h-2.5v-9.6c0-2.6-0.8-4-3.3-4c-1.5,0-4.1,0.9-4.1,5.2v8.4h-2.5v-15.4h2.5v2.1h0.1c0.5-0.9,2-2.6,4.7-2.6
				c2.4,0,5.4,1,5.4,5.4L177.7,149.7L177.7,149.7z"/>
			<path d="M191.6,144.3c0,2.1-2.4,3.6-4.8,3.6c-1.9,0-2.9-1-2.9-2.6c0-1.9,2-2.3,3.3-2.5c3.1-0.5,3.9-0.6,4.3-1v2.5H191.6z
				 M184.4,139c0.1-1.1,0.5-3,3.5-3c2.5,0,3.6,0.9,3.6,2.5c0,1.5-0.8,1.8-1.4,1.9l-4.3,0.5c-4.3,0.5-4.7,3.5-4.7,4.9
				c0,2.6,2,4.5,4.9,4.5c3,0,4.5-1.4,5.5-2.5c0.1,1.1,0.5,2.4,2.8,2.4c0.5,0,1-0.1,1.4-0.3v-2.1c-0.3,0.1-0.6,0.1-0.9,0.1
				c-0.5,0-0.9-0.3-0.9-0.9v-8.9c0-3.9-4.5-4.3-5.8-4.3c-3.9,0-6.2,1.5-6.4,5.2L184.4,139L184.4,139z"/>
			<path d="M201.9,149.7h-2.5v-21.2h2.5V149.7z"/>
			<path d="M218.6,149.7h-2.9v-21.2h14.6v2.5h-11.8v6.5h10.4v2.5h-10.4v9.7H218.6z"/>
			<path d="M234.8,140.7c0-2.4,1.9-4.5,4.3-4.5c3.1,0,4.1,2.1,4.3,4.5H234.8z M243.4,144.8c-0.1,1.1-1.5,3-4,3c-3,0-4.5-1.9-4.5-5
				h11.2c0-5.5-2.1-8.9-6.7-8.9c-5.2,0-7.4,3.9-7.4,8.5c0,4.5,2.5,7.8,6.9,7.8c2.5,0,3.5-0.5,4.1-1.1c1.9-1.3,2.6-3.5,2.8-4.1
				L243.4,144.8L243.4,144.8z"/>
			<path d="M251.5,141.9c0-2,0.1-5.8,4.1-5.8c3.8,0,4.1,4,4.1,6.5c0,4.1-2.5,5.2-4.1,5.2C252.9,147.8,251.5,145.3,251.5,141.9z
				 M262.6,128.6h-2.5v7.9H260c-0.6-0.9-1.9-2.6-4.5-2.6c-4.1,0-6.4,3.4-6.4,7.7c0,3.6,1.5,8.5,6.8,8.5c1.5,0,3.3-0.5,4.4-2.5h0.1
				v2.1h2.5L262.6,128.6L262.6,128.6z"/>
			<path d="M268.7,140.7c0-2.4,1.9-4.5,4.3-4.5c3.1,0,4.1,2.1,4.3,4.5H268.7z M277.2,144.8c-0.1,1.1-1.5,3-4,3c-3,0-4.5-1.9-4.5-5
				h11.2c0-5.5-2.1-8.9-6.7-8.9c-5.2,0-7.4,3.9-7.4,8.5c0,4.5,2.5,7.8,6.9,7.8c2.5,0,3.5-0.5,4.1-1.1c1.9-1.3,2.6-3.5,2.8-4.1
				L277.2,144.8L277.2,144.8z"/>
			<path d="M286.6,149.7h-2.5v-15.4h2.5v2.5h0.1c1-1.9,2.4-3,4.3-3c0.4,0,0.5,0,0.6,0.1v2.6h-0.9c-2.4,0-3.9,1.9-3.9,4.1
				L286.6,149.7L286.6,149.7z"/>
			<path d="M303.2,144.3c0,2.1-2.4,3.6-4.8,3.6c-1.9,0-2.9-1-2.9-2.6c0-1.9,2-2.3,3.3-2.5c3.1-0.5,3.9-0.6,4.3-1v2.5H303.2z
				 M296.2,139c0.1-1.1,0.5-3,3.5-3c2.5,0,3.6,0.9,3.6,2.5c0,1.5-0.8,1.8-1.4,1.9l-4.3,0.5c-4.3,0.5-4.7,3.5-4.7,4.9
				c0,2.6,2,4.5,4.9,4.5c3,0,4.5-1.4,5.5-2.5c0.1,1.1,0.5,2.4,2.8,2.4c0.5,0,1-0.1,1.4-0.3v-2.1c-0.3,0.1-0.6,0.1-0.9,0.1
				c-0.5,0-0.9-0.3-0.9-0.9v-8.9c0-3.9-4.5-4.3-5.8-4.3c-3.9,0-6.2,1.5-6.4,5.2L296.2,139L296.2,139z"/>
			<path d="M314,136.4v10.1c0,1.1,1,1.1,1.5,1.1h0.9v2c-0.9,0.1-1.6,0.1-1.9,0.1c-2.5,0-3.1-1.5-3.1-3.3v-10.1h-2.1v-2.1h2.1v-4.3
				h2.5v4.3h2.5v2.1H314V136.4z"/>
			<path d="M322.3,149.7h-2.5v-15.4h2.5V149.7z M319.7,131.5v-2.9h2.5v2.9H319.7z"/>
			<path d="M328.5,142.1c0-2.1,0.8-5.9,4.5-5.9c3.8,0,4.5,3.9,4.5,5.9c0,2.1-0.8,5.9-4.5,5.9C329.3,147.8,328.5,144.1,328.5,142.1z
				 M325.8,142.1c0,4,2.3,8.2,7.2,8.2c4.9,0,7.2-4.1,7.2-8.2s-2.3-8.2-7.2-8.2S325.8,138,325.8,142.1z"/>
			<path d="M356.2,149.7h-2.5v-9.6c0-2.6-0.8-4-3.3-4c-1.5,0-4.1,0.9-4.1,5.2v8.4h-2.5v-15.4h2.5v2.1h0.1c0.5-0.9,2-2.6,4.7-2.6
				c2.4,0,5.4,1,5.4,5.4L356.2,149.7L356.2,149.7z"/>
			<path d="M37.5,176.7c0-2.1,0.8-5.9,4.5-5.9s4.5,3.9,4.5,5.9c0,2.1-0.8,5.9-4.5,5.9C38.2,182.5,37.5,178.8,37.5,176.7z
				 M34.8,176.7c0,4,2.3,8.2,7.2,8.2s7.2-4.1,7.2-8.2c0-4-2.3-8.2-7.2-8.2C37.1,168.6,34.8,172.7,34.8,176.7z"/>
			<path d="M56,171.1v13.2h-2.5v-13.2h-2.1V169h2.1v-2.7c0-2.3,1.5-3.4,4-3.4c0.4,0,0.8,0,1.1,0.1v2.3c-0.4,0-0.8-0.1-1.1-0.1
				c-1.1,0-1.5,0.5-1.5,1.9v1.9h2.5v2.1H56L56,171.1z"/>
			<path d="M73.7,165.7h7.2c1.4,0,3.9,0.3,3.9,3.5c0,3.1-2.1,3.6-4.3,3.6h-6.7L73.7,165.7L73.7,165.7L73.7,165.7z M73.7,175.4h6.9
				c3.4,0,3.8,2,3.8,3.8c0,0.9,0.1,4,0.5,5.3h3.5V184c-0.9-0.5-1-0.9-1.1-2.1l-0.1-3.9c-0.1-2.9-1.4-3.5-2.5-4
				c1.4-0.9,2.9-1.9,2.9-5c0-4.5-3.5-5.7-6.9-5.7h-9.8v21.2h2.9L73.7,175.4L73.7,175.4L73.7,175.4L73.7,175.4z"/>
			<path d="M94.2,175.5c0-2.4,1.9-4.5,4.3-4.5c3.1,0,4.1,2.1,4.3,4.5H94.2z M102.6,179.5c-0.1,1.1-1.5,3-4,3c-3,0-4.5-1.9-4.5-5
				h11.2c0-5.5-2.1-8.9-6.7-8.9c-5.2,0-7.4,3.9-7.4,8.5c0,4.5,2.5,7.8,6.9,7.8c2.5,0,3.5-0.5,4.1-1.1c1.9-1.3,2.6-3.5,2.8-4.1
				L102.6,179.5L102.6,179.5z"/>
			<path d="M110.9,176.6c0-2,0.1-5.8,4.1-5.8c3.8,0,4.1,4,4.1,6.5c0,4.1-2.5,5.2-4.1,5.2C112.1,182.5,110.9,180,110.9,176.6z
				 M121.8,163.3h-2.5v7.9h-0.1c-0.6-0.9-1.9-2.6-4.5-2.6c-4.1,0-6.4,3.4-6.4,7.7c0,3.6,1.5,8.5,6.8,8.5c1.5,0,3.3-0.5,4.4-2.5h0.1
				v2.1h2.5L121.8,163.3L121.8,163.3z"/>
			<path d="M150,169.6c-0.9-3.8-3.9-4.4-5.9-4.4c-3.9,0-6.9,2.9-6.9,8.4c0,5,1.8,8.8,7,8.8c1.9,0,5-0.9,6-5.9h2.8
				c-1.1,7.9-7.7,8.3-9.2,8.3c-4.9,0-9.6-3.1-9.6-11.2c0-6.5,3.8-11.1,9.9-11.1c5.5,0,8.3,3.4,8.7,6.9L150,169.6L150,169.6z"/>
			<path d="M159.6,184.4h-2.5v-15.5h2.5v2.5h0.1c1-1.9,2.4-3,4.3-3c0.4,0,0.5,0,0.6,0.1v2.6h-0.9c-2.4,0-3.9,1.9-3.9,4.1
				L159.6,184.4L159.6,184.4z"/>
			<path d="M168.9,176.7c0-2.1,0.8-5.9,4.5-5.9c3.8,0,4.5,3.9,4.5,5.9c0,2.1-0.8,5.9-4.5,5.9C169.7,182.5,168.9,178.8,168.9,176.7z
				 M166.2,176.7c0,4,2.3,8.2,7.2,8.2c4.9,0,7.2-4.1,7.2-8.2c0-4-2.3-8.2-7.2-8.2C168.4,168.6,166.2,172.7,166.2,176.7z"/>
			<path d="M192.8,173.4c0-1-0.4-2.5-3.6-2.5c-0.9,0-3.1,0.3-3.1,2.1c0,1.3,0.9,1.5,2.9,2.1l2.5,0.6c3.1,0.9,4.3,2,4.3,4.1
				c0,3.1-2.6,5.2-6.2,5.2c-6.2,0-6.5-3.5-6.7-5.4h2.5c0.1,1.1,0.5,3.1,4.1,3.1c1.9,0,3.5-0.8,3.5-2.5c0-1.3-0.9-1.6-3.1-2.1l-3-0.8
				c-2.1-0.5-3.5-1.6-3.5-3.8c0-3.4,2.9-4.9,5.9-4.9c5.5,0,5.9,4.1,5.9,4.9h-2.4L192.8,173.4L192.8,173.4z"/>
			<path d="M208.2,173.4c0-1-0.4-2.5-3.6-2.5c-0.9,0-3.1,0.3-3.1,2.1c0,1.3,0.9,1.5,2.9,2.1l2.5,0.6c3.1,0.9,4.3,2,4.3,4.1
				c0,3.1-2.6,5.2-6.2,5.2c-6.2,0-6.5-3.5-6.7-5.4h2.5c0.1,1.1,0.5,3.1,4.1,3.1c1.9,0,3.5-0.8,3.5-2.5c0-1.3-0.9-1.6-3.1-2.1l-3-0.8
				c-2.1-0.5-3.5-1.6-3.5-3.8c0-3.4,2.9-4.9,5.9-4.9c5.5,0,5.9,4.1,5.9,4.9h-2.4L208.2,173.4L208.2,173.4z"/>
			<path d="M232.9,179.1c0,2.1-2.4,3.6-4.8,3.6c-1.9,0-2.9-1-2.9-2.6c0-1.9,2-2.3,3.3-2.5c3.1-0.5,3.9-0.6,4.3-1v2.5H232.9z
				 M225.9,173.7c0.1-1.1,0.5-3,3.5-3c2.5,0,3.6,0.9,3.6,2.5s-0.8,1.8-1.4,1.9l-4.3,0.5c-4.3,0.5-4.7,3.5-4.7,4.9
				c0,2.6,2,4.5,4.9,4.5c3,0,4.5-1.4,5.5-2.5c0.1,1.1,0.5,2.4,2.8,2.4c0.5,0,1-0.1,1.4-0.3v-1.9c-0.3,0.1-0.6,0.1-0.9,0.1
				c-0.5,0-0.9-0.3-0.9-0.9V173c0-3.9-4.5-4.3-5.8-4.3c-3.9,0-6.2,1.5-6.4,5.2h2.5v-0.2H225.9z"/>
			<path d="M253,184.4h-2.6v-9.6c0-2.6-0.8-4-3.3-4c-1.5,0-4.1,0.9-4.1,5.2v8.4h-2.5v-15.5h2.5v2.1h0.1c0.5-0.9,2-2.6,4.7-2.6
				c2.4,0,5.4,1,5.4,5.4v10.6L253,184.4L253,184.4z"/>
			<path d="M259.3,176.6c0-2,0.1-5.8,4.1-5.8c3.8,0,4.1,4,4.1,6.5c0,4.1-2.5,5.2-4.1,5.2C260.6,182.5,259.3,180,259.3,176.6z
				 M270.3,163.3h-2.5v7.9h-0.1c-0.6-0.9-1.9-2.6-4.5-2.6c-4.1,0-6.4,3.4-6.4,7.7c0,3.6,1.5,8.5,6.8,8.5c1.5,0,3.3-0.5,4.4-2.5h0.1
				v2.1h2.5L270.3,163.3L270.3,163.3z"/>
			<path d="M286.8,165.7h7.2c1.4,0,3.9,0.3,3.9,3.5c0,3.1-2.1,3.6-4.3,3.6h-6.7v-7.2L286.8,165.7L286.8,165.7z M286.8,175.4h6.9
				c3.4,0,3.8,2,3.8,3.8c0,0.9,0.1,4,0.5,5.3h3.5V184c-0.9-0.5-1-0.9-1.1-2.1l-0.1-3.9c-0.1-2.9-1.4-3.5-2.5-4
				c1.4-0.9,2.9-1.9,2.9-5c0-4.5-3.5-5.7-6.9-5.7H284v21.2h2.9L286.8,175.4L286.8,175.4L286.8,175.4L286.8,175.4z"/>
			<path d="M307.2,175.5c0-2.4,1.9-4.5,4.3-4.5c3.1,0,4.1,2.1,4.3,4.5H307.2z M315.6,179.5c-0.1,1.1-1.5,3-4,3c-3,0-4.5-1.9-4.5-5
				h11.2c0-5.5-2.1-8.9-6.7-8.9c-5.2,0-7.4,3.9-7.4,8.5c0,4.5,2.5,7.8,6.9,7.8c2.5,0,3.5-0.5,4.1-1.1c1.9-1.3,2.6-3.5,2.8-4.1
				L315.6,179.5L315.6,179.5z"/>
			<path d="M323.9,176.6c0-2,0.1-5.8,4.1-5.8c3.8,0,4.1,4,4.1,6.5c0,4.1-2.5,5.2-4.1,5.2C325.2,182.5,323.9,180,323.9,176.6z
				 M334.9,163.3h-2.5v7.9h-0.1c-0.6-0.9-1.9-2.6-4.5-2.6c-4.1,0-6.4,3.4-6.4,7.7c0,3.6,1.5,8.5,6.8,8.5c1.5,0,3.3-0.5,4.4-2.5h0.1
				v2.1h2.5L334.9,163.3L334.9,163.3z"/>
			<path d="M363,169.6c-0.9-3.8-3.9-4.4-5.9-4.4c-3.9,0-6.9,2.9-6.9,8.4c0,5,1.8,8.8,7,8.8c1.9,0,5-0.9,6-5.9h2.8
				c-1.1,7.9-7.7,8.3-9.2,8.3c-4.9,0-9.6-3.1-9.6-11.2c0-6.5,3.8-11.1,9.9-11.1c5.5,0,8.3,3.4,8.7,6.9L363,169.6L363,169.6z"/>
			<path d="M372.7,184.4h-2.5v-15.5h2.5v2.5h0.1c1-1.9,2.4-3,4.3-3c0.4,0,0.5,0,0.6,0.1v2.6h-1c-2.4,0-3.9,1.9-3.9,4.1L372.7,184.4
				L372.7,184.4z"/>
			<path d="M382.1,175.5c0-2.4,1.9-4.5,4.3-4.5c3.1,0,4.1,2.1,4.3,4.5H382.1z M390.5,179.5c-0.1,1.1-1.5,3-4,3c-3,0-4.5-1.9-4.5-5
				h11.2c0-5.5-2.1-8.9-6.7-8.9c-5.2,0-7.4,3.9-7.4,8.5c0,4.5,2.5,7.8,6.9,7.8c2.5,0,3.5-0.5,4.1-1.1c1.9-1.3,2.6-3.5,2.8-4.1
				L390.5,179.5L390.5,179.5z"/>
			<path d="M405.9,173.4c0-1-0.4-2.5-3.6-2.5c-0.9,0-3.1,0.3-3.1,2.1c0,1.3,0.9,1.5,2.9,2.1l2.5,0.6c3.1,0.9,4.3,2,4.3,4.1
				c0,3.1-2.6,5.2-6.2,5.2c-6.2,0-6.5-3.5-6.7-5.4h2.5c0.1,1.1,0.5,3.1,4.1,3.1c1.9,0,3.5-0.8,3.5-2.5c0-1.3-0.9-1.6-3.1-2.1l-3-0.8
				c-2.1-0.5-3.5-1.6-3.5-3.8c0-3.4,2.9-4.9,5.9-4.9c5.5,0,5.9,4.1,5.9,4.9h-2.4L405.9,173.4L405.9,173.4z"/>
			<path d="M422,174.1c-0.4-2.1-1.5-3.3-3.6-3.3c-3.1,0-4.1,3.1-4.1,5.9c0,2.6,0.6,5.9,4.1,5.9c1.8,0,3.1-1.3,3.6-3.6h2.5
				c-0.3,2.5-1.8,5.9-6.3,5.9c-4.3,0-6.9-3.3-6.9-7.8c0-4.8,2.3-8.5,7.4-8.5c4,0,5.5,2.9,5.8,5.7L422,174.1L422,174.1z"/>
			<path d="M429.8,175.5c0-2.4,1.9-4.5,4.3-4.5c3.1,0,4.1,2.1,4.3,4.5H429.8z M438.2,179.5c-0.1,1.1-1.5,3-4,3c-3,0-4.5-1.9-4.5-5
				h11.2c0-5.5-2.1-8.9-6.7-8.9c-5.2,0-7.4,3.9-7.4,8.5c0,4.5,2.5,7.8,6.9,7.8c2.5,0,3.5-0.5,4.1-1.1c1.9-1.3,2.6-3.5,2.8-4.1
				L438.2,179.5L438.2,179.5z"/>
			<path d="M457.3,184.4h-2.5v-9.6c0-2.6-0.8-4-3.3-4c-1.5,0-4.1,0.9-4.1,5.2v8.4h-2.5v-15.5h2.5v2.1h0.1c0.5-0.9,2-2.6,4.7-2.6
				c2.4,0,5.4,1,5.4,5.4L457.3,184.4L457.3,184.4z"/>
			<path d="M464.8,171.1v10.1c0,1.1,1,1.1,1.5,1.1h0.9v2c-0.9,0.1-1.6,0.1-1.9,0.1c-2.5,0-3.1-1.5-3.1-3.3v-10.2h-2v-2.1h2.1v-4.3
				h2.5v4.3h2.5v2.1h-2.5V171.1z"/>
			<path d="M492.4,169.5c-0.1-3.3-2.9-4.3-5.2-4.3c-1.9,0-4.9,0.5-4.9,3.8c0,1.9,1.3,2.4,2.5,2.6l6,1.4c2.8,0.6,4.9,2.3,4.9,5.7
				c0,5-4.7,6.4-8.3,6.4c-3.9,0-5.5-1.1-6.4-2c-1.9-1.6-2.1-3.4-2.1-5.4h2.6c0,3.9,3.1,4.9,5.9,4.9c2.1,0,5.5-0.5,5.5-3.5
				c0-2.1-1-2.9-4.5-3.8l-4.3-1c-1.4-0.4-4.5-1.3-4.5-5c0-3.3,2.1-6.5,7.3-6.5c7.4,0,8.2,4.4,8.2,6.8L492.4,169.5L492.4,169.5z"/>
			<path d="M501.3,176.7c0-2.1,0.8-5.9,4.5-5.9c3.8,0,4.5,3.9,4.5,5.9c0,2.1-0.8,5.9-4.5,5.9C502,182.5,501.3,178.8,501.3,176.7z
				 M498.6,176.7c0,4,2.3,8.2,7.2,8.2s7.2-4.1,7.2-8.2c0-4-2.3-8.2-7.2-8.2C500.9,168.6,498.6,172.7,498.6,176.7z"/>
			<path d="M526,174.1c-0.4-2.1-1.5-3.3-3.6-3.3c-3.1,0-4.1,3.1-4.1,5.9c0,2.6,0.6,5.9,4.1,5.9c1.8,0,3.1-1.3,3.6-3.6h2.5
				c-0.3,2.5-1.8,5.9-6.3,5.9c-4.3,0-6.9-3.3-6.9-7.8c0-4.8,2.3-8.5,7.4-8.5c4,0,5.5,2.9,5.8,5.7L526,174.1L526,174.1z"/>
			<path d="M534.5,184.4h-2.6v-15.5h2.5L534.5,184.4L534.5,184.4z M531.8,166.2v-2.9h2.5v2.9H531.8z"/>
			<path d="M541,175.5c0-2.4,1.9-4.5,4.3-4.5c3.1,0,4.1,2.1,4.3,4.5H541z M549.4,179.5c-0.1,1.1-1.5,3-4,3c-3,0-4.5-1.9-4.5-5h11.2
				c0-5.5-2.1-8.9-6.7-8.9c-5.2,0-7.4,3.9-7.4,8.5c0,4.5,2.5,7.8,6.9,7.8c2.5,0,3.5-0.5,4.1-1.1c1.9-1.3,2.6-3.5,2.8-4.1
				L549.4,179.5L549.4,179.5z"/>
			<path d="M559.1,171.1v10.1c0,1.1,1,1.1,1.5,1.1h0.9v2c-0.9,0.1-1.6,0.1-1.9,0.1c-2.5,0-3.1-1.5-3.1-3.3v-10.2h-2v-2.1h2.1v-4.3
				h2.5v4.3h2.5v2.1h-2.5V171.1z"/>
			<path d="M567.3,184.4h-2.5v-15.5h2.5V184.4z M564.8,166.2v-2.9h2.5v2.9H564.8z"/>
			<path d="M573.9,175.5c0-2.4,1.9-4.5,4.3-4.5c3.1,0,4.1,2.1,4.3,4.5H573.9z M582.2,179.5c-0.1,1.1-1.5,3-4,3c-3,0-4.5-1.9-4.5-5
				h11.2c0-5.5-2.1-8.9-6.7-8.9c-5.2,0-7.4,3.9-7.4,8.5c0,4.5,2.5,7.8,6.9,7.8c2.5,0,3.5-0.5,4.1-1.1c1.9-1.3,2.6-3.5,2.8-4.1
				L582.2,179.5L582.2,179.5z"/>
			<path d="M597.6,173.4c0-1-0.4-2.5-3.6-2.5c-0.9,0-3.1,0.3-3.1,2.1c0,1.3,0.9,1.5,2.9,2.1l2.5,0.6c3.1,0.9,4.3,2,4.3,4.1
				c0,3.1-2.6,5.2-6.2,5.2c-6.2,0-6.5-3.5-6.7-5.4h2.5c0.1,1.1,0.5,3.1,4.1,3.1c1.9,0,3.5-0.8,3.5-2.5c0-1.3-0.9-1.6-3.1-2.1l-3-0.8
				c-2.1-0.5-3.5-1.6-3.5-3.8c0-3.4,2.9-4.9,5.9-4.9c5.5,0,5.9,4.1,5.9,4.9h-2.4L597.6,173.4L597.6,173.4z"/>
		</g>
		<g>
			<rect x="-88" y="124.1" class="st2" width="112.4" height="64.4"/>
			<g>
				<polygon class="st7" points="-59.4,162.8 -74.1,162.8 -74.1,150.4 -59.4,150.4 -59.4,150.4 -59.4,135.6 -46.9,135.6 
					-46.9,150.4 -46.9,150.4 -32.3,150.4 -32.3,162.8 -46.9,162.8 -46.9,162.8 -46.9,177.5 -59.4,177.5 				"/>
				<g>
					<path class="st7" d="M-12.9,156.4c0-9.8,7.9-17.6,17.6-17.6c2.1,0,4.1,0.4,6.2,1.1c-3.5-2.9-8.2-4.5-13.2-4.5
						c-11.7,0-21.2,9.6-21.2,21.2s9.6,21.2,21.2,21.2c5.2,0,9.8-1.9,13.6-4.9c-2,0.9-4.1,1.3-6.5,1.3C-5,174-12.9,166.1-12.9,156.4z
						"/>
				</g>
				<rect x="-83.1" y="129" class="st8" width="102.9" height="55.2"/>
			</g>
		</g>
	</g>
</g>
<g id="Combo" class="st0">
	<g class="st1">
		<rect x="278.9" y="-3" class="st2" width="113.9" height="65.2"/>
		<g>
			<polygon class="st6" points="307.7,36.2 293,36.2 293,23.6 307.7,23.6 307.7,23.6 307.7,8.7 320.5,8.7 320.5,23.6 320.5,23.6 
				335.2,23.6 335.2,36.2 320.5,36.2 320.5,36.2 320.5,51 307.7,51 			"/>
			<g>
				<path class="st6" d="M355,29.8c0-9.9,8-17.8,17.8-17.8c2.2,0,4.2,0.4,6.2,1.1c-3.6-2.9-8.3-4.6-13.4-4.6
					c-11.8,0-21.5,9.7-21.5,21.5s9.7,21.5,21.5,21.5c5.2,0,9.9-1.9,13.8-5c-2,0.9-4.2,1.3-6.6,1.3C362.9,47.6,355,39.6,355,29.8z"/>
			</g>
			<rect x="283.8" y="1.9" class="st8" width="104.3" height="55.9"/>
		</g>
	</g>
</g>
</svg>
