<?xml version="1.0" encoding="utf-8"?>
<!-- Generator: Adobe Illustrator 19.2.0, SVG Export Plug-In . SVG Version: 6.00 Build 0)  -->
<svg version="1.1" id="Layer_1" xmlns="http://www.w3.org/2000/svg" xmlns:xlink="http://www.w3.org/1999/xlink" x="0px" y="0px"
	 viewBox="0 0 57.7 57.7" style="enable-background:new 0 0 57.7 57.7;" xml:space="preserve">
<style type="text/css">
	.st0{display:none;}
	.st1{display:inline;}
	.st2{fill:#FFFFFF;}
	.st3{fill:none;stroke:#000000;stroke-width:1.5;stroke-linecap:round;stroke-linejoin:round;}
	.st4{fill:none;stroke:#000000;stroke-linecap:round;stroke-linejoin:round;}
	.st5{fill:#DF0031;}
	.st6{display:inline;fill:#ED1B2E;}
	.st7{fill:#ED1B2E;}
	.st8{fill:#ED1C24;}
	.st9{fill:none;stroke:#ED1C24;stroke-width:2;}
</style>
<g id="ICRC" class="st0">
	<g class="st1">
		<circle class="st2" cx="-240.3" cy="29" r="28"/>
		<circle class="st3" cx="-240.3" cy="29" r="28"/>
		<path class="st4" d="M-221,29c0,10.6-8.6,19.2-19.2,19.2c-10.6,0-19.2-8.6-19.2-19.2s8.6-19.2,19.2-19.2
			C-229.6,9.8-221,18.4-221,29z"/>
		<polygon class="st5" points="-254.4,33.3 -254.4,24.8 -226.2,24.7 -226.1,33.2 		"/>
		<path d="M-263.8,36.5c-0.5,0.3-0.8,0.7-0.9,1.2c-0.1,0.5-0.1,1,0.1,1.5c0.3,0.8,0.8,1.3,1.5,1.5c0.7,0.2,1.3,0.1,2.1-0.2
			c0.7-0.3,1.3-0.8,1.6-1.3c0.3-0.6,0.3-1.3,0-2.1c-0.5-1.3-1.5-1.7-2.9-1.4l0.3,0.7c0.4-0.1,0.8-0.1,1.2,0c0.4,0.1,0.6,0.4,0.8,0.9
			c0.1,0.3,0.2,0.6,0.1,0.8c0,0.3-0.1,0.5-0.2,0.7c-0.3,0.4-0.7,0.8-1.3,1c-0.5,0.2-1.1,0.3-1.5,0.2c-0.5-0.1-0.9-0.5-1.1-1.1
			c-0.1-0.4-0.2-0.7-0.1-1s0.3-0.6,0.6-0.8L-263.8,36.5z M-263.2,34.7c0.7-0.1,1.4-0.4,1.8-0.9c0.5-0.5,0.7-1.2,0.6-2
			c-0.1-0.9-0.5-1.5-1.1-1.8c-0.6-0.4-1.3-0.5-2-0.4s-1.4,0.4-1.9,0.9c-0.5,0.5-0.7,1.2-0.6,2.1s0.5,1.5,1.1,1.8
			C-264.6,34.7-264,34.8-263.2,34.7z M-263.3,34c-0.6,0.1-1.1,0-1.5-0.3c-0.2-0.1-0.4-0.3-0.6-0.5c-0.1-0.2-0.3-0.5-0.3-0.8
			s0-0.6,0.1-0.9c0.1-0.3,0.2-0.5,0.4-0.6c0.4-0.3,0.9-0.6,1.5-0.6c0.1,0,0.3,0,0.4,0c0.1,0,0.3,0,0.4,0c0.3,0,0.5,0.1,0.7,0.3
			c0.5,0.2,0.8,0.7,0.9,1.3c0.1,0.7-0.1,1.2-0.5,1.5c-0.2,0.2-0.4,0.3-0.7,0.4C-262.8,33.9-263,34-263.3,34z M-261.1,28.3l0.1-0.7
			l-4.4-0.8l0,0l4.7-0.9l0.1-0.6l-4.1-2.5l0,0l4.4,0.8l0.1-0.7l-5.3-0.9l-0.2,1l4.1,2.5l-4.7,0.9l-0.2,1L-261.1,28.3z M-259.7,21.8
			l0.3-0.7l-5-2l-0.3,0.7L-259.7,21.8z M-258.4,18.9l0.4-0.6l-4.1-2.4l0.9-1.6l-0.5-0.3l-2.2,3.7l0.5,0.3l0.9-1.6L-258.4,18.9z
			 M-256.7,16.2l2.5-2.8l-0.4-0.4l-2,2.3L-258,14l1.9-2.1l-0.4-0.4l-1.9,2.1l-1.3-1.2l2-2.2l-0.4-0.5l-2.5,2.8L-256.7,16.2z
			 M-251.8,11.6l0.6-0.4l-2.9-4.6l-0.6,0.4L-251.8,11.6z M-250.2,10.5l0.6-0.3l-1.7-4.1l0,0l4.2,3l0.7-0.3l-2.1-5l-0.6,0.3l1.7,4.1
			l0,0l-4.3-3l-0.7,0.3L-250.2,10.5z M-243.9,8.3l0.7-0.1l-0.8-4.8l1.7-0.3l-0.1-0.6l-4.2,0.7l0.1,0.6l1.7-0.3L-243.9,8.3z
			 M-240.9,7.9l3.7,0.2V7.5l-3-0.2l0.1-1.9l2.8,0.1V4.9l-2.8-0.1l0.1-1.7l3,0.2V2.7l-3.7-0.2L-240.9,7.9z M-234.8,5.6l0.5-1.8
			l1.7,0.5c0.3,0.1,0.5,0.3,0.6,0.5c0.1,0.2,0.1,0.4,0,0.7c-0.1,0.2-0.1,0.3-0.2,0.4c-0.1,0.1-0.2,0.2-0.3,0.2
			c-0.3,0.1-0.6,0-0.9-0.1L-234.8,5.6z M-236.3,8.3l0.7,0.2l0.6-2.2l1.7,0.5c0.2,0.1,0.3,0.1,0.4,0.2s0.1,0.2,0.2,0.3
			c0,0.1,0.1,0.2,0.1,0.3s0,0.3,0,0.4c0,0.1,0,0.3-0.1,0.4c0,0.1-0.1,0.3-0.1,0.4c0,0.1-0.1,0.2-0.1,0.3s0,0.2,0,0.3l0.8,0.2
			c0-0.1-0.1-0.2-0.1-0.4c0-0.1,0-0.3,0-0.4c0-0.3,0.1-0.5,0.2-0.8c0.1-0.3,0.1-0.5,0-0.7c0-0.1-0.1-0.2-0.1-0.3
			c-0.1-0.1-0.2-0.2-0.3-0.3l0,0c0.3,0,0.6-0.1,0.8-0.3s0.3-0.5,0.4-0.8c0.2-0.9-0.2-1.5-1.2-1.9l-2.4-0.7L-236.3,8.3z M-231.4,9.9
			l0.6,0.3l2.2-3.8l0,0l0.2,5.3l0.7,0.4l2.7-4.7l-0.6-0.4l-2.2,3.8l0,0l-0.2-5.3l-0.7-0.4L-231.4,9.9z M-227.3,12.4l0.5,0.5l1.6-0.7
			l1.6,1.6l-0.7,1.6l0.6,0.6l2.3-5.4L-222,10L-227.3,12.4z M-222.2,10.8L-222.2,10.8l-1.1,2.5l-1.3-1.3L-222.2,10.8z M-222.8,17.5
			l0.4,0.6l4-2.6l0.9,1.5l0.5-0.3l-2.3-3.7l-0.5,0.3l0.9,1.5L-222.8,17.5z M-221.3,20.3l0.3,0.7l4.9-2.3l-0.3-0.6L-221.3,20.3z
			 M-217.9,21.1c-0.7,0.2-1.3,0.6-1.7,1.1c-0.4,0.6-0.6,1.3-0.4,2.1c0.2,0.8,0.7,1.4,1.3,1.7c0.6,0.3,1.3,0.3,2,0.2
			c0.7-0.2,1.3-0.6,1.7-1.1c0.4-0.6,0.5-1.3,0.4-2.1c-0.2-0.8-0.6-1.4-1.3-1.7C-216.5,21-217.2,20.9-217.9,21.1z M-217.8,21.8
			c0.5-0.1,1.1-0.1,1.6,0.1c0.2,0.1,0.5,0.3,0.6,0.5c0.2,0.2,0.3,0.5,0.4,0.8s0.1,0.6,0,0.9c-0.1,0.3-0.2,0.5-0.3,0.7
			c-0.4,0.4-0.8,0.7-1.4,0.8c-0.1,0-0.3,0.1-0.4,0.1s-0.3,0-0.4,0c-0.3,0-0.5-0.1-0.8-0.2c-0.5-0.2-0.9-0.6-1-1.2
			c-0.1-0.6,0-1.2,0.3-1.6c0.2-0.2,0.4-0.4,0.6-0.5C-218.3,22-218,21.9-217.8,21.8z M-219.3,27.8v0.7l4.3,0.1l0,0l-4.4,2.8v0.8
			l5.3,0.2v-0.7l-4.3-0.1l0,0l4.4-2.7v-0.8L-219.3,27.8z M-219.5,32.7l-0.2,0.7l1.4,1.1l-0.6,2.2l-1.7,0.1l-0.2,0.8l5.7-0.5l0.2-0.8
			L-219.5,32.7z M-215.6,36.5L-215.6,36.5l-2.6,0.2l0.5-1.8L-215.6,36.5z M-221.2,38l-1.7,3.2l0.5,0.3l1.4-2.5l4.2,2.3l0.3-0.6
			L-221.2,38z"/>
		<path d="M-253.3,51.1l-0.2,0.7l0.4,0.3l1.6-2.4l-2-1.3l-0.3,0.5l1.4,1c-0.3,0.4-0.6,0.7-1,0.8c-0.4,0.1-0.9,0-1.4-0.3
			s-0.7-0.8-0.8-1.3c0-0.5,0.1-1,0.4-1.5s0.7-0.9,1.2-1.1s1-0.1,1.6,0.2c0.3,0.2,0.6,0.5,0.7,0.8c0.1,0.3,0.1,0.7-0.1,1.1l0.6,0.4
			c0.3-0.6,0.3-1.1,0.1-1.6s-0.5-0.9-1-1.2c-0.7-0.5-1.4-0.6-2.1-0.3c-0.7,0.2-1.2,0.7-1.7,1.3c-0.4,0.6-0.6,1.3-0.5,1.9
			c0.1,0.7,0.4,1.3,1.1,1.7c0.3,0.2,0.6,0.3,0.9,0.4C-254,51.3-253.7,51.2-253.3,51.1z M-251,53.1l3.5,1.3l0.2-0.6l-2.9-1l0.6-1.8
			l2.6,1l0.2-0.6l-2.6-1l0.6-1.6l2.8,1l0.2-0.6l-3.5-1.3L-251,53.1z M-245.3,54.9l0.7,0.1l0.5-4.3l0,0l2.3,4.6l0.8,0.1l0.6-5.4
			l-0.7-0.1l-0.5,4.4l0,0l-2.3-4.7l-0.8-0.1L-245.3,54.9z M-238.6,55.3l3.7-0.5l-0.1-0.6l-3,0.4l-0.2-1.9l2.8-0.4l-0.1-0.6l-2.8,0.4
			l-0.2-1.7l3-0.4l-0.1-0.6l-3.7,0.5L-238.6,55.3z M-230.8,47.7l-0.7,0.3l0.2,5l0,0l-3.1-3.9l-0.7,0.3l3.7,4.4l0.8-0.3L-230.8,47.7z
			 M-227.2,51.9l3.2-2l-0.4-0.6L-227,51l-1-1.6l2.3-1.5l-0.3-0.5l-2.3,1.5l-0.9-1.4l2.5-1.6l-0.3-0.5l-3.1,2L-227.2,51.9z"/>
		<polygon class="st5" points="-244.6,14.9 -236,14.8 -236,43.1 -244.5,43.1 		"/>
	</g>
</g>
<g id="Red_Crescent" class="st0">
	<path class="st6" d="M-141.7,53.3c-13.4,0-24.3-10.9-24.3-24.3s10.8-24.3,24.3-24.3c4.3,0,8.3,1.1,11.8,3
		c-5.3-5.1-12.5-8.3-20.5-8.3c-16.3,0-29.5,13.2-29.5,29.5s13.2,29.5,29.5,29.5c8,0,15.2-3.1,20.5-8.3
		C-133.4,52.2-137.5,53.3-141.7,53.3z"/>
</g>
<g id="Layer_5" class="st0">
	<g class="st1">
		<path class="st7" d="M-68.8-0.1L-97.9,29l29.1,29.1L-39.7,29L-68.8-0.1z"/>
		<path class="st2" d="M-68.8,14.5l14.4,14.4l-14.4,14.4l-14.4-14.4L-68.8,14.5z"/>
	</g>
</g>
<g id="Red_Cross">
	<g>
		<polygon class="st7" points="0,37.7 0,20.3 57.6,20 57.7,37.5 		"/>
		<polygon class="st7" points="20,0.1 37.5,0 37.6,57.7 20.2,57.7 		"/>
	</g>
</g>
<g id="IFRC_and_RC" class="st0">
	<g class="st1">
		<g>
			<path d="M-140.7,149.1h-2.9v-21.2h2.9V149.1z"/>
			<path d="M-122.9,149.1h-2.5v-9.6c0-2.6-0.8-4-3.3-4c-1.5,0-4.1,0.9-4.1,5.2v8.4h-2.6v-15.4h2.5v2.1h0.1c0.5-0.9,2-2.6,4.7-2.6
				c2.4,0,5.4,1,5.4,5.4L-122.9,149.1L-122.9,149.1z"/>
			<path d="M-115.3,135.8v10.1c0,1.1,1,1.1,1.5,1.1h0.9v2c-0.9,0.1-1.6,0.1-1.9,0.1c-2.5,0-3.1-1.5-3.1-3.3v-10.1h-2.1v-2.1h2.1
				v-4.3h2.5v4.3h2.5v2.1h-2.4V135.8z"/>
			<path d="M-107.6,140.1c0-2.4,1.9-4.5,4.3-4.5c3.1,0,4.1,2.1,4.3,4.5H-107.6z M-99.2,144.2c-0.1,1.1-1.5,3-4,3c-3,0-4.5-1.9-4.5-5
				h11.2c0-5.5-2.1-8.9-6.7-8.9c-5.2,0-7.4,3.9-7.4,8.5c0,4.5,2.5,7.8,6.9,7.8c2.5,0,3.5-0.5,4.1-1.1c1.9-1.3,2.6-3.5,2.8-4.1
				L-99.2,144.2L-99.2,144.2z"/>
			<path d="M-89.8,149.1h-2.5v-15.4h2.5v2.5h0.1c1-1.9,2.4-3,4.3-3c0.4,0,0.5,0,0.6,0.1v2.6h-1c-2.4,0-3.9,1.9-3.9,4.1L-89.8,149.1
				L-89.8,149.1z"/>
			<path d="M-69,149.1h-2.5v-9.6c0-2.6-0.8-4-3.3-4c-1.5,0-4.1,0.9-4.1,5.2v8.4h-2.5v-15.4h2.5v2.1h0.1c0.5-0.9,2-2.6,4.7-2.6
				c2.4,0,5.4,1,5.4,5.4L-69,149.1L-69,149.1z"/>
			<path d="M-55.2,143.7c0,2.1-2.4,3.6-4.8,3.6c-1.9,0-2.9-1-2.9-2.6c0-1.9,2-2.3,3.3-2.5c3.1-0.5,3.9-0.6,4.3-1L-55.2,143.7
				L-55.2,143.7z M-62.4,138.4c0.1-1.1,0.5-3,3.5-3c2.5,0,3.6,0.9,3.6,2.5c0,1.5-0.8,1.8-1.4,1.9l-4.3,0.5c-4.3,0.5-4.7,3.5-4.7,4.9
				c0,2.6,2,4.5,4.9,4.5c3,0,4.5-1.4,5.5-2.5c0.1,1.1,0.5,2.4,2.8,2.4c0.5,0,1-0.1,1.4-0.3v-2.1c-0.3,0.1-0.6,0.1-0.9,0.1
				c-0.5,0-0.9-0.3-0.9-0.9v-8.9c0-3.9-4.5-4.3-5.8-4.3c-3.9,0-6.2,1.5-6.4,5.2L-62.4,138.4L-62.4,138.4z"/>
			<path d="M-44.4,135.8v10.1c0,1.1,1,1.1,1.5,1.1h0.9v2c-0.9,0.1-1.6,0.1-1.9,0.1c-2.5,0-3.1-1.5-3.1-3.3v-10.1h-2v-2.1h2.1v-4.3
				h2.5v4.3h2.5v2.1h-2.5V135.8z"/>
			<path d="M-36.2,149.1h-2.5v-15.4h2.5V149.1z M-38.7,130.9V128h2.5v2.9H-38.7z"/>
			<path d="M-29.9,141.5c0-2.1,0.8-5.9,4.5-5.9c3.8,0,4.5,3.9,4.5,5.9c0,2.1-0.8,5.9-4.5,5.9C-29.2,147.2-29.9,143.5-29.9,141.5z
				 M-32.6,141.5c0,4,2.3,8.2,7.2,8.2c4.9,0,7.2-4.1,7.2-8.2s-2.3-8.2-7.2-8.2S-32.6,137.4-32.6,141.5z"/>
			<path d="M-2.2,149.1h-2.5v-9.6c0-2.6-0.8-4-3.3-4c-1.5,0-4.1,0.9-4.1,5.2v8.4h-2.5v-15.4h2.5v2.1h0.1c0.5-0.9,2-2.6,4.7-2.6
				c2.4,0,5.4,1,5.4,5.4L-2.2,149.1L-2.2,149.1z"/>
			<path d="M11.7,143.7c0,2.1-2.4,3.6-4.8,3.6c-1.9,0-2.9-1-2.9-2.6c0-1.9,2-2.3,3.3-2.5c3.1-0.5,3.9-0.6,4.3-1v2.5H11.7z
				 M4.5,138.4c0.1-1.1,0.5-3,3.5-3c2.5,0,3.6,0.9,3.6,2.5c0,1.5-0.8,1.8-1.4,1.9l-4.3,0.5c-4.3,0.5-4.7,3.5-4.7,4.9
				c0,2.6,2,4.5,4.9,4.5c3,0,4.5-1.4,5.5-2.5c0.1,1.1,0.5,2.4,2.8,2.4c0.5,0,1-0.1,1.4-0.3v-2.1c-0.3,0.1-0.6,0.1-0.9,0.1
				c-0.5,0-0.9-0.3-0.9-0.9v-8.9c0-3.9-4.5-4.3-5.8-4.3c-3.9,0-6.2,1.5-6.4,5.2L4.5,138.4L4.5,138.4z"/>
			<path d="M22,149.1h-2.5v-21.2H22V149.1z"/>
			<path d="M38.7,149.1h-2.9v-21.2h14.6v2.5H38.6v6.5H49v2.5H38.6v9.7H38.7z"/>
			<path d="M54.9,140.1c0-2.4,1.9-4.5,4.3-4.5c3.1,0,4.1,2.1,4.3,4.5H54.9z M63.5,144.2c-0.1,1.1-1.5,3-4,3c-3,0-4.5-1.9-4.5-5h11.2
				c0-5.5-2.1-8.9-6.7-8.9c-5.2,0-7.4,3.9-7.4,8.5c0,4.5,2.5,7.8,6.9,7.8c2.5,0,3.5-0.5,4.1-1.1c1.9-1.3,2.6-3.5,2.8-4.1L63.5,144.2
				L63.5,144.2z"/>
			<path d="M71.6,141.3c0-2,0.1-5.8,4.1-5.8c3.8,0,4.1,4,4.1,6.5c0,4.1-2.5,5.2-4.1,5.2C73,147.2,71.6,144.7,71.6,141.3z M82.7,128
				h-2.5v7.9h-0.1c-0.6-0.9-1.9-2.6-4.5-2.6c-4.1,0-6.4,3.4-6.4,7.7c0,3.6,1.5,8.5,6.8,8.5c1.5,0,3.3-0.5,4.4-2.5h0.1v2.1H83
				L82.7,128L82.7,128z"/>
			<path d="M88.8,140.1c0-2.4,1.9-4.5,4.3-4.5c3.1,0,4.1,2.1,4.3,4.5H88.8z M97.3,144.2c-0.1,1.1-1.5,3-4,3c-3,0-4.5-1.9-4.5-5H100
				c0-5.5-2.1-8.9-6.7-8.9c-5.2,0-7.4,3.9-7.4,8.5c0,4.5,2.5,7.8,6.9,7.8c2.5,0,3.5-0.5,4.1-1.1c1.9-1.3,2.6-3.5,2.8-4.1L97.3,144.2
				L97.3,144.2z"/>
			<path d="M106.7,149.1h-2.5v-15.4h2.5v2.5h0.1c1-1.9,2.4-3,4.3-3c0.4,0,0.5,0,0.6,0.1v2.6h-0.9c-2.4,0-3.9,1.9-3.9,4.1
				L106.7,149.1L106.7,149.1z"/>
			<path d="M123.3,143.7c0,2.1-2.4,3.6-4.8,3.6c-1.9,0-2.9-1-2.9-2.6c0-1.9,2-2.3,3.3-2.5c3.1-0.5,3.9-0.6,4.3-1v2.5H123.3z
				 M116.3,138.4c0.1-1.1,0.5-3,3.5-3c2.5,0,3.6,0.9,3.6,2.5c0,1.5-0.8,1.8-1.4,1.9l-4.3,0.5c-4.3,0.5-4.7,3.5-4.7,4.9
				c0,2.6,2,4.5,4.9,4.5c3,0,4.5-1.4,5.5-2.5c0.1,1.1,0.5,2.4,2.8,2.4c0.5,0,1-0.1,1.4-0.3v-2.1c-0.3,0.1-0.6,0.1-0.9,0.1
				c-0.5,0-0.9-0.3-0.9-0.9v-8.9c0-3.9-4.5-4.3-5.8-4.3c-3.9,0-6.2,1.5-6.4,5.2L116.3,138.4L116.3,138.4z"/>
			<path d="M134.1,135.8v10.1c0,1.1,1,1.1,1.5,1.1h0.9v2c-0.9,0.1-1.6,0.1-1.9,0.1c-2.5,0-3.1-1.5-3.1-3.3v-10.1h-2.1v-2.1h2.1v-4.3
				h2.5v4.3h2.5v2.1h-2.4V135.8z"/>
			<path d="M142.4,149.1h-2.5v-15.4h2.5V149.1z M139.8,130.9V128h2.5v2.9H139.8z"/>
			<path d="M148.6,141.5c0-2.1,0.8-5.9,4.5-5.9c3.8,0,4.5,3.9,4.5,5.9c0,2.1-0.8,5.9-4.5,5.9C149.4,147.2,148.6,143.5,148.6,141.5z
				 M145.9,141.5c0,4,2.3,8.2,7.2,8.2c4.9,0,7.2-4.1,7.2-8.2s-2.3-8.2-7.2-8.2S145.9,137.4,145.9,141.5z"/>
			<path d="M176.3,149.1h-2.5v-9.6c0-2.6-0.8-4-3.3-4c-1.5,0-4.1,0.9-4.1,5.2v8.4h-2.5v-15.4h2.5v2.1h0.1c0.5-0.9,2-2.6,4.7-2.6
				c2.4,0,5.4,1,5.4,5.4L176.3,149.1L176.3,149.1z"/>
			<path d="M-142.4,176.1c0-2.1,0.8-5.9,4.5-5.9s4.5,3.9,4.5,5.9c0,2.1-0.8,5.9-4.5,5.9C-141.7,181.9-142.4,178.2-142.4,176.1z
				 M-145.1,176.1c0,4,2.3,8.2,7.2,8.2s7.2-4.1,7.2-8.2c0-4-2.3-8.2-7.2-8.2C-142.8,168-145.1,172.1-145.1,176.1z"/>
			<path d="M-123.9,170.5v13.2h-2.5v-13.2h-2.1v-2.1h2.1v-2.7c0-2.3,1.5-3.4,4-3.4c0.4,0,0.8,0,1.1,0.1v2.3c-0.4,0-0.8-0.1-1.1-0.1
				c-1.1,0-1.5,0.5-1.5,1.9v1.9h2.5v2.1H-123.9L-123.9,170.5z"/>
			<path d="M-106.2,165.1h7.2c1.4,0,3.9,0.3,3.9,3.5c0,3.1-2.1,3.6-4.3,3.6h-6.7L-106.2,165.1L-106.2,165.1L-106.2,165.1z
				 M-106.2,174.8h6.9c3.4,0,3.8,2,3.8,3.8c0,0.9,0.1,4,0.5,5.3h3.5v-0.5c-0.9-0.5-1-0.9-1.1-2.1l-0.1-3.9c-0.1-2.9-1.4-3.5-2.5-4
				c1.4-0.9,2.9-1.9,2.9-5c0-4.5-3.5-5.7-6.9-5.7h-9.8v21.2h2.9L-106.2,174.8L-106.2,174.8L-106.2,174.8L-106.2,174.8z"/>
			<path d="M-85.7,174.9c0-2.4,1.9-4.5,4.3-4.5c3.1,0,4.1,2.1,4.3,4.5H-85.7z M-77.3,178.9c-0.1,1.1-1.5,3-4,3c-3,0-4.5-1.9-4.5-5
				h11.2c0-5.5-2.1-8.9-6.7-8.9c-5.2,0-7.4,3.9-7.4,8.5c0,4.5,2.5,7.8,6.9,7.8c2.5,0,3.5-0.5,4.1-1.1c1.9-1.3,2.6-3.5,2.8-4.1
				L-77.3,178.9L-77.3,178.9z"/>
			<path d="M-69,176c0-2,0.1-5.8,4.1-5.8c3.8,0,4.1,4,4.1,6.5c0,4.1-2.5,5.2-4.1,5.2C-67.8,181.9-69,179.4-69,176z M-58.1,162.7
				h-2.5v7.9h-0.1c-0.6-0.9-1.9-2.6-4.5-2.6c-4.1,0-6.4,3.4-6.4,7.7c0,3.6,1.5,8.5,6.8,8.5c1.5,0,3.3-0.5,4.4-2.5h0.1v2.1h2.5
				L-58.1,162.7L-58.1,162.7z"/>
			<path d="M-29.9,169c-0.9-3.8-3.9-4.4-5.9-4.4c-3.9,0-6.9,2.9-6.9,8.4c0,5,1.8,8.8,7,8.8c1.9,0,5-0.9,6-5.9h2.8
				c-1.1,7.9-7.7,8.3-9.2,8.3c-4.9,0-9.6-3.1-9.6-11.2c0-6.5,3.8-11.1,9.9-11.1c5.5,0,8.3,3.4,8.7,6.9L-29.9,169L-29.9,169z"/>
			<path d="M-20.3,183.8h-2.5v-15.5h2.5v2.5h0.1c1-1.9,2.4-3,4.3-3c0.4,0,0.5,0,0.6,0.1v2.6h-0.9c-2.4,0-3.9,1.9-3.9,4.1
				L-20.3,183.8L-20.3,183.8z"/>
			<path d="M-11,176.1c0-2.1,0.8-5.9,4.5-5.9c3.8,0,4.5,3.9,4.5,5.9c0,2.1-0.8,5.9-4.5,5.9C-10.2,181.9-11,178.2-11,176.1z
				 M-13.7,176.1c0,4,2.3,8.2,7.2,8.2c4.9,0,7.2-4.1,7.2-8.2c0-4-2.3-8.2-7.2-8.2C-11.5,168-13.7,172.1-13.7,176.1z"/>
			<path d="M12.9,172.8c0-1-0.4-2.5-3.6-2.5c-0.9,0-3.1,0.3-3.1,2.1c0,1.3,0.9,1.5,2.9,2.1l2.5,0.6c3.1,0.9,4.3,2,4.3,4.1
				c0,3.1-2.6,5.2-6.2,5.2c-6.2,0-6.5-3.5-6.7-5.4h2.5c0.1,1.1,0.5,3.1,4.1,3.1c1.9,0,3.5-0.8,3.5-2.5c0-1.3-0.9-1.6-3.1-2.1l-3-0.8
				c-2.1-0.5-3.5-1.6-3.5-3.8c0-3.4,2.9-4.9,5.9-4.9c5.5,0,5.9,4.1,5.9,4.9h-2.4L12.9,172.8L12.9,172.8z"/>
			<path d="M28.3,172.8c0-1-0.4-2.5-3.6-2.5c-0.9,0-3.1,0.3-3.1,2.1c0,1.3,0.9,1.5,2.9,2.1l2.5,0.6c3.1,0.9,4.3,2,4.3,4.1
				c0,3.1-2.6,5.2-6.2,5.2c-6.2,0-6.5-3.5-6.7-5.4h2.5c0.1,1.1,0.5,3.1,4.1,3.1c1.9,0,3.5-0.8,3.5-2.5c0-1.3-0.9-1.6-3.1-2.1l-3-0.8
				c-2.1-0.5-3.5-1.6-3.5-3.8c0-3.4,2.9-4.9,5.9-4.9c5.5,0,5.9,4.1,5.9,4.9h-2.4L28.3,172.8L28.3,172.8z"/>
			<path d="M53,178.5c0,2.1-2.4,3.6-4.8,3.6c-1.9,0-2.9-1-2.9-2.6c0-1.9,2-2.3,3.3-2.5c3.1-0.5,3.9-0.6,4.3-1v2.5H53z M46,173.1
				c0.1-1.1,0.5-3,3.5-3c2.5,0,3.6,0.9,3.6,2.5s-0.8,1.8-1.4,1.9l-4.3,0.5c-4.3,0.5-4.7,3.5-4.7,4.9c0,2.6,2,4.5,4.9,4.5
				c3,0,4.5-1.4,5.5-2.5c0.1,1.1,0.5,2.4,2.8,2.4c0.5,0,1-0.1,1.4-0.3v-1.9c-0.3,0.1-0.6,0.1-0.9,0.1c-0.5,0-0.9-0.3-0.9-0.9v-8.9
				c0-3.9-4.5-4.3-5.8-4.3c-3.9,0-6.2,1.5-6.4,5.2h2.5v-0.2H46z"/>
			<path d="M73.1,183.8h-2.6v-9.6c0-2.6-0.8-4-3.3-4c-1.5,0-4.1,0.9-4.1,5.2v8.4h-2.5v-15.5h2.5v2.1h0.1c0.5-0.9,2-2.6,4.7-2.6
				c2.4,0,5.4,1,5.4,5.4v10.6L73.1,183.8L73.1,183.8z"/>
			<path d="M79.4,176c0-2,0.1-5.8,4.1-5.8c3.8,0,4.1,4,4.1,6.5c0,4.1-2.5,5.2-4.1,5.2C80.7,181.9,79.4,179.4,79.4,176z M90.4,162.7
				h-2.5v7.9h-0.1c-0.6-0.9-1.9-2.6-4.5-2.6c-4.1,0-6.4,3.4-6.4,7.7c0,3.6,1.5,8.5,6.8,8.5c1.5,0,3.3-0.5,4.4-2.5h0.1v2.1h2.5
				L90.4,162.7L90.4,162.7z"/>
			<path d="M106.9,165.1h7.2c1.4,0,3.9,0.3,3.9,3.5c0,3.1-2.1,3.6-4.3,3.6H107V165L106.9,165.1L106.9,165.1z M106.9,174.8h6.9
				c3.4,0,3.8,2,3.8,3.8c0,0.9,0.1,4,0.5,5.3h3.5v-0.5c-0.9-0.5-1-0.9-1.1-2.1l-0.1-3.9c-0.1-2.9-1.4-3.5-2.5-4
				c1.4-0.9,2.9-1.9,2.9-5c0-4.5-3.5-5.7-6.9-5.7h-9.8v21.2h2.9L106.9,174.8L106.9,174.8L106.9,174.8L106.9,174.8z"/>
			<path d="M127.3,174.9c0-2.4,1.9-4.5,4.3-4.5c3.1,0,4.1,2.1,4.3,4.5H127.3z M135.7,178.9c-0.1,1.1-1.5,3-4,3c-3,0-4.5-1.9-4.5-5
				h11.2c0-5.5-2.1-8.9-6.7-8.9c-5.2,0-7.4,3.9-7.4,8.5c0,4.5,2.5,7.8,6.9,7.8c2.5,0,3.5-0.5,4.1-1.1c1.9-1.3,2.6-3.5,2.8-4.1
				L135.7,178.9L135.7,178.9z"/>
			<path d="M144,176c0-2,0.1-5.8,4.1-5.8c3.8,0,4.1,4,4.1,6.5c0,4.1-2.5,5.2-4.1,5.2C145.3,181.9,144,179.4,144,176z M155,162.7
				h-2.5v7.9h-0.1c-0.6-0.9-1.9-2.6-4.5-2.6c-4.1,0-6.4,3.4-6.4,7.7c0,3.6,1.5,8.5,6.8,8.5c1.5,0,3.3-0.5,4.4-2.5h0.1v2.1h2.5
				L155,162.7L155,162.7z"/>
			<path d="M183.1,169c-0.9-3.8-3.9-4.4-5.9-4.4c-3.9,0-6.9,2.9-6.9,8.4c0,5,1.8,8.8,7,8.8c1.9,0,5-0.9,6-5.9h2.8
				c-1.1,7.9-7.7,8.3-9.2,8.3c-4.9,0-9.6-3.1-9.6-11.2c0-6.5,3.8-11.1,9.9-11.1c5.5,0,8.3,3.4,8.7,6.9L183.1,169L183.1,169z"/>
			<path d="M192.8,183.8h-2.5v-15.5h2.5v2.5h0.1c1-1.9,2.4-3,4.3-3c0.4,0,0.5,0,0.6,0.1v2.6h-1c-2.4,0-3.9,1.9-3.9,4.1L192.8,183.8
				L192.8,183.8z"/>
			<path d="M202.2,174.9c0-2.4,1.9-4.5,4.3-4.5c3.1,0,4.1,2.1,4.3,4.5H202.2z M210.6,178.9c-0.1,1.1-1.5,3-4,3c-3,0-4.5-1.9-4.5-5
				h11.2c0-5.5-2.1-8.9-6.7-8.9c-5.2,0-7.4,3.9-7.4,8.5c0,4.5,2.5,7.8,6.9,7.8c2.5,0,3.5-0.5,4.1-1.1c1.9-1.3,2.6-3.5,2.8-4.1
				L210.6,178.9L210.6,178.9z"/>
			<path d="M226,172.8c0-1-0.4-2.5-3.6-2.5c-0.9,0-3.1,0.3-3.1,2.1c0,1.3,0.9,1.5,2.9,2.1l2.5,0.6c3.1,0.9,4.3,2,4.3,4.1
				c0,3.1-2.6,5.2-6.2,5.2c-6.2,0-6.5-3.5-6.7-5.4h2.5c0.1,1.1,0.5,3.1,4.1,3.1c1.9,0,3.5-0.8,3.5-2.5c0-1.3-0.9-1.6-3.1-2.1l-3-0.8
				c-2.1-0.5-3.5-1.6-3.5-3.8c0-3.4,2.9-4.9,5.9-4.9c5.5,0,5.9,4.1,5.9,4.9H226L226,172.8L226,172.8z"/>
			<path d="M242.1,173.5c-0.4-2.1-1.5-3.3-3.6-3.3c-3.1,0-4.1,3.1-4.1,5.9c0,2.6,0.6,5.9,4.1,5.9c1.8,0,3.1-1.3,3.6-3.6h2.5
				c-0.3,2.5-1.8,5.9-6.3,5.9c-4.3,0-6.9-3.3-6.9-7.8c0-4.8,2.3-8.5,7.4-8.5c4,0,5.5,2.9,5.8,5.7L242.1,173.5L242.1,173.5z"/>
			<path d="M249.9,174.9c0-2.4,1.9-4.5,4.3-4.5c3.1,0,4.1,2.1,4.3,4.5H249.9z M258.3,178.9c-0.1,1.1-1.5,3-4,3c-3,0-4.5-1.9-4.5-5
				H261c0-5.5-2.1-8.9-6.7-8.9c-5.2,0-7.4,3.9-7.4,8.5c0,4.5,2.5,7.8,6.9,7.8c2.5,0,3.5-0.5,4.1-1.1c1.9-1.3,2.6-3.5,2.8-4.1
				L258.3,178.9L258.3,178.9z"/>
			<path d="M277.4,183.8h-2.5v-9.6c0-2.6-0.8-4-3.3-4c-1.5,0-4.1,0.9-4.1,5.2v8.4H265v-15.5h2.5v2.1h0.1c0.5-0.9,2-2.6,4.7-2.6
				c2.4,0,5.4,1,5.4,5.4L277.4,183.8L277.4,183.8z"/>
			<path d="M284.9,170.5v10.1c0,1.1,1,1.1,1.5,1.1h0.9v2c-0.9,0.1-1.6,0.1-1.9,0.1c-2.5,0-3.1-1.5-3.1-3.3v-10.2h-2v-2.1h2.1v-4.3
				h2.5v4.3h2.5v2.1h-2.5V170.5z"/>
			<path d="M312.5,168.9c-0.1-3.3-2.9-4.3-5.2-4.3c-1.9,0-4.9,0.5-4.9,3.8c0,1.9,1.3,2.4,2.5,2.6l6,1.4c2.8,0.6,4.9,2.3,4.9,5.7
				c0,5-4.7,6.4-8.3,6.4c-3.9,0-5.5-1.1-6.4-2c-1.9-1.6-2.1-3.4-2.1-5.4h2.6c0,3.9,3.1,4.9,5.9,4.9c2.1,0,5.5-0.5,5.5-3.5
				c0-2.1-1-2.9-4.5-3.8l-4.3-1c-1.4-0.4-4.5-1.3-4.5-5c0-3.3,2.1-6.5,7.3-6.5c7.4,0,8.2,4.4,8.2,6.8L312.5,168.9L312.5,168.9z"/>
			<path d="M321.4,176.1c0-2.1,0.8-5.9,4.5-5.9c3.8,0,4.5,3.9,4.5,5.9c0,2.1-0.8,5.9-4.5,5.9C322.1,181.9,321.4,178.2,321.4,176.1z
				 M318.7,176.1c0,4,2.3,8.2,7.2,8.2s7.2-4.1,7.2-8.2c0-4-2.3-8.2-7.2-8.2C321,168,318.7,172.1,318.7,176.1z"/>
			<path d="M346.1,173.5c-0.4-2.1-1.5-3.3-3.6-3.3c-3.1,0-4.1,3.1-4.1,5.9c0,2.6,0.6,5.9,4.1,5.9c1.8,0,3.1-1.3,3.6-3.6h2.5
				c-0.3,2.5-1.8,5.9-6.3,5.9c-4.3,0-6.9-3.3-6.9-7.8c0-4.8,2.3-8.5,7.4-8.5c4,0,5.5,2.9,5.8,5.7L346.1,173.5L346.1,173.5z"/>
			<path d="M354.6,183.8H352v-15.5h2.5L354.6,183.8L354.6,183.8z M351.9,165.6v-2.9h2.5v2.9H351.9z"/>
			<path d="M361.1,174.9c0-2.4,1.9-4.5,4.3-4.5c3.1,0,4.1,2.1,4.3,4.5H361.1z M369.5,178.9c-0.1,1.1-1.5,3-4,3c-3,0-4.5-1.9-4.5-5
				h11.2c0-5.5-2.1-8.9-6.7-8.9c-5.2,0-7.4,3.9-7.4,8.5c0,4.5,2.5,7.8,6.9,7.8c2.5,0,3.5-0.5,4.1-1.1c1.9-1.3,2.6-3.5,2.8-4.1
				L369.5,178.9L369.5,178.9z"/>
			<path d="M379.2,170.5v10.1c0,1.1,1,1.1,1.5,1.1h0.9v2c-0.9,0.1-1.6,0.1-1.9,0.1c-2.5,0-3.1-1.5-3.1-3.3v-10.2h-2v-2.1h2.1v-4.3
				h2.5v4.3h2.5v2.1h-2.5V170.5z"/>
			<path d="M387.4,183.8h-2.5v-15.5h2.5V183.8z M384.9,165.6v-2.9h2.5v2.9H384.9z"/>
			<path d="M394,174.9c0-2.4,1.9-4.5,4.3-4.5c3.1,0,4.1,2.1,4.3,4.5H394z M402.3,178.9c-0.1,1.1-1.5,3-4,3c-3,0-4.5-1.9-4.5-5H405
				c0-5.5-2.1-8.9-6.7-8.9c-5.2,0-7.4,3.9-7.4,8.5c0,4.5,2.5,7.8,6.9,7.8c2.5,0,3.5-0.5,4.1-1.1c1.9-1.3,2.6-3.5,2.8-4.1
				L402.3,178.9L402.3,178.9z"/>
			<path d="M417.7,172.8c0-1-0.4-2.5-3.6-2.5c-0.9,0-3.1,0.3-3.1,2.1c0,1.3,0.9,1.5,2.9,2.1l2.5,0.6c3.1,0.9,4.3,2,4.3,4.1
				c0,3.1-2.6,5.2-6.2,5.2c-6.2,0-6.5-3.5-6.7-5.4h2.5c0.1,1.1,0.5,3.1,4.1,3.1c1.9,0,3.5-0.8,3.5-2.5c0-1.3-0.9-1.6-3.1-2.1l-3-0.8
				c-2.1-0.5-3.5-1.6-3.5-3.8c0-3.4,2.9-4.9,5.9-4.9c5.5,0,5.9,4.1,5.9,4.9h-2.4L417.7,172.8L417.7,172.8z"/>
		</g>
		<g>
			<rect x="-267.9" y="123.5" class="st2" width="112.4" height="64.4"/>
			<g>
				<polygon class="st8" points="-239.3,162.2 -254,162.2 -254,149.8 -239.3,149.8 -239.3,149.8 -239.3,135 -226.8,135 
					-226.8,149.8 -226.8,149.8 -212.2,149.8 -212.2,162.2 -226.8,162.2 -226.8,162.2 -226.8,176.9 -239.3,176.9 				"/>
				<g>
					<path class="st8" d="M-192.8,155.8c0-9.8,7.9-17.6,17.6-17.6c2.1,0,4.1,0.4,6.2,1.1c-3.5-2.9-8.2-4.5-13.2-4.5
						c-11.7,0-21.2,9.6-21.2,21.2s9.6,21.2,21.2,21.2c5.2,0,9.8-1.9,13.6-4.9c-2,0.9-4.1,1.3-6.5,1.3
						C-184.9,173.4-192.8,165.5-192.8,155.8z"/>
				</g>
				<rect x="-263" y="128.4" class="st9" width="102.9" height="55.2"/>
			</g>
		</g>
	</g>
</g>
<g id="Combo" class="st0">
	<g class="st1">
		<rect x="99" y="-3.6" class="st2" width="113.9" height="65.2"/>
		<g>
			<polygon class="st7" points="127.8,35.6 113.1,35.6 113.1,23 127.8,23 127.8,23 127.8,8.1 140.6,8.1 140.6,23 140.6,23 155.3,23 
				155.3,35.6 140.6,35.6 140.6,35.6 140.6,50.4 127.8,50.4 			"/>
			<g>
				<path class="st7" d="M175.1,29.2c0-9.9,8-17.8,17.8-17.8c2.2,0,4.2,0.4,6.2,1.1c-3.6-2.9-8.3-4.6-13.4-4.6
					c-11.8,0-21.5,9.7-21.5,21.5s9.7,21.5,21.5,21.5c5.2,0,9.9-1.9,13.8-5c-2,0.9-4.2,1.3-6.6,1.3C183,47,175.1,39,175.1,29.2z"/>
			</g>
			<rect x="103.9" y="1.3" class="st9" width="104.3" height="55.9"/>
		</g>
	</g>
</g>
</svg>
