<svg xmlns="http://www.w3.org/2000/svg" viewBox="-2 -2 52 48"><defs><style>.cls-1{fill:#418fde;}</style></defs><title>Asset 947</title><g data-name="Layer 2" id="Layer_2"><g id="Icons"><path d="M47.06,0H18.94A.97228.97228,0,0,0,18,1V26h6a5,5,0,0,1,0,10H18v5a.97224.97224,0,0,0,.94,1H39V35.78A2.78689,2.78689,0,0,1,41.78,33H48V1A.97228.97228,0,0,0,47.06,0ZM42,23H24a1,1,0,0,1,0-2H42a1,1,0,0,1,0,2Zm0-6H24a1,1,0,0,1,0-2H42a1,1,0,0,1,0,2Zm0-6H24a1,1,0,0,1,0-2H42a1,1,0,0,1,0,2Z" fill="param(fill)" stroke="param(outline)" stroke-width="param(outline-width) 0" /><path d="M41.78,35a.781.781,0,0,0-.78.78V42l7-7H41.78Z" fill="param(fill)" stroke="param(outline)" stroke-width="param(outline-width) 0" /><path d="M24,29H15V20a2,2,0,0,0-4,0v9H2a2,2,0,0,0,0,4h9v9a2,2,0,0,0,4,0V33h9a2,2,0,0,0,0-4Z" fill="param(fill)" stroke="param(outline)" stroke-width="param(outline-width) 0" /></g></g></svg>