<svg xmlns="http://www.w3.org/2000/svg" viewBox="-2 -2 28 52"><defs><style>.cls-1{fill:#418fde;}</style></defs><title>Asset 775</title><g data-name="Layer 2" id="Layer_2"><g id="Icons"><rect fill="param(fill)" height="32" rx="1" stroke="param(outline)" stroke-width="param(outline-width) 0" width="24" y="8" /><path d="M24,3V1.5a1.5,1.5,0,0,0-3,0V3H17V1.5a1.5,1.5,0,0,0-3,0V3l-4-.00012V1.5a1.5,1.5,0,0,0-3,0V2.99988L3,2.99976V1.5a1.5,1.5,0,0,0-3,0v2l.0014.01392v1.486a1.00006,1.00006,0,0,0,1,1L23.00128,6a1,1,0,0,0,1-1V3Z" fill="param(fill)" stroke="param(outline)" stroke-width="param(outline-width) 0" /><path d="M23.99988,43.00012a1,1,0,0,0-1-1L1,42a1,1,0,0,0-1,1v2H.00128v1.5a1.5,1.5,0,0,0,3,0V45h4v1.5a1.5,1.5,0,0,0,3,0V45h4v1.5a1.5,1.5,0,0,0,3,0V45l4,.00012V46.5a1.5,1.5,0,0,0,3,0v-2l-.0014-.01392Z" fill="param(fill)" stroke="param(outline)" stroke-width="param(outline-width) 0" /></g></g></svg>