<svg xmlns="http://www.w3.org/2000/svg" viewBox="-2 -2 52 52"><defs><style>.cls-1{fill:#418fde;}</style></defs><title>Asset 800</title><g data-name="Layer 2" id="Layer_2"><g id="Icons"><path d="M47,12H32V33a8,8,0,0,1-16,0V12H1a1.00291,1.00291,0,0,0-1,1V47a1.00291,1.00291,0,0,0,1,1H47a1.00291,1.00291,0,0,0,1-1V13A1.00291,1.00291,0,0,0,47,12Z" fill="param(fill)" stroke="param(outline)" stroke-width="param(outline-width) 0" /><path d="M24,37a4.98641,4.98641,0,0,0,2.97253-9H27V3a3,3,0,0,0-6,0V28h.02747A4.98641,4.98641,0,0,0,24,37Z" fill="param(fill)" stroke="param(outline)" stroke-width="param(outline-width) 0" /></g></g></svg>