<svg xmlns="http://www.w3.org/2000/svg" viewBox="-2 -2 52 52"><defs><style>.cls-1{fill:#418fde;}</style></defs><title>Asset 847</title><g data-name="Layer 2" id="Layer_2"><g id="Icons"><path d="M10,20A10,10,0,1,0,0,10,10.00362,10.00362,0,0,0,10,20ZM9,4a1,1,0,0,1,2,0v8a1,1,0,0,1-2,0Zm1,11a1,1,0,1,1-1,1A1.00288,1.00288,0,0,1,10,15Z" fill="param(fill)" stroke="param(outline)" stroke-width="param(outline-width) 0" /><path d="M0,24v7a7.9979,7.9979,0,0,1,8,8v9h8V39a8,8,0,0,1,16,0v9h8V39a7.9979,7.9979,0,0,1,8-8V24Z" fill="param(fill)" stroke="param(outline)" stroke-width="param(outline-width) 0" /></g></g></svg>