<svg xmlns="http://www.w3.org/2000/svg" viewBox="-2 -2 52 52"><defs><style>.cls-1{fill:#418fde;}</style></defs><title>Asset 834</title><g data-name="Layer 2" id="Layer_2"><g id="Icons"><path d="M39.39,17.61l-.73.73-3.93,3.93017L22,35.0001H39V24.57017a9.51789,9.51789,0,0,1,3,6.92993v10.5a3,3,0,0,0,6,0v-10.5A15.51866,15.51866,0,0,0,39.39,17.61Z" fill="param(fill)" stroke="param(outline)" stroke-width="param(outline-width) 0" /><path d="M21,30.34l8.34-8.33985.03-.03,2.6-2.59985h0l3.14-3.14014a15.00022,15.00022,0,0,0-2.61-.23H3a3,3,0,0,0,0,6H21Z" fill="param(fill)" stroke="param(outline)" stroke-width="param(outline-width) 0" /><rect fill="param(fill)" height="9" stroke="param(outline)" stroke-width="param(outline-width) 0" width="18" x="21" y="39.0001" /><path d="M29.5,13.98008a6.50288,6.50288,0,0,0,6.33-7.98H23.16a6.50288,6.50288,0,0,0,6.34,7.98Z" fill="param(fill)" stroke="param(outline)" stroke-width="param(outline-width) 0" /><path d="M24.44446,4.0001H34.55554A1.41677,1.41677,0,0,0,36,2.61265V1.3878A1.42411,1.42411,0,0,0,34.39606.00865L24.28491,1.088A1.409,1.409,0,0,0,23,2.4669v.14575A1.41677,1.41677,0,0,0,24.44446,4.0001Z" fill="param(fill)" stroke="param(outline)" stroke-width="param(outline-width) 0" /></g></g></svg>