<svg xmlns="http://www.w3.org/2000/svg" viewBox="-2 -2 38 52"><defs><style>.cls-1{fill:#418fde;}</style></defs><title>Asset 679</title><g data-name="Layer 2" id="Layer_2"><g id="Icons"><path d="M16,6.5a6.5,6.5,0,0,0-13,0V31.57715A9.49838,9.49838,0,1,0,19,38.5a9.44953,9.44953,0,0,0-3-6.92285ZM9.5,45A6.49635,6.49635,0,0,1,5.439,33.43018L6,32.98V6.5a3.5,3.5,0,0,1,7,0V32.98l.561.4502A6.49635,6.49635,0,0,1,9.5,45Z" fill="param(fill)" stroke="param(outline)" stroke-width="param(outline-width) 0" /><path d="M11,34.79663V25.5a1.5,1.5,0,0,0-3,0v9.29663a4,4,0,1,0,3,0Z" fill="param(fill)" stroke="param(outline)" stroke-width="param(outline-width) 0" /><path d="M32.5,10.00006h-12a1.5,1.5,0,0,0,0,3h12a1.5,1.5,0,0,0,0-3Z" fill="param(fill)" stroke="param(outline)" stroke-width="param(outline-width) 0" /></g></g></svg>