<svg xmlns="http://www.w3.org/2000/svg" viewBox="-2 -2 34 52"><defs><style>.cls-1{fill:#418fde;}</style></defs><title>Asset 779</title><g data-name="Layer 2" id="Layer_2"><g id="Icons"><path d="M14,12H8a7.99778,7.99778,0,0,0-8,8V46a2.00591,2.00591,0,0,0,2,2H28a2.00591,2.00591,0,0,0,2-2V28A15.99552,15.99552,0,0,0,14,12ZM26,34.5a2.5,2.5,0,0,1-5,0v-9a2.5,2.5,0,1,1,5,0Z" fill="param(fill)" stroke="param(outline)" stroke-width="param(outline-width) 0" /><path d="M4.5,10h12a1.5,1.5,0,0,0,0-3H16V2a2,2,0,0,0-2-2H7A2,2,0,0,0,5,2V7H4.5a1.5,1.5,0,0,0,0,3Z" fill="param(fill)" stroke="param(outline)" stroke-width="param(outline-width) 0" /></g></g></svg>