<svg xmlns="http://www.w3.org/2000/svg" viewBox="-2 -2 52 52"><defs><style>.cls-1{fill:#418fde;}</style></defs><title>Asset 871</title><g data-name="Layer 2" id="Layer_2"><g id="Icons"><path d="M37,8V7.5a1.5,1.5,0,0,0-3,0V48h3V16H48V8Z" fill="param(fill)" stroke="param(outline)" stroke-width="param(outline-width) 0" /><path d="M30,6H2A2.0001,2.0001,0,0,0,0,8V30H32V8A2.0001,2.0001,0,0,0,30,6Z" fill="param(fill)" stroke="param(outline)" stroke-width="param(outline-width) 0" /><path d="M6,4H26a2,2,0,0,0,0-4H6A2,2,0,0,0,6,4Z" fill="param(fill)" stroke="param(outline)" stroke-width="param(outline-width) 0" /><path d="M0,48H12V38a2.00583,2.00583,0,0,1,2-2h4a2.00583,2.00583,0,0,1,2,2V48H32V32H0Z" fill="param(fill)" stroke="param(outline)" stroke-width="param(outline-width) 0" /></g></g></svg>