<svg xmlns="http://www.w3.org/2000/svg" viewBox="-2 -2 36 51"><defs><style>.cls-1{fill:#418fde;}</style></defs><title>Asset 723</title><g data-name="Layer 2" id="Layer_2"><g id="Icons"><path d="M26,21c0-6.84131-5.58887-12-13-12S0,14.15869,0,21a2,2,0,0,0,4,0,7.44854,7.44854,0,0,1,4-6.74451V45a2,2,0,0,0,4,0V31h2V45a2,2,0,0,0,4,0V14.25537A7.44889,7.44889,0,0,1,22,21a2,2,0,0,0,4,0Z" fill="param(fill)" stroke="param(outline)" stroke-width="param(outline-width) 0" /><circle cx="19" cy="4" fill="param(fill)" r="4" stroke="param(outline)" stroke-width="param(outline-width) 0" /><path d="M27.98242,27.5a3.96729,3.96729,0,0,0-4.02051,4,1.5,1.5,0,0,0,3,0,1.02122,1.02122,0,0,1,2.042,0v14a1.5,1.5,0,1,0,3,0v-14A3.96812,3.96812,0,0,0,27.98242,27.5Z" fill="param(fill)" stroke="param(outline)" stroke-width="param(outline-width) 0" /></g></g></svg>