<svg xmlns="http://www.w3.org/2000/svg" viewBox="-2 -2 22 52"><defs><style>.cls-1{fill:#418fde;}</style></defs><title>Asset 782</title><g data-name="Layer 2" id="Layer_2"><g id="Icons"><path d="M17,14H1a1.00288,1.00288,0,0,0-1,1V45a3.00887,3.00887,0,0,0,3,3H15a3.00887,3.00887,0,0,0,3-3V15A1.00288,1.00288,0,0,0,17,14ZM10,33H4a1,1,0,0,1,0-2h6a1,1,0,0,1,0,2Zm0-5H4a1,1,0,0,1,0-2h6a1,1,0,0,1,0,2Zm0-5H4a1,1,0,0,1,0-2h6a1,1,0,0,1,0,2Z" fill="param(fill)" stroke="param(outline)" stroke-width="param(outline-width) 0" /><path d="M17,9H16L11,4V2A2,2,0,0,0,7,2V4L2,9H1a1,1,0,0,0-1,1v1a1,1,0,0,0,1,1H17a1,1,0,0,0,1-1V10A1,1,0,0,0,17,9Z" fill="param(fill)" stroke="param(outline)" stroke-width="param(outline-width) 0" /></g></g></svg>