<svg xmlns="http://www.w3.org/2000/svg" viewBox="-2 -2 29 52"><defs><style>.cls-1{fill:#418fde;}</style></defs><title>Asset 730</title><g data-name="Layer 2" id="Layer_2"><g id="Icons"><path d="M12.99121,10C5.46387,10,0,15.04688,0,22a2,2,0,0,0,4,0,7.84807,7.84807,0,0,1,3.99121-7V46a2,2,0,0,0,4,0V31h2V46a2,2,0,1,0,4,0V14.9986A7.84744,7.84744,0,0,1,21.9873,22a2,2,0,0,0,4,0C25.9873,15.04688,20.52148,10,12.99121,10Z" fill="param(fill)" stroke="param(outline)" stroke-width="param(outline-width) 0" /><circle cx="12.99121" cy="4" fill="param(fill)" r="4" stroke="param(outline)" stroke-width="param(outline-width) 0" /></g></g></svg>