<svg xmlns="http://www.w3.org/2000/svg" viewBox="-2 -2 52 40"><defs><style>.cls-1{fill:#418fde;}</style></defs><title>Asset 944</title><g data-name="Layer 2" id="Layer_2"><g id="Icons"><path d="M18,30H6V6H18a3,3,0,0,0,0-6H5A5.00588,5.00588,0,0,0,0,5V31a5.00588,5.00588,0,0,0,5,5H18a3,3,0,0,0,0-6Z" fill="param(fill)" stroke="param(outline)" stroke-width="param(outline-width) 0" /><path d="M47.12109,15.87891l-13-13a2.99967,2.99967,0,0,0-4.24218,4.24218L37.75781,15H14a3,3,0,0,0,0,6H37.75781l-7.8789,7.87891a2.99967,2.99967,0,1,0,4.24218,4.24218l13-13A2.99889,2.99889,0,0,0,47.12109,15.87891Z" fill="param(fill)" stroke="param(outline)" stroke-width="param(outline-width) 0" /></g></g></svg>