<svg xmlns="http://www.w3.org/2000/svg" viewBox="-2 -2 52 52"><defs><style>.cls-1{fill:#418fde;}</style></defs><title>Asset 670</title><g data-name="Layer 2" id="Layer_2"><g id="Icons"><path d="M24,17.99438c-5.98633,0-10.5,4.084-10.5,9.5a1.5,1.5,0,0,0,3,0A6.2304,6.2304,0,0,1,20,21.94421v9.056h0v15.5a1.5,1.5,0,0,0,3,0v-12.5h2v12.5a1.5,1.5,0,0,0,3,0v-24.556a6.2304,6.2304,0,0,1,3.5,5.55017,1.5,1.5,0,0,0,3,0C34.5,22.07837,29.98633,17.99438,24,17.99438Z" fill="param(fill)" stroke="param(outline)" stroke-width="param(outline-width) 0" /><circle cx="24.05176" cy="13.00024" fill="param(fill)" r="3" stroke="param(outline)" stroke-width="param(outline-width) 0" /><path d="M46.75684,12.83911l-21.5-12.5a2.49865,2.49865,0,0,0-2.51368,0l-21.5,12.5A2.49954,2.49954,0,0,0,0,15.00024v30.5a2.5,2.5,0,0,0,5,0V16.43872L24,5.39185,43,16.43872V45.50024a2.5,2.5,0,0,0,5,0v-30.5A2.49954,2.49954,0,0,0,46.75684,12.83911Z" fill="param(fill)" stroke="param(outline)" stroke-width="param(outline-width) 0" /></g></g></svg>