<svg xmlns="http://www.w3.org/2000/svg" viewBox="-2 -2 32 52"><defs><style>.cls-1{fill:#418fde;}</style></defs><title>Asset 917</title><g data-name="Layer 2" id="Layer_2"><g id="Icons"><path d="M26,0H2A2.00579,2.00579,0,0,0,0,2V46a2.00583,2.00583,0,0,0,2,2H26a2.00583,2.00583,0,0,0,2-2V2A2.00579,2.00579,0,0,0,26,0ZM11,3h6a1,1,0,0,1,0,2H11a1,1,0,0,1,0-2Zm3,42a2,2,0,1,1,2-2A2.00583,2.00583,0,0,1,14,45Zm10-7H4V8H24Z" fill="param(fill)" stroke="param(outline)" stroke-width="param(outline-width) 0" /></g></g></svg>