<svg xmlns="http://www.w3.org/2000/svg" viewBox="-2 -2 31 52"><defs><style>.cls-1{fill:#418fde;}</style></defs><title>Asset 810</title><g data-name="Layer 2" id="Layer_2"><g id="Icons"><path d="M27.913,26.63257A.636.636,0,0,0,27.23255,26H.68226a.636.636,0,0,0-.68042.63269A13.49023,13.49023,0,0,0,8.9574,38v6h-1a2,2,0,0,0,0,4h12a2,2,0,1,0,0-4h-1V38.00049A13.48672,13.48672,0,0,0,27.913,26.63257Z" fill="param(fill)" stroke="param(outline)" stroke-width="param(outline-width) 0" /><path d="M2.9574,4V23a1.00288,1.00288,0,0,0,1,1h20a1.00288,1.00288,0,0,0,1-1V4a2,2,0,0,0,0-4h-22a2,2,0,0,0,0,4Zm4.5,2h3.5a1,1,0,0,1,0,2H8.86731A1.49822,1.49822,0,1,1,7.4574,6Z" fill="param(fill)" stroke="param(outline)" stroke-width="param(outline-width) 0" /></g></g></svg>