<svg xmlns="http://www.w3.org/2000/svg" viewBox="-2 -2 52 51"><defs><style>.cls-1{fill:#418fde;}</style></defs><title>Asset 704</title><g data-name="Layer 2" id="Layer_2"><g id="Icons"><path d="M24.5,40h-3a3.5,3.5,0,0,0,0,7h3a3.5,3.5,0,0,0,0-7Z" fill="param(fill)" stroke="param(outline)" stroke-width="param(outline-width) 0" /><path d="M30.5,30h-9a3.5,3.5,0,0,0,0,7h9a3.5,3.5,0,0,0,0-7Z" fill="param(fill)" stroke="param(outline)" stroke-width="param(outline-width) 0" /><path d="M32,23.5A3.50017,3.50017,0,0,0,28.5,20h-16a3.5,3.5,0,0,0,0,7h16A3.50017,3.50017,0,0,0,32,23.5Z" fill="param(fill)" stroke="param(outline)" stroke-width="param(outline-width) 0" /><path d="M39.5,10h-26a3.5,3.5,0,0,0,0,7h26a3.5,3.5,0,0,0,0-7Z" fill="param(fill)" stroke="param(outline)" stroke-width="param(outline-width) 0" /><path d="M44.5,0H3.5a3.5,3.5,0,0,0,0,7h41a3.5,3.5,0,0,0,0-7Z" fill="param(fill)" stroke="param(outline)" stroke-width="param(outline-width) 0" /></g></g></svg>