<svg xmlns="http://www.w3.org/2000/svg" viewBox="-2 -2 36 52"><defs><style>.cls-1{fill:#418fde;}</style></defs><title>Asset 887</title><g data-name="Layer 2" id="Layer_2"><g id="Icons"><path d="M30,6H2A2.00583,2.00583,0,0,0,0,8V30H32V8A2.00583,2.00583,0,0,0,30,6ZM15,21.5a3.5,3.5,0,0,1-7,0V14a1,1,0,0,1,2,0v7.5a1.5,1.5,0,0,0,3,0V14a1,1,0,0,1,2,0ZM24,24a.99518.99518,0,0,1-.77.97A.90621.90621,0,0,1,23,25a.999.999,0,0,1-.89-.55L19,18.24V24a1,1,0,0,1-2,0V14a.99918.99918,0,0,1,1.89-.44995L22,19.76V14a1,1,0,0,1,2,0Z" fill="param(fill)" stroke="param(outline)" stroke-width="param(outline-width) 0" /><path d="M6,4H26a2,2,0,0,0,0-4H6A2,2,0,0,0,6,4Z" fill="param(fill)" stroke="param(outline)" stroke-width="param(outline-width) 0" /><path d="M0,48H12V38a2.00583,2.00583,0,0,1,2-2h4a2.00583,2.00583,0,0,1,2,2V48H32V32H0Z" fill="param(fill)" stroke="param(outline)" stroke-width="param(outline-width) 0" /></g></g></svg>