<svg xmlns="http://www.w3.org/2000/svg" viewBox="-2 -2 52 51"><defs><style>.cls-1{fill:#418fde;}</style></defs><title>Asset 888</title><g data-name="Layer 2" id="Layer_2"><g id="Icons"><path d="M46.5,44.99756H1.5a1.5,1.5,0,0,0,0,3h45a1.5,1.5,0,0,0,0-3Z" fill="param(fill)" stroke="param(outline)" stroke-width="param(outline-width) 0" /><path d="M5.5,42.99756h37a1.5,1.5,0,0,0,0-3H5.5a1.5,1.5,0,0,0,0,3Z" fill="param(fill)" stroke="param(outline)" stroke-width="param(outline-width) 0" /><rect fill="param(fill)" height="21" stroke="param(outline)" stroke-width="param(outline-width) 0" width="4" x="10" y="16.99756" /><rect fill="param(fill)" height="21" stroke="param(outline)" stroke-width="param(outline-width) 0" width="4" x="18" y="16.99756" /><rect fill="param(fill)" height="21" stroke="param(outline)" stroke-width="param(outline-width) 0" width="4" x="26" y="16.99756" /><rect fill="param(fill)" height="21" stroke="param(outline)" stroke-width="param(outline-width) 0" width="4" x="34" y="16.99756" /><path d="M5.26,14.99756H42.74a1.0153,1.0153,0,0,0,.55-1.87012l-18.74-12.97a1.03941,1.03941,0,0,0-1.1001,0l-18.74,12.97A1.0153,1.0153,0,0,0,5.26,14.99756Zm18.74-9a3,3,0,1,1-3,3A2.99594,2.99594,0,0,1,24,5.99756Z" fill="param(fill)" stroke="param(outline)" stroke-width="param(outline-width) 0" /></g></g></svg>