<svg xmlns="http://www.w3.org/2000/svg" viewBox="-2 -2 46 48"><defs><style>.cls-1{fill:#418fde;}</style></defs><title>Asset 954</title><g data-name="Layer 2" id="Layer_2"><g id="Icons"><path d="M34,0H8A7.99778,7.99778,0,0,0,0,8V27a7.99786,7.99786,0,0,0,8,8H22l8.81,8.81006a.69913.69913,0,0,0,1.19-.5V35h2a7.99786,7.99786,0,0,0,8-8V8A7.99778,7.99778,0,0,0,34,0ZM21,28a2,2,0,1,1,2-2A2.00591,2.00591,0,0,1,21,28Zm2-9a2,2,0,0,1-4,0V8a2,2,0,0,1,4,0Z" fill="param(fill)" stroke="param(outline)" stroke-width="param(outline-width) 0" /></g></g></svg>