<svg xmlns="http://www.w3.org/2000/svg" viewBox="-2 -2 36 48"><defs><style>.cls-1{fill:#418fde;}</style></defs><title>Asset 959</title><g data-name="Layer 2" id="Layer_2"><g id="Icons"><path d="M30,0H25V3H22V6h3V9H22v3h3v9a1.00288,1.00288,0,0,1-1,1H19a1.00288,1.00288,0,0,1-1-1V15h3V12H18V9h3V6H18V3h3V0H2A2.00583,2.00583,0,0,0,0,2V42a2.00591,2.00591,0,0,0,2,2H21V37a3.999,3.999,0,0,1,4-4h7V2A2.00583,2.00583,0,0,0,30,0Z" fill="param(fill)" stroke="param(outline)" stroke-width="param(outline-width) 0" /><path d="M23,37v7l9-9H25A2.00583,2.00583,0,0,0,23,37Z" fill="param(fill)" stroke="param(outline)" stroke-width="param(outline-width) 0" /><rect fill="param(fill)" height="3" stroke="param(outline)" stroke-width="param(outline-width) 0" width="3" x="20" y="17" /></g></g></svg>