<svg xmlns="http://www.w3.org/2000/svg" viewBox="-2 -2 52 52"><defs><style>.cls-1{fill:#418fde;}</style></defs><title>Asset 942</title><g data-name="Layer 2" id="Layer_2"><g id="Icons"><path d="M44,19.99609h-.001l-16.004.00312L27.9917,3.999a3.99968,3.99968,0,0,0-4-3.999h-.00049A4,4,0,0,0,19.9917,4.001l.0033,15.99981-15.996.00312a4,4,0,0,0,.001,8h.001l15.99572-.00312L20,44.001A3.99968,3.99968,0,0,0,24,48h.001A3.99988,3.99988,0,0,0,28,43.999l-.0033-15.99981L44.001,27.99609a4,4,0,0,0-.001-8Z" fill="param(fill)" stroke="param(outline)" stroke-width="param(outline-width) 0" /></g></g></svg>