<svg xmlns="http://www.w3.org/2000/svg" viewBox="-2 -2 52 51"><defs><style>.cls-1{fill:#418fde;}</style></defs><title>Asset 734</title><g data-name="Layer 2" id="Layer_2"><g id="Icons"><path d="M8.38,33.8,1.2,40.98A4.11537,4.11537,0,0,0,7.02,46.8l7.18-7.18A24.00963,24.00963,0,0,1,8.38,33.8Z" fill="param(fill)" stroke="param(outline)" stroke-width="param(outline-width) 0" /><path d="M22,20H18a1.003,1.003,0,0,0-1,1v4.94a12.5741,12.5741,0,0,0,6,5.52V21A1.003,1.003,0,0,0,22,20Z" fill="param(fill)" stroke="param(outline)" stroke-width="param(outline-width) 0" /><path d="M38,14H34a1.003,1.003,0,0,0-1,1V31.46a12.57419,12.57419,0,0,0,6-5.52V15A1.003,1.003,0,0,0,38,14Z" fill="param(fill)" stroke="param(outline)" stroke-width="param(outline-width) 0" /><path d="M30,17H26a1.003,1.003,0,0,0-1,1V32.14a12.68034,12.68034,0,0,0,6,0V18A1.003,1.003,0,0,0,30,17Z" fill="param(fill)" stroke="param(outline)" stroke-width="param(outline-width) 0" /><path d="M28,0A20,20,0,1,0,48,20,19.9945,19.9945,0,0,0,28,0ZM39,30.18A15,15,0,0,1,13,20,15,15,0,1,1,39,30.18Z" fill="param(fill)" stroke="param(outline)" stroke-width="param(outline-width) 0" /></g></g></svg>