<svg xmlns="http://www.w3.org/2000/svg" viewBox="-2 -2 48 48"><defs><style>.cls-1{fill:#418fde;}</style></defs><title>Asset 801</title><g data-name="Layer 2" id="Layer_2"><g id="Icons"><path d="M0,39.08032v3.45716A1.482,1.482,0,0,0,1.5,44,1.482,1.482,0,0,0,3,42.53748V41H16v1.53748a1.50048,1.50048,0,0,0,3,0V7H0ZM14,23a1,1,0,0,1,2,0v3a1,1,0,0,1-2,0Z" fill="param(fill)" stroke="param(outline)" stroke-width="param(outline-width) 0" /><path d="M14,0H5A5,5,0,0,0,0,5H19A5,5,0,0,0,14,0Z" fill="param(fill)" stroke="param(outline)" stroke-width="param(outline-width) 0" /><path d="M25,39.08032v3.45716a1.50048,1.50048,0,0,0,3,0V41H41v1.53748a1.50048,1.50048,0,0,0,3,0V7H25ZM39,23a1,1,0,0,1,2,0v3a1,1,0,0,1-2,0Z" fill="param(fill)" stroke="param(outline)" stroke-width="param(outline-width) 0" /><path d="M39,0H30a5,5,0,0,0-5,5H44A5,5,0,0,0,39,0Z" fill="param(fill)" stroke="param(outline)" stroke-width="param(outline-width) 0" /></g></g></svg>