<svg xmlns="http://www.w3.org/2000/svg" viewBox="-2 -2 38 52"><defs><style>.cls-1{fill:#418fde;}</style></defs><title>Asset 945</title><g data-name="Layer 2" id="Layer_2"><g id="Icons"><path d="M27.78,41a.781.781,0,0,0-.78.78V48l7-7H27.78Z" fill="param(fill)" stroke="param(outline)" stroke-width="param(outline-width) 0" /><path d="M25,10V1a1.00291,1.00291,0,0,0-1-1H1A1.00291,1.00291,0,0,0,0,1V34a1.00291,1.00291,0,0,0,1,1H6V14a3.99891,3.99891,0,0,1,4-4Z" fill="param(fill)" stroke="param(outline)" stroke-width="param(outline-width) 0" /><path d="M33,13H10a1.00291,1.00291,0,0,0-1,1V47a1.00291,1.00291,0,0,0,1,1H25V41.78A2.78688,2.78688,0,0,1,27.78,39H34V14A1.00291,1.00291,0,0,0,33,13ZM29,35H14a1,1,0,0,1,0-2H29a1,1,0,0,1,0,2Zm0-6H14a1,1,0,0,1,0-2H29a1,1,0,0,1,0,2Zm0-6H14a1,1,0,0,1,0-2H29a1,1,0,0,1,0,2Z" fill="param(fill)" stroke="param(outline)" stroke-width="param(outline-width) 0" /></g></g></svg>