<svg xmlns="http://www.w3.org/2000/svg" viewBox="-2 -2 52 52"><defs><style>.cls-1{fill:#418fde;}</style></defs><title>Asset 674</title><g data-name="Layer 2" id="Layer_2"><g id="Icons"><path d="M25,22.5A22.5,22.5,0,0,0,2.5,0H0V10.5A22.5,22.5,0,0,0,22.5,33H25Z" fill="param(fill)" stroke="param(outline)" stroke-width="param(outline-width) 0" /><path d="M43.72876,0A15.72874,15.72874,0,0,0,28,15.72876V25h4.27124A15.72874,15.72874,0,0,0,48,9.27124V0Z" fill="param(fill)" stroke="param(outline)" stroke-width="param(outline-width) 0" /><path d="M30,28a2.0001,2.0001,0,0,0-2,2V41a3.00328,3.00328,0,0,1-3,3,2,2,0,0,0,0,4,7.00818,7.00818,0,0,0,7-7V30A2.0001,2.0001,0,0,0,30,28Z" fill="param(fill)" stroke="param(outline)" stroke-width="param(outline-width) 0" /></g></g></svg>