<svg xmlns="http://www.w3.org/2000/svg" viewBox="-2 -2 38 52"><defs><style>.cls-1{fill:#418fde;}</style></defs><title>Asset 685</title><g data-name="Layer 2" id="Layer_2"><g id="Icons"><path d="M17.42993.21a.54506.54506,0,0,0-.85986,0C13.92993,3.53,0,22.46,0,30.97a17,17,0,1,0,34,0C34,22.46,20.07007,3.53,17.42993.21ZM17,43a7.98509,7.98509,0,0,1-8-7.97c0-3.98,6.55005-12.38,7.8-13.93a.25376.25376,0,0,1,.3999,0c1.24,1.55,7.8,9.95,7.8,13.93A7.985,7.985,0,0,1,17,43Z" fill="param(fill)" stroke="param(outline)" stroke-width="param(outline-width) 0" /></g></g></svg>