<svg xmlns="http://www.w3.org/2000/svg" viewBox="-2 -2 52 52"><defs><style>.cls-1{fill:#418fde;}</style></defs><title>Asset 743</title><g data-name="Layer 2" id="Layer_2"><g id="Icons"><path d="M3,0A3,3,0,0,0,0,3V45a3,3,0,0,0,6,0V3A3,3,0,0,0,3,0Z" fill="param(fill)" stroke="param(outline)" stroke-width="param(outline-width) 0" /><path d="M45,0a3,3,0,0,0-3,3V45a3,3,0,0,0,6,0V3A3,3,0,0,0,45,0Z" fill="param(fill)" stroke="param(outline)" stroke-width="param(outline-width) 0" /><path d="M32.12109,14.87891a2.99967,2.99967,0,0,0-4.24218,4.24218L29.75781,21H18.24219l1.8789-1.87891a2.99967,2.99967,0,0,0-4.24218-4.24218l-7,7a2.99889,2.99889,0,0,0,0,4.24218l7,7a2.99967,2.99967,0,0,0,4.24218-4.24218L18.24219,27H29.75781l-1.8789,1.87891a2.99967,2.99967,0,1,0,4.24218,4.24218l7-7a2.99889,2.99889,0,0,0,0-4.24218Z" fill="param(fill)" stroke="param(outline)" stroke-width="param(outline-width) 0" /></g></g></svg>