<svg xmlns="http://www.w3.org/2000/svg" viewBox="-2 -2 52 52"><defs><style>.cls-1{fill:#418fde;}</style></defs><title>Asset 874</title><g data-name="Layer 2" id="Layer_2"><g id="Icons"><path d="M46.5,45H1.5a1.5,1.5,0,0,0,0,3h45a1.5,1.5,0,0,0,0-3Z" fill="param(fill)" stroke="param(outline)" stroke-width="param(outline-width) 0" /><path d="M5.5,43h37a1.5,1.5,0,0,0,0-3H5.5a1.5,1.5,0,0,0,0,3Z" fill="param(fill)" stroke="param(outline)" stroke-width="param(outline-width) 0" /><rect fill="param(fill)" height="21" stroke="param(outline)" stroke-width="param(outline-width) 0" width="4" x="10" y="17" /><rect fill="param(fill)" height="21" stroke="param(outline)" stroke-width="param(outline-width) 0" width="4" x="18" y="17" /><rect fill="param(fill)" height="21" stroke="param(outline)" stroke-width="param(outline-width) 0" width="4" x="26" y="17" /><rect fill="param(fill)" height="21" stroke="param(outline)" stroke-width="param(outline-width) 0" width="4" x="34" y="17" /><path d="M8,15H40a2,2,0,0,0,0-4H25V8h9V2H25V1.5a1.5,1.5,0,0,0-3,0V11H8a2,2,0,0,0,0,4Z" fill="param(fill)" stroke="param(outline)" stroke-width="param(outline-width) 0" /></g></g></svg>