<svg xmlns="http://www.w3.org/2000/svg" viewBox="-2 -2 52 52"><defs><style>.cls-1{fill:#418fde;}</style></defs><title>Asset 899</title><g data-name="Layer 2" id="Layer_2"><g id="Icons"><path d="M24,0A24,24,0,1,0,48,24,24.00619,24.00619,0,0,0,24,0Zm0,43A19,19,0,1,1,43,24,19.00423,19.00423,0,0,1,24,43Z" fill="param(fill)" stroke="param(outline)" stroke-width="param(outline-width) 0" /><path d="M31.5,12A2.501,2.501,0,0,0,29,14.5V21H19V14.5a2.5,2.5,0,0,0-5,0v19a2.5,2.5,0,0,0,5,0V26H29v7.5a2.5,2.5,0,0,0,5,0v-19A2.49235,2.49235,0,0,0,31.5,12Z" fill="param(fill)" stroke="param(outline)" stroke-width="param(outline-width) 0" /></g></g></svg>