<svg xmlns="http://www.w3.org/2000/svg" viewBox="-2 -2 52 52"><defs><style>.cls-1{fill:#418fde;}</style></defs><title>Asset 881</title><g data-name="Layer 2" id="Layer_2"><g id="Icons"><path d="M26,0V48H48V0ZM39,42a2,2,0,0,1-4,0V36a2.00583,2.00583,0,0,1,2-2,2.01434,2.01434,0,0,1,2,2Zm0-15a2,2,0,0,1-4,0V21a2.00583,2.00583,0,0,1,2-2,2.01434,2.01434,0,0,1,2,2Zm0-15a2,2,0,0,1-4,0V6a2.00583,2.00583,0,0,1,2-2,2.01434,2.01434,0,0,1,2,2Z" fill="param(fill)" stroke="param(outline)" stroke-width="param(outline-width) 0" /><path d="M0,32c4.69434,0,9,3.30566,9,8v8h6V40c0-4.69434,4.30566-8,9-8V24H0Z" fill="param(fill)" stroke="param(outline)" stroke-width="param(outline-width) 0" /></g></g></svg>