<svg xmlns="http://www.w3.org/2000/svg" viewBox="-2 -2 52 37"><defs><style>.cls-1{fill:#418fde;}</style></defs><title>Asset 916</title><g data-name="Layer 2" id="Layer_2"><g id="Icons"><path d="M47,27H31a2.01434,2.01434,0,0,1-2,2H19a2.00583,2.00583,0,0,1-2-2H1a1.00308,1.00308,0,0,0-1,1v4a1.00308,1.00308,0,0,0,1,1H47a1.00308,1.00308,0,0,0,1-1V28A1.00308,1.00308,0,0,0,47,27Z" fill="param(fill)" stroke="param(outline)" stroke-width="param(outline-width) 0" /><path d="M7,24H8V5H40V24h5V2a1.98206,1.98206,0,0,0-.15668-.77686A2.00782,2.00782,0,0,0,43.77765.15674,1.98454,1.98454,0,0,0,43,0H5A2.00006,2.00006,0,0,0,3,2V24H7Z" fill="param(fill)" stroke="param(outline)" stroke-width="param(outline-width) 0" /></g></g></svg>