<svg xmlns="http://www.w3.org/2000/svg" viewBox="-2 -2 52 52"><defs><style>.cls-1{fill:#418fde;}</style></defs><title>Asset 829</title><g data-name="Layer 2" id="Layer_2"><g id="Icons"><path d="M12,28a4.01182,4.01182,0,0,0,4,4H32a4,4,0,0,0,0-8H16A4.01182,4.01182,0,0,0,12,28Z" fill="param(fill)" stroke="param(outline)" stroke-width="param(outline-width) 0" /><path d="M24,15a2.0001,2.0001,0,0,0,2-2V2a2,2,0,0,0-4,0V13A2.0001,2.0001,0,0,0,24,15Z" fill="param(fill)" stroke="param(outline)" stroke-width="param(outline-width) 0" /><path d="M36,19a1.99348,1.99348,0,0,0,1.41406-.58594l7-7a1.99978,1.99978,0,0,0-2.82812-2.82812l-7,7A2,2,0,0,0,36,19Z" fill="param(fill)" stroke="param(outline)" stroke-width="param(outline-width) 0" /><path d="M10.58594,18.41406a1.99978,1.99978,0,0,0,2.82812-2.82812l-7-7a1.99978,1.99978,0,0,0-2.82812,2.82812Z" fill="param(fill)" stroke="param(outline)" stroke-width="param(outline-width) 0" /><rect fill="param(fill)" height="13" rx="2" stroke="param(outline)" stroke-width="param(outline-width) 0" width="48" y="35" /></g></g></svg>