<svg xmlns="http://www.w3.org/2000/svg" viewBox="-2 -2 46 44"><defs><style>.cls-1{fill:#418fde;}</style></defs><title>Asset 668</title><g data-name="Layer 2" id="Layer_2"><g id="Icons"><path d="M24,35a5.66152,5.66152,0,0,0,6-5.72.2908.2908,0,0,0-.3-.28H1.5a1.5,1.5,0,0,0,0,3H19C20.16992,33.87,21.49,35,24,35Z" fill="param(fill)" stroke="param(outline)" stroke-width="param(outline-width) 0" /><path d="M40.83008,17.07483A4.04754,4.04754,0,0,0,39,16V14a13.51336,13.51336,0,0,0-4.4-9.9A15.51559,15.51559,0,0,0,24.14,0,2.75986,2.75986,0,0,0,23,2.23,2.96344,2.96344,0,0,0,26,5a1,1,0,0,1,0,2,4.95181,4.95181,0,0,1-5-4.77A4.51927,4.51927,0,0,1,21.47.2C14.39,1.32007,9,7.08008,9,14v2a4.04754,4.04754,0,0,0-1.83008,1.07483,4.24189,4.24189,0,0,0,0,5.85034A4.04754,4.04754,0,0,0,9,24v2a7.06655,7.06655,0,0,0,.08008,1H29.7a2.33113,2.33113,0,0,1,1.68.72A2.24277,2.24277,0,0,1,32,29.37,7.646,7.646,0,0,1,24,37a7.09236,7.09236,0,0,1-6.05-3H12.62c2.74,3.28,6.83,6,11.38,6,8.28,0,15-8.92993,15-14V24a4.04754,4.04754,0,0,0,1.83008-1.07483,4.24189,4.24189,0,0,0,0-5.85034ZM20.65991,19.52a5.26537,5.26537,0,0,1-7.31982,0,1.12878,1.12878,0,0,1,0-1.61011,1.18933,1.18933,0,0,1,1.65991,0,2.954,2.954,0,0,0,4,0,1.18933,1.18933,0,0,1,1.65991,0A1.12878,1.12878,0,0,1,20.65991,19.52Zm14,0a5.26537,5.26537,0,0,1-7.31982,0,1.12878,1.12878,0,0,1,0-1.61011,1.18933,1.18933,0,0,1,1.65991,0,2.954,2.954,0,0,0,4,0,1.18933,1.18933,0,0,1,1.65991,0A1.12878,1.12878,0,0,1,34.65991,19.52Z" fill="param(fill)" stroke="param(outline)" stroke-width="param(outline-width) 0" /></g></g></svg>