<svg xmlns="http://www.w3.org/2000/svg" viewBox="-2 -2 48 48"><defs><style>.cls-1{fill:#418fde;}</style></defs><title>Asset 948</title><g data-name="Layer 2" id="Layer_2"><g id="Icons"><path d="M22,0A22,22,0,1,0,44,22,21.9973,21.9973,0,0,0,22,0ZM19,30.84528A1.15471,1.15471,0,0,1,17.84521,32H16.15479A1.15471,1.15471,0,0,1,15,30.84528V13.15466A1.1547,1.1547,0,0,1,16.15479,12h1.69042A1.1547,1.1547,0,0,1,19,13.15466Zm10,0A1.15471,1.15471,0,0,1,27.84521,32H26.15479A1.15471,1.15471,0,0,1,25,30.84528V13.15466A1.1547,1.1547,0,0,1,26.15479,12h1.69042A1.1547,1.1547,0,0,1,29,13.15466Z" fill="param(fill)" stroke="param(outline)" stroke-width="param(outline-width) 0" /></g></g></svg>