<svg xmlns="http://www.w3.org/2000/svg" viewBox="-2 -2 29 52"><defs><style>.cls-1{fill:#5091cd;}</style></defs><title>Person-1</title><g data-name="Layer 2" id="Layer_2"><g id="Icons"><path d="M13,10C5.46,10,0,15.05,0,22a2,2,0,0,0,4,0,7.4,7.4,0,0,1,5-7L5,34a.92.92,0,0,0,1,1H8V46a2,2,0,0,0,4,0V35h2V46a2,2,0,1,0,4,0V35h2a.92.92,0,0,0,1-1L17,15a7.53,7.53,0,0,1,5,7,2,2,0,0,0,4,0C26,15.05,20.53,10,13,10Z" fill="param(fill)" stroke="param(outline)" stroke-width="param(outline-width) 0" /><circle cx="12.99" cy="4" fill="param(fill)" r="4" stroke="param(outline)" stroke-width="param(outline-width) 0" /></g></g></svg>