<svg xmlns="http://www.w3.org/2000/svg" viewBox="-2 -2 52 52"><defs><style>.cls-1{fill:#418fde;}</style></defs><title>Asset 711</title><g data-name="Layer 2" id="Layer_2"><g id="Icons"><circle cx="43.5" cy="43.5" fill="param(fill)" r="4.5" stroke="param(outline)" stroke-width="param(outline-width) 0" /><circle cx="43.5" cy="31.5" fill="param(fill)" r="4.5" stroke="param(outline)" stroke-width="param(outline-width) 0" /><circle cx="43.5" cy="19.5" fill="param(fill)" r="4.5" stroke="param(outline)" stroke-width="param(outline-width) 0" /><circle cx="31.5" cy="43.5" fill="param(fill)" r="4.5" stroke="param(outline)" stroke-width="param(outline-width) 0" /><circle cx="31.5" cy="31.5" fill="param(fill)" r="4.5" stroke="param(outline)" stroke-width="param(outline-width) 0" /><circle cx="19.5" cy="43.5" fill="param(fill)" r="4.5" stroke="param(outline)" stroke-width="param(outline-width) 0" /><circle cx="7.5" cy="43.5" fill="param(fill)" r="4.5" stroke="param(outline)" stroke-width="param(outline-width) 0" /><circle cx="19.5" cy="31.5" fill="param(fill)" r="4.5" stroke="param(outline)" stroke-width="param(outline-width) 0" /><circle cx="31.5" cy="19.5" fill="param(fill)" r="4.5" stroke="param(outline)" stroke-width="param(outline-width) 0" /><circle cx="43.5" cy="7.5" fill="param(fill)" r="4.5" stroke="param(outline)" stroke-width="param(outline-width) 0" /><path d="M19,6.82812V11a2,2,0,0,0,4,0V2a2.0001,2.0001,0,0,0-2-2H12a2,2,0,0,0,0,4h4.17188L.58594,19.58594a1.99978,1.99978,0,1,0,2.82812,2.82812Z" fill="param(fill)" stroke="param(outline)" stroke-width="param(outline-width) 0" /></g></g></svg>