<svg xmlns="http://www.w3.org/2000/svg" viewBox="-2 -2 42 52"><defs><style>.cls-1{fill:#418fde;}</style></defs><title>Asset 900</title><g data-name="Layer 2" id="Layer_2"><g id="Icons"><path d="M37.12109,32.87891a2.99889,2.99889,0,0,0-4.24218,0A18.95363,18.95363,0,0,1,22,38V24h7a3,3,0,0,0,0-6H22V11.18994a6,6,0,1,0-6,0V18H9a3,3,0,0,0,0,6h7V38A18.95363,18.95363,0,0,1,5.12109,32.87891,2.99967,2.99967,0,0,0,.87891,37.12109,24.90486,24.90486,0,0,0,16,44v1a3,3,0,0,0,6,0V44a24.90486,24.90486,0,0,0,15.12109-6.87891A2.99889,2.99889,0,0,0,37.12109,32.87891ZM19,4a2,2,0,1,1-2,2A2.00583,2.00583,0,0,1,19,4Z" fill="param(fill)" stroke="param(outline)" stroke-width="param(outline-width) 0" /></g></g></svg>