<svg xmlns="http://www.w3.org/2000/svg" viewBox="-2 -2 52 52"><defs><style>.cls-1{fill:#418fde;}</style></defs><title>Asset 856</title><g data-name="Layer 2" id="Layer_2"><g id="Icons"><path d="M20,10A10,10,0,1,0,10,20,10.00362,10.00362,0,0,0,20,10ZM10,17a1,1,0,1,1,1-1A1.00288,1.00288,0,0,1,10,17Zm1-5a1,1,0,0,1-2,0V4a1,1,0,0,1,2,0Z" fill="param(fill)" stroke="param(outline)" stroke-width="param(outline-width) 0" /><path d="M18.30005,0A12.99253,12.99253,0,0,1,16,21.53V48H48V0ZM34,42a2,2,0,0,1-4,0V36a2.00579,2.00579,0,0,1,2-2,2.01467,2.01467,0,0,1,2,2Zm0-15a2,2,0,0,1-4,0V21a2.00579,2.00579,0,0,1,2-2,2.01467,2.01467,0,0,1,2,2Zm0-15a2,2,0,0,1-4,0V6a2.00579,2.00579,0,0,1,2-2,2.01467,2.01467,0,0,1,2,2Z" fill="param(fill)" stroke="param(outline)" stroke-width="param(outline-width) 0" /></g></g></svg>