<svg xmlns="http://www.w3.org/2000/svg" viewBox="-2 -2 52 34"><defs><style>.cls-1{fill:#418fde;}</style></defs><title>Asset 839</title><g data-name="Layer 2" id="Layer_2"><g id="Icons"><path d="M47.40991.58984A1.95514,1.95514,0,0,0,46,0a2.00583,2.00583,0,0,0-2,2V8l-3,6h3V28a2,2,0,0,0,4,0V2A1.95536,1.95536,0,0,0,47.40991.58984Z" fill="param(fill)" stroke="param(outline)" stroke-width="param(outline-width) 0" /><path d="M10,4H6L4,8V2A2,2,0,0,0,0,2V28a2,2,0,0,0,4,0V14H5Z" fill="param(fill)" stroke="param(outline)" stroke-width="param(outline-width) 0" /><polygon fill="param(fill)" points="14 4 9 14 13 14 18 4 14 4" stroke="param(outline)" stroke-width="param(outline-width) 0" /><polygon fill="param(fill)" points="22 4 17 14 21 14 26 4 22 4" stroke="param(outline)" stroke-width="param(outline-width) 0" /><polygon fill="param(fill)" points="30 4 25 14 29 14 34 4 30 4" stroke="param(outline)" stroke-width="param(outline-width) 0" /><polygon fill="param(fill)" points="38 4 33 14 37 14 42 4 38 4" stroke="param(outline)" stroke-width="param(outline-width) 0" /></g></g></svg>