<svg xmlns="http://www.w3.org/2000/svg" viewBox="-2 -2 52 52"><defs><style>.cls-1{fill:#418fde;}</style></defs><title>Asset 713</title><g data-name="Layer 2" id="Layer_2"><g id="Icons"><circle cx="41.49948" cy="6.5" fill="param(fill)" r="6.5" stroke="param(outline)" stroke-width="param(outline-width) 0" /><path d="M8.49948,12h2.5a3,3,0,0,0,3,3h5a3,3,0,0,0,0-6H15.94907a2.50048,2.50048,0,0,0-2.44959-2h-5a2.5,2.5,0,1,0,0,5Z" fill="param(fill)" stroke="param(outline)" stroke-width="param(outline-width) 0" /><path d="M23.03952,22.62a5.25477,5.25477,0,0,0-9.09008,0L.10947,46.73a.85666.85666,0,0,0,.76,1.27h16.83l.56005-.99,9.36-16.41Z" fill="param(fill)" stroke="param(outline)" stroke-width="param(outline-width) 0" /><path d="M47.86948,46.47,37.93943,29.1a4.10147,4.10147,0,0,0-7.15992,0l-2,3.51L19.99948,48h26.97A1.028,1.028,0,0,0,47.86948,46.47Z" fill="param(fill)" stroke="param(outline)" stroke-width="param(outline-width) 0" /></g></g></svg>