<svg xmlns="http://www.w3.org/2000/svg" viewBox="-2 -2 46 46"><defs><style>.cls-1{fill:#418fde;}</style></defs><title>Asset 937</title><g data-name="Layer 2" id="Layer_2"><g id="Icons"><path d="M37,0H33V10a1,1,0,0,1-1,1H6a1,1,0,0,1-1-1V0H2A2,2,0,0,0,0,2V40a2,2,0,0,0,2,2H40.00018a2,2,0,0,0,2-2V5Zm0,36a1,1,0,0,1-1,1H6a1,1,0,0,1-1-1V18a1,1,0,0,1,1-1H36a1,1,0,0,1,1,1Z" fill="param(fill)" stroke="param(outline)" stroke-width="param(outline-width) 0" /><rect fill="param(fill)" height="9" stroke="param(outline)" stroke-width="param(outline-width) 0" width="24" x="7" /></g></g></svg>