<svg xmlns="http://www.w3.org/2000/svg" viewBox="-2 -2 52 52"><defs><style>.cls-1{fill:#418fde;}</style></defs><title>Asset 761</title><g data-name="Layer 2" id="Layer_2"><g id="Icons"><path d="M10,39a2.0001,2.0001,0,0,0,2-2V19.82812l4.58594,4.58594a1.99978,1.99978,0,0,0,2.82812-2.82812l-8-8a1.99926,1.99926,0,0,0-2.82812,0l-8,8a1.99978,1.99978,0,0,0,2.82812,2.82812L8,19.82812V37A2.0001,2.0001,0,0,0,10,39Z" fill="param(fill)" stroke="param(outline)" stroke-width="param(outline-width) 0" /><path d="M39.41406,13.58594a1.99926,1.99926,0,0,0-2.82812,0l-8,8a1.99978,1.99978,0,0,0,2.82812,2.82812L36,19.82812V37a2,2,0,0,0,4,0V19.82812l4.58594,4.58594a1.99978,1.99978,0,0,0,2.82812-2.82812Z" fill="param(fill)" stroke="param(outline)" stroke-width="param(outline-width) 0" /><rect fill="param(fill)" height="4" rx="1" stroke="param(outline)" stroke-width="param(outline-width) 0" width="48" y="44" /><rect fill="param(fill)" height="10" rx="1" stroke="param(outline)" stroke-width="param(outline-width) 0" width="48" /></g></g></svg>