<svg xmlns="http://www.w3.org/2000/svg" viewBox="-2 -2 52 52"><defs><style>.cls-1{fill:#418fde;}</style></defs><title>Asset 794</title><g data-name="Layer 2" id="Layer_2"><g id="Icons"><path d="M40,23H37.91992a6.99044,6.99044,0,0,0-13.83984,0H8a8.02349,8.02349,0,0,0-8,8v9a8.02357,8.02357,0,0,0,8,8H40a8.02357,8.02357,0,0,0,8-8V31A8.02349,8.02349,0,0,0,40,23ZM27.13,23a3.99615,3.99615,0,0,1,7.74,0A3.65844,3.65844,0,0,1,35,24a4,4,0,0,1-8,0A3.65844,3.65844,0,0,1,27.13,23ZM20.5,36A3.5,3.5,0,1,1,24,32.5,3.50393,3.50393,0,0,1,20.5,36Z" fill="param(fill)" stroke="param(outline)" stroke-width="param(outline-width) 0" /><path d="M18.5,17A8.5,8.5,0,1,0,10,8.5,8.50574,8.50574,0,0,0,18.5,17Zm0-14A5.5,5.5,0,1,1,13,8.5,5.49684,5.49684,0,0,1,18.5,3Z" fill="param(fill)" stroke="param(outline)" stroke-width="param(outline-width) 0" /></g></g></svg>