<svg xmlns="http://www.w3.org/2000/svg" viewBox="-2 -2 38 52"><defs><style>.cls-1{fill:#418fde;}</style></defs><title>Asset 807</title><g data-name="Layer 2" id="Layer_2"><g id="Icons"><path d="M31,10H3a1.00288,1.00288,0,0,0-1,1V47a1.00288,1.00288,0,0,0,1,1H31a1.00288,1.00288,0,0,0,1-1V11A1.00288,1.00288,0,0,0,31,10ZM10,42a1,1,0,0,1-2,0V16a1,1,0,0,1,2,0Zm8,0a1,1,0,0,1-2,0V16a1,1,0,0,1,2,0Zm8,0a1,1,0,0,1-2,0V16a1,1,0,0,1,2,0Z" fill="param(fill)" stroke="param(outline)" stroke-width="param(outline-width) 0" /><path d="M32,4H22V3a3,3,0,0,0-3-3H15a3,3,0,0,0-3,3V4H2A2,2,0,0,0,2,8H32a2,2,0,0,0,0-4Z" fill="param(fill)" stroke="param(outline)" stroke-width="param(outline-width) 0" /></g></g></svg>