<svg xmlns="http://www.w3.org/2000/svg" viewBox="-2 -2 52 52"><defs><style>.cls-1{fill:#418fde;}</style></defs><title>Asset 763</title><g data-name="Layer 2" id="Layer_2"><g id="Icons"><path d="M6,31a2.0001,2.0001,0,0,0,2-2V26H22v3a2,2,0,0,0,4,0V26H40v3a2,2,0,0,0,4,0V24a2.0001,2.0001,0,0,0-2-2H26V19a2,2,0,0,0-4,0v3H6a2.0001,2.0001,0,0,0-2,2v5A2.0001,2.0001,0,0,0,6,31Z" fill="param(fill)" stroke="param(outline)" stroke-width="param(outline-width) 0" /><circle cx="6" cy="42" fill="param(fill)" r="6" stroke="param(outline)" stroke-width="param(outline-width) 0" /><circle cx="42" cy="42" fill="param(fill)" r="6" stroke="param(outline)" stroke-width="param(outline-width) 0" /><circle cx="24" cy="42" fill="param(fill)" r="6" stroke="param(outline)" stroke-width="param(outline-width) 0" /><circle cx="24" cy="6" fill="param(fill)" r="6" stroke="param(outline)" stroke-width="param(outline-width) 0" /></g></g></svg>