<svg xmlns="http://www.w3.org/2000/svg" viewBox="-2 -2 51 52"><defs><style>.cls-1{fill:#418fde;}</style></defs><title>Asset 671</title><g data-name="Layer 2" id="Layer_2"><g id="Icons"><path d="M5.68018,31.16577C4.436,32.86035,0,39.11707,0,41.97632a6,6,0,1,0,12,0c0-2.85925-4.436-9.116-5.67993-10.81055A.39172.39172,0,0,0,5.68018,31.16577Z" fill="param(fill)" stroke="param(outline)" stroke-width="param(outline-width) 0" /><path d="M45.99976,1H43a2.0001,2.0001,0,0,0-2,2V8H29.00012V3H33.5a1.5,1.5,0,0,0,0-3h-14a1.5,1.5,0,0,0,0,3h4.49988V8H13.85254A11.8661,11.8661,0,0,0,2,19.85254V22H1a1,1,0,0,0-1,1v3a1,1,0,0,0,1,1H11a1,1,0,0,0,1-1V23a1,1,0,0,0-1-1H10V19.85254A3.857,3.857,0,0,1,13.85254,16H41v5a2.0001,2.0001,0,0,0,2,2h2.99976a2.0001,2.0001,0,0,0,2-2V3A2.0001,2.0001,0,0,0,45.99976,1Z" fill="param(fill)" stroke="param(outline)" stroke-width="param(outline-width) 0" /></g></g></svg>