<?xml version="1.0" encoding="UTF-8" standalone="no"?>
<svg
   xmlns:dc="http://purl.org/dc/elements/1.1/"
   xmlns:cc="http://creativecommons.org/ns#"
   xmlns:rdf="http://www.w3.org/1999/02/22-rdf-syntax-ns#"
   xmlns:svg="http://www.w3.org/2000/svg"
   xmlns="http://www.w3.org/2000/svg"
   id="svg8"
   version="1.1"
   viewBox="0 0 4.2333245 4.2333364"
   height="4.2333364mm"
   width="4.2333245mm">
  <defs
     id="defs2">
    <pattern
       id="EMFhbasepattern"
       patternUnits="userSpaceOnUse"
       width="6"
       height="6"
       x="0"
       y="0" />
    <pattern
       id="EMFhbasepattern-8"
       patternUnits="userSpaceOnUse"
       width="6"
       height="6"
       x="0"
       y="0" />
    <pattern
       id="EMFhbasepattern-1"
       patternUnits="userSpaceOnUse"
       width="6"
       height="6"
       x="0"
       y="0" />
    <pattern
       id="EMFhbasepattern-10"
       patternUnits="userSpaceOnUse"
       width="6"
       height="6"
       x="0"
       y="0" />
  </defs>
  <metadata
     id="metadata5">
    <rdf:RDF>
      <cc:Work
         rdf:about="">
        <dc:format>image/svg+xml</dc:format>
        <dc:type
           rdf:resource="http://purl.org/dc/dcmitype/StillImage" />
        <dc:title></dc:title>
      </cc:Work>
    </rdf:RDF>
  </metadata>
  <g
     transform="translate(90.209412,-261.44873)"
     id="layer1">
    <path
       style="opacity:0.3;fill:none;stroke:#ffffff;stroke-width:0.52916664;stroke-linejoin:round;stroke-miterlimit:4;stroke-dasharray:none;stroke-opacity:1"
       d="m -89.944829,261.71331 v 3.70417 h 1.5875 v -0.61185 l -0.429948,-0.42995 -0.305925,-0.30592 -0.603581,-0.60358 c 0.02422,-0.0367 0.04212,-0.0752 0.07441,-0.10749 0.03229,-0.0323 0.07081,-0.0502 0.107487,-0.0744 l 0.603581,0.60359 0.305925,0.30592 0.380338,0.38034 v -1.28158 -0.23978 -1.05006 c 0.04306,-0.009 0.08663,-0.0165 0.132292,-0.0165 0.04566,0 0.08923,0.008 0.132292,0.0165 v 1.05006 0.23978 1.28158 l 0.380338,-0.38034 0.305925,-0.30592 0.60358,-0.60359 c 0.03668,0.0242 0.0752,0.0421 0.107487,0.0744 0.03229,0.0323 0.0502,0.0708 0.07441,0.10749 l -0.60358,0.60358 -0.305925,0.30592 -0.429948,0.42995 v 0.61185 h 1.5875 v -3.70417 z m 1.504817,0.37207 v 1.12448 c -0.189301,-0.11637 -0.314192,-0.32373 -0.314192,-0.56224 0,-0.23851 0.124891,-0.44587 0.314192,-0.56224 z m 0.694531,0 c 0.189302,0.11637 0.314193,0.32373 0.314193,0.56224 0,0.23851 -0.124891,0.44587 -0.314193,0.56224 z m -1.39733,1.08314 c 0.165167,0.003 0.336532,0.0637 0.463021,0.19017 0.16865,0.16865 0.225201,0.40397 0.173632,0.62012 l -0.79375,-0.79375 c 0.05404,-0.0129 0.102041,-0.0173 0.157097,-0.0165 z m 2.10013,0 c 0.05505,-7.9e-4 0.10306,0.004 0.157096,0.0165 l -0.79375,0.79375 c -0.05157,-0.21615 0.005,-0.45147 0.173633,-0.62012 0.126488,-0.12649 0.297854,-0.18752 0.463021,-0.19017 z m -2.75332,0.51263 0.79375,0.79375 c -0.216144,0.0516 -0.451467,-0.005 -0.620118,-0.17363 -0.16865,-0.16865 -0.225201,-0.40398 -0.173632,-0.62012 z m 3.40651,0 c 0.05157,0.21614 -0.005,0.45147 -0.173633,0.62012 -0.168651,0.16866 -0.403974,0.2252 -0.620117,0.17363 z"
       id="path6955" />
    <path
       id="rect6949"
       d="m -89.944829,261.71331 v 3.70417 h 1.5875 v -0.61185 l -0.429948,-0.42995 -0.305925,-0.30592 -0.603581,-0.60358 c 0.02422,-0.0367 0.04212,-0.0752 0.07441,-0.10749 0.03229,-0.0323 0.07081,-0.0502 0.107487,-0.0744 l 0.603581,0.60359 0.305925,0.30592 0.380338,0.38034 v -1.28158 -0.23978 -1.05006 c 0.04306,-0.009 0.08663,-0.0165 0.132292,-0.0165 0.04566,0 0.08923,0.008 0.132292,0.0165 v 1.05006 0.23978 1.28158 l 0.380338,-0.38034 0.305925,-0.30592 0.60358,-0.60359 c 0.03668,0.0242 0.0752,0.0421 0.107487,0.0744 0.03229,0.0323 0.0502,0.0708 0.07441,0.10749 l -0.60358,0.60358 -0.305925,0.30592 -0.429948,0.42995 v 0.61185 h 1.5875 v -3.70417 z m 1.504817,0.37207 v 1.12448 c -0.189301,-0.11637 -0.314192,-0.32373 -0.314192,-0.56224 0,-0.23851 0.124891,-0.44587 0.314192,-0.56224 z m 0.694531,0 c 0.189302,0.11637 0.314193,0.32373 0.314193,0.56224 0,0.23851 -0.124891,0.44587 -0.314193,0.56224 z m -1.39733,1.08314 c 0.165167,0.003 0.336532,0.0637 0.463021,0.19017 0.16865,0.16865 0.225201,0.40397 0.173632,0.62012 l -0.79375,-0.79375 c 0.05404,-0.0129 0.102041,-0.0173 0.157097,-0.0165 z m 2.10013,0 c 0.05505,-7.9e-4 0.10306,0.004 0.157096,0.0165 l -0.79375,0.79375 c -0.05157,-0.21615 0.005,-0.45147 0.173633,-0.62012 0.126488,-0.12649 0.297854,-0.18752 0.463021,-0.19017 z m -2.75332,0.51263 0.79375,0.79375 c -0.216144,0.0516 -0.451467,-0.005 -0.620118,-0.17363 -0.16865,-0.16865 -0.225201,-0.40398 -0.173632,-0.62012 z m 3.40651,0 c 0.05157,0.21614 -0.005,0.45147 -0.173633,0.62012 -0.168651,0.16866 -0.403974,0.2252 -0.620117,0.17363 z"
       style="fill:#747473;fill-opacity:1;stroke:none;stroke-width:0.26458332" />
  </g>
</svg>
