<?xml version="1.0" encoding="UTF-8" standalone="no"?>
<svg
   xmlns:dc="http://purl.org/dc/elements/1.1/"
   xmlns:cc="http://creativecommons.org/ns#"
   xmlns:rdf="http://www.w3.org/1999/02/22-rdf-syntax-ns#"
   xmlns:svg="http://www.w3.org/2000/svg"
   xmlns="http://www.w3.org/2000/svg"
   id="svg8"
   version="1.1"
   viewBox="0 0 3.9687495 3.7041666"
   height="3.7041667mm"
   width="3.9687495mm">
  <defs
     id="defs2">
    <pattern
       id="EMFhbasepattern"
       patternUnits="userSpaceOnUse"
       width="6"
       height="6"
       x="0"
       y="0" />
    <pattern
       id="EMFhbasepattern-8"
       patternUnits="userSpaceOnUse"
       width="6"
       height="6"
       x="0"
       y="0" />
    <pattern
       id="EMFhbasepattern-1"
       patternUnits="userSpaceOnUse"
       width="6"
       height="6"
       x="0"
       y="0" />
    <pattern
       id="EMFhbasepattern-10"
       patternUnits="userSpaceOnUse"
       width="6"
       height="6"
       x="0"
       y="0" />
    <pattern
       id="EMFhbasepattern-82"
       patternUnits="userSpaceOnUse"
       width="6"
       height="6"
       x="0"
       y="0" />
    <pattern
       id="EMFhbasepattern-8-8"
       patternUnits="userSpaceOnUse"
       width="6"
       height="6"
       x="0"
       y="0" />
    <pattern
       id="EMFhbasepattern-1-7"
       patternUnits="userSpaceOnUse"
       width="6"
       height="6"
       x="0"
       y="0" />
  </defs>
  <metadata
     id="metadata5">
    <rdf:RDF>
      <cc:Work
         rdf:about="">
        <dc:format>image/svg+xml</dc:format>
        <dc:type
           rdf:resource="http://purl.org/dc/dcmitype/StillImage" />
        <dc:title></dc:title>
      </cc:Work>
    </rdf:RDF>
  </metadata>
  <g
     transform="translate(82.820183,-262.79753)"
     id="layer1">
    <path
       style="color:#000000;display:inline;overflow:visible;visibility:visible;opacity:0.3;fill:#747473;fill-opacity:1;fill-rule:nonzero;stroke:#ffffff;stroke-width:0.52916664;stroke-linecap:butt;stroke-linejoin:round;stroke-miterlimit:4;stroke-dasharray:none;stroke-dashoffset:0;stroke-opacity:1;marker:none;enable-background:accumulate"
       d="m -81.940833,263.06211 c -0.05604,0 -0.101164,0.0451 -0.101164,0.10117 0,0.056 0.04512,0.10115 0.101164,0.10115 h 0.809313 l -0.101164,0.59143 v 0.24899 l -1.322916,0.40466 v 0.40468 h 1.322916 v 0.9027 l -0.529166,0.21789 v 0.20233 h 1.852083 v -0.20233 l -0.529167,-0.21789 v -0.9027 h 1.322917 v -0.40468 l -1.322917,-0.40466 v -0.24899 l -0.101163,-0.59143 h 0.809313 c 0.05604,0 0.101163,-0.0451 0.101163,-0.10115 0,-0.0561 -0.04512,-0.10117 -0.101163,-0.10117 z"
       id="path15781" />
    <path
       id="path6220"
       d="m -81.940833,263.06211 c -0.05604,0 -0.101164,0.0451 -0.101164,0.10117 0,0.056 0.04512,0.10115 0.101164,0.10115 h 0.809313 l -0.101164,0.59143 v 0.24899 l -1.322916,0.40466 v 0.40468 h 1.322916 v 0.9027 l -0.529166,0.21789 v 0.20233 h 1.852083 v -0.20233 l -0.529167,-0.21789 v -0.9027 h 1.322917 v -0.40468 l -1.322917,-0.40466 v -0.24899 l -0.101163,-0.59143 h 0.809313 c 0.05604,0 0.101163,-0.0451 0.101163,-0.10115 0,-0.0561 -0.04512,-0.10117 -0.101163,-0.10117 z"
       style="display:inline;fill:#747473;fill-opacity:1;stroke:none;stroke-width:0.26458332" />
  </g>
</svg>
