<?xml version="1.0" encoding="UTF-8" standalone="no"?>
<svg
   xmlns:dc="http://purl.org/dc/elements/1.1/"
   xmlns:cc="http://creativecommons.org/ns#"
   xmlns:rdf="http://www.w3.org/1999/02/22-rdf-syntax-ns#"
   xmlns:svg="http://www.w3.org/2000/svg"
   xmlns="http://www.w3.org/2000/svg"
   id="svg8"
   version="1.1"
   viewBox="0 0 3.96875 3.9687499"
   height="3.96875mm"
   width="3.96875mm">
  <defs
     id="defs2">
    <pattern
       id="EMFhbasepattern"
       patternUnits="userSpaceOnUse"
       width="6"
       height="6"
       x="0"
       y="0" />
    <pattern
       id="EMFhbasepattern-8"
       patternUnits="userSpaceOnUse"
       width="6"
       height="6"
       x="0"
       y="0" />
    <pattern
       id="EMFhbasepattern-1"
       patternUnits="userSpaceOnUse"
       width="6"
       height="6"
       x="0"
       y="0" />
    <pattern
       id="EMFhbasepattern-10"
       patternUnits="userSpaceOnUse"
       width="6"
       height="6"
       x="0"
       y="0" />
    <pattern
       id="EMFhbasepattern-82"
       patternUnits="userSpaceOnUse"
       width="6"
       height="6"
       x="0"
       y="0" />
    <pattern
       id="EMFhbasepattern-8-8"
       patternUnits="userSpaceOnUse"
       width="6"
       height="6"
       x="0"
       y="0" />
    <pattern
       id="EMFhbasepattern-1-7"
       patternUnits="userSpaceOnUse"
       width="6"
       height="6"
       x="0"
       y="0" />
    <pattern
       id="EMFhbasepattern-3"
       patternUnits="userSpaceOnUse"
       width="6"
       height="6"
       x="0"
       y="0" />
    <pattern
       id="EMFhbasepattern-8-9"
       patternUnits="userSpaceOnUse"
       width="6"
       height="6"
       x="0"
       y="0" />
    <pattern
       id="EMFhbasepattern-1-2"
       patternUnits="userSpaceOnUse"
       width="6"
       height="6"
       x="0"
       y="0" />
  </defs>
  <metadata
     id="metadata5">
    <rdf:RDF>
      <cc:Work
         rdf:about="">
        <dc:format>image/svg+xml</dc:format>
        <dc:type
           rdf:resource="http://purl.org/dc/dcmitype/StillImage" />
        <dc:title></dc:title>
      </cc:Work>
    </rdf:RDF>
  </metadata>
  <g
     transform="translate(79.243322,-264.17588)"
     id="layer1">
    <g
       id="g21737"
       transform="matrix(0.26458333,0,0,0.26458333,-108.47978,-13.997028)"
       style="fill:#747473;fill-opacity:1">
      <path
         style="color:#000000;display:inline;overflow:visible;visibility:visible;opacity:0.3;fill:#747473;stroke:#ffffff;stroke-width:2;stroke-linecap:round;stroke-linejoin:round;stroke-miterlimit:4;stroke-dasharray:none;stroke-dashoffset:0;stroke-opacity:1;marker:none;enable-background:accumulate;fill-opacity:1"
         d="m 124.5,1060.3622 v 1 l -5.5,-1 v 3 l 2,1.2222 v 0.7778 h -6 v -0.7778 l 2,-1.2222 v -3 l -5.5,1 v -1 l 5.5,-3 c 0,0 0,-1.7036 0,-3 0,-0.7777 0.22222,-2 1,-2 0.77777,0 1,1.2223 1,2 0,1.2964 0,3 0,3 z"
         id="path14268" />
      <path
         id="path7712-0"
         d="m 124.5,1060.3622 v 1 l -5.5,-1 v 3 l 2,1.2222 v 0.7778 h -6 v -0.7778 l 2,-1.2222 v -3 l -5.5,1 v -1 l 5.5,-3 c 0,0 0,-1.7036 0,-3 0,-0.7777 0.22222,-2 1,-2 0.77777,0 1,1.2223 1,2 0,1.2964 0,3 0,3 z"
         style="display:inline;fill:#747473;fill-opacity:1;stroke:none" />
    </g>
  </g>
</svg>
