<?xml version="1.0" encoding="UTF-8" standalone="no"?>
<svg
   xmlns:dc="http://purl.org/dc/elements/1.1/"
   xmlns:cc="http://creativecommons.org/ns#"
   xmlns:rdf="http://www.w3.org/1999/02/22-rdf-syntax-ns#"
   xmlns:svg="http://www.w3.org/2000/svg"
   xmlns="http://www.w3.org/2000/svg"
   id="svg8"
   version="1.1"
   viewBox="0 0 4.4979167 3.5718748"
   height="3.5718749mm"
   width="4.4979167mm">
  <defs
     id="defs2">
    <pattern
       id="EMFhbasepattern"
       patternUnits="userSpaceOnUse"
       width="6"
       height="6"
       x="0"
       y="0" />
    <pattern
       id="EMFhbasepattern-8"
       patternUnits="userSpaceOnUse"
       width="6"
       height="6"
       x="0"
       y="0" />
    <pattern
       id="EMFhbasepattern-1"
       patternUnits="userSpaceOnUse"
       width="6"
       height="6"
       x="0"
       y="0" />
    <pattern
       id="EMFhbasepattern-10"
       patternUnits="userSpaceOnUse"
       width="6"
       height="6"
       x="0"
       y="0" />
    <pattern
       id="EMFhbasepattern-82"
       patternUnits="userSpaceOnUse"
       width="6"
       height="6"
       x="0"
       y="0" />
    <pattern
       id="EMFhbasepattern-8-8"
       patternUnits="userSpaceOnUse"
       width="6"
       height="6"
       x="0"
       y="0" />
    <pattern
       id="EMFhbasepattern-1-7"
       patternUnits="userSpaceOnUse"
       width="6"
       height="6"
       x="0"
       y="0" />
    <pattern
       id="EMFhbasepattern-3"
       patternUnits="userSpaceOnUse"
       width="6"
       height="6"
       x="0"
       y="0" />
    <pattern
       id="EMFhbasepattern-8-9"
       patternUnits="userSpaceOnUse"
       width="6"
       height="6"
       x="0"
       y="0" />
    <pattern
       id="EMFhbasepattern-1-2"
       patternUnits="userSpaceOnUse"
       width="6"
       height="6"
       x="0"
       y="0" />
    <pattern
       id="EMFhbasepattern-2"
       patternUnits="userSpaceOnUse"
       width="6"
       height="6"
       x="0"
       y="0" />
    <pattern
       id="EMFhbasepattern-8-95"
       patternUnits="userSpaceOnUse"
       width="6"
       height="6"
       x="0"
       y="0" />
    <pattern
       id="EMFhbasepattern-1-8"
       patternUnits="userSpaceOnUse"
       width="6"
       height="6"
       x="0"
       y="0" />
  </defs>
  <metadata
     id="metadata5">
    <rdf:RDF>
      <cc:Work
         rdf:about="">
        <dc:format>image/svg+xml</dc:format>
        <dc:type
           rdf:resource="http://purl.org/dc/dcmitype/StillImage" />
        <dc:title></dc:title>
      </cc:Work>
    </rdf:RDF>
  </metadata>
  <g
     transform="translate(88.735961,-264.8878)"
     id="layer1">
    <path
       style="color:#000000;display:inline;overflow:visible;visibility:visible;opacity:0.3;fill:#747473;fill-opacity:1;fill-rule:nonzero;stroke:#ffffff;stroke-width:0.52916664;stroke-linecap:round;stroke-linejoin:round;stroke-miterlimit:4;stroke-dasharray:none;stroke-dashoffset:0;stroke-opacity:1;marker:none;enable-background:accumulate"
       d="m -86.751586,265.15238 c -1.028936,0 -1.719792,0.91135 -1.719792,1.32292 0,0.39688 0.264581,0.66146 0.661458,0.66146 0.411575,0 0.79375,0.0882 0.79375,0.39687 0,0.41158 0.382175,0.66146 0.79375,0.66146 1.190625,0 1.719792,-0.73495 1.719792,-1.45521 0,-1.4552 -1.226079,-1.5875 -2.248958,-1.5875 z m -0.396875,0.39688 c 0.146124,0 0.264583,0.11846 0.264583,0.26458 0,0.14613 -0.118459,0.26459 -0.264583,0.26459 -0.146125,0 -0.264584,-0.11846 -0.264584,-0.26459 0,-0.14612 0.118459,-0.26458 0.264584,-0.26458 z m 0.79375,0 c 0.146121,0 0.264583,0.11846 0.264583,0.26458 0,0.14612 -0.118462,0.26459 -0.264583,0.26459 -0.146122,0 -0.264584,-0.11847 -0.264584,-0.26459 0,-0.14612 0.118462,-0.26458 0.264584,-0.26458 z m 0.79375,0.39687 c 0.144097,0 0.256315,0.12049 0.256315,0.26459 0,0.1441 -0.112218,0.25631 -0.256315,0.25631 -0.144098,0 -0.264584,-0.11221 -0.264584,-0.25631 0,-0.1441 0.120486,-0.26459 0.264584,-0.26459 z m -2.116667,0.26459 c 0.146127,0 0.264583,0.11845 0.264583,0.26458 0,0.14613 -0.118456,0.26458 -0.264583,0.26458 -0.146127,0 -0.264583,-0.11845 -0.264583,-0.26458 0,-0.14613 0.118456,-0.26458 0.264583,-0.26458 z"
       id="path14399" />
    <path
       id="path6511-1"
       d="m -86.751586,265.15238 c -1.028936,0 -1.719792,0.91135 -1.719792,1.32292 0,0.39688 0.264581,0.66146 0.661458,0.66146 0.411575,0 0.79375,0.0882 0.79375,0.39687 0,0.41158 0.382175,0.66146 0.79375,0.66146 1.190625,0 1.719792,-0.73495 1.719792,-1.45521 0,-1.4552 -1.226079,-1.5875 -2.248958,-1.5875 z m -0.396875,0.39688 c 0.146124,0 0.264583,0.11846 0.264583,0.26458 0,0.14613 -0.118459,0.26459 -0.264583,0.26459 -0.146125,0 -0.264584,-0.11846 -0.264584,-0.26459 0,-0.14612 0.118459,-0.26458 0.264584,-0.26458 z m 0.79375,0 c 0.146121,0 0.264583,0.11846 0.264583,0.26458 0,0.14612 -0.118462,0.26459 -0.264583,0.26459 -0.146122,0 -0.264584,-0.11847 -0.264584,-0.26459 0,-0.14612 0.118462,-0.26458 0.264584,-0.26458 z m 0.79375,0.39687 c 0.144097,0 0.256315,0.12049 0.256315,0.26459 0,0.1441 -0.112218,0.25631 -0.256315,0.25631 -0.144098,0 -0.264584,-0.11221 -0.264584,-0.25631 0,-0.1441 0.120486,-0.26459 0.264584,-0.26459 z m -2.116667,0.26459 c 0.146127,0 0.264583,0.11845 0.264583,0.26458 0,0.14613 -0.118456,0.26458 -0.264583,0.26458 -0.146127,0 -0.264583,-0.11845 -0.264583,-0.26458 0,-0.14613 0.118456,-0.26458 0.264583,-0.26458 z m 1.389062,0.92604 c 0.182655,0 0.33073,0.14807 0.33073,0.33073 0,0.18265 -0.148075,0.33073 -0.33073,0.33073 -0.182655,0 -0.330729,-0.14808 -0.330729,-0.33073 0,-0.18266 0.148074,-0.33073 0.330729,-0.33073 z"
       style="color:#000000;display:inline;overflow:visible;visibility:visible;fill:#747473;fill-opacity:1;stroke:none;stroke-width:0.26458326;marker:none;enable-background:accumulate" />
  </g>
</svg>
