<?xml version="1.0" encoding="UTF-8" standalone="no"?>
<svg
   xmlns:dc="http://purl.org/dc/elements/1.1/"
   xmlns:cc="http://creativecommons.org/ns#"
   xmlns:rdf="http://www.w3.org/1999/02/22-rdf-syntax-ns#"
   xmlns:svg="http://www.w3.org/2000/svg"
   xmlns="http://www.w3.org/2000/svg"
   id="svg8"
   version="1.1"
   viewBox="0 0 4.7624998 3.7041666"
   height="3.7041667mm"
   width="4.7624998mm">
  <defs
     id="defs2">
    <pattern
       id="EMFhbasepattern"
       patternUnits="userSpaceOnUse"
       width="6"
       height="6"
       x="0"
       y="0" />
    <pattern
       id="EMFhbasepattern-8"
       patternUnits="userSpaceOnUse"
       width="6"
       height="6"
       x="0"
       y="0" />
    <pattern
       id="EMFhbasepattern-1"
       patternUnits="userSpaceOnUse"
       width="6"
       height="6"
       x="0"
       y="0" />
    <pattern
       id="EMFhbasepattern-10"
       patternUnits="userSpaceOnUse"
       width="6"
       height="6"
       x="0"
       y="0" />
    <pattern
       id="EMFhbasepattern-82"
       patternUnits="userSpaceOnUse"
       width="6"
       height="6"
       x="0"
       y="0" />
    <pattern
       id="EMFhbasepattern-8-8"
       patternUnits="userSpaceOnUse"
       width="6"
       height="6"
       x="0"
       y="0" />
    <pattern
       id="EMFhbasepattern-1-7"
       patternUnits="userSpaceOnUse"
       width="6"
       height="6"
       x="0"
       y="0" />
    <pattern
       id="EMFhbasepattern-3"
       patternUnits="userSpaceOnUse"
       width="6"
       height="6"
       x="0"
       y="0" />
    <pattern
       id="EMFhbasepattern-8-9"
       patternUnits="userSpaceOnUse"
       width="6"
       height="6"
       x="0"
       y="0" />
    <pattern
       id="EMFhbasepattern-1-2"
       patternUnits="userSpaceOnUse"
       width="6"
       height="6"
       x="0"
       y="0" />
    <pattern
       id="EMFhbasepattern-2"
       patternUnits="userSpaceOnUse"
       width="6"
       height="6"
       x="0"
       y="0" />
    <pattern
       id="EMFhbasepattern-8-95"
       patternUnits="userSpaceOnUse"
       width="6"
       height="6"
       x="0"
       y="0" />
    <pattern
       id="EMFhbasepattern-1-8"
       patternUnits="userSpaceOnUse"
       width="6"
       height="6"
       x="0"
       y="0" />
    <pattern
       id="EMFhbasepattern-4"
       patternUnits="userSpaceOnUse"
       width="6"
       height="6"
       x="0"
       y="0" />
    <pattern
       id="EMFhbasepattern-8-2"
       patternUnits="userSpaceOnUse"
       width="6"
       height="6"
       x="0"
       y="0" />
  </defs>
  <metadata
     id="metadata5">
    <rdf:RDF>
      <cc:Work
         rdf:about="">
        <dc:format>image/svg+xml</dc:format>
        <dc:type
           rdf:resource="http://purl.org/dc/dcmitype/StillImage" />
        <dc:title></dc:title>
      </cc:Work>
    </rdf:RDF>
  </metadata>
  <g
     transform="translate(81.485105,-265.90564)"
     id="layer1">
    <path
       style="opacity:0.3;fill:none;stroke:#ffffff;stroke-width:0.52916664;stroke-linejoin:round;stroke-miterlimit:4;stroke-dasharray:none;stroke-opacity:1"
       d="m -81.220522,266.17022 v 3.175 h 4.233333 v -3.175 z m 0.79375,0.52917 h 0.529167 v 0.26458 c 0.0806,0.10149 0.220091,0.18119 0.264583,0.29766 v 0.2315 c -0.10151,-0.0806 -0.181189,-0.2201 -0.297656,-0.26458 h -0.496094 l 0.79375,0.79375 v 0.26458 c -0.0806,0.1015 -0.220091,0.18119 -0.264583,0.29766 v 0.23151 h -0.529167 v -0.26458 c -0.0806,-0.1015 -0.220091,-0.18119 -0.264583,-0.29766 v -0.23151 c 0.10151,0.0806 0.181189,0.22011 0.297656,0.26458 h 0.496094 l -0.79375,-0.79375 v -0.26458 c 0.0806,-0.10149 0.220091,-0.18118 0.264583,-0.29765 z m 1.5875,0 h 1.322917 v 0.52916 h -1.322917 z m 0,0.79374 h 0.264583 v 0.26459 h -0.264583 z m 0.529167,0 h 0.264583 v 0.26459 h -0.264583 z m 0.529166,0 h 0.264584 v 0.26459 h -0.264584 z m -1.058333,0.52917 h 0.264583 v 0.26458 h -0.264583 z m 0.529167,0 h 0.264583 v 0.26458 h -0.264583 z m 0.529166,0 h 0.264584 v 0.26458 h -0.264584 z m -1.058333,0.52917 h 0.264583 v 0.26458 h -0.264583 z m 0.529167,0 h 0.264583 v 0.26458 h -0.264583 z m 0.529166,0 h 0.264584 v 0.26458 h -0.264584 z"
       id="path4631" />
    <path
       id="path4505-5"
       d="m -81.220522,266.17022 v 3.175 h 4.233333 v -3.175 z m 0.79375,0.52917 h 0.529167 v 0.26458 c 0.0806,0.10149 0.220091,0.18119 0.264583,0.29766 v 0.2315 c -0.10151,-0.0806 -0.181189,-0.2201 -0.297656,-0.26458 h -0.496094 v 0.26458 l 0.529167,0.26459 0.264583,0.26458 v 0.26458 c -0.0806,0.1015 -0.220091,0.18119 -0.264583,0.29766 v 0.23151 h -0.529167 v -0.26458 c -0.0806,-0.1015 -0.220091,-0.18119 -0.264583,-0.29766 v -0.23151 c 0.10151,0.0806 0.181189,0.22011 0.297656,0.26458 h 0.496094 v -0.26458 l -0.529167,-0.26458 -0.264583,-0.26459 v -0.26458 c 0.0806,-0.10149 0.220091,-0.18118 0.264583,-0.29765 z m 1.5875,0 h 1.322917 v 0.52916 h -1.322917 z m 0,0.79374 h 0.264583 v 0.26459 h -0.264583 z m 0.529167,0 h 0.264583 v 0.26459 h -0.264583 z m 0.529166,0 h 0.264584 v 0.26459 h -0.264584 z m -1.058333,0.52917 h 0.264583 v 0.26458 h -0.264583 z m 0.529167,0 h 0.264583 v 0.26458 h -0.264583 z m 0.529166,0 h 0.264584 v 0.26458 h -0.264584 z m -1.058333,0.52917 h 0.264583 v 0.26458 h -0.264583 z m 0.529167,0 h 0.264583 v 0.26458 h -0.264583 z m 0.529166,0 h 0.264584 v 0.26458 h -0.264584 z"
       style="fill:#747473;fill-opacity:1;stroke:none;stroke-width:0.26458332" />
  </g>
</svg>
