<?xml version="1.0" encoding="UTF-8" standalone="no"?>
<svg
   xmlns:dc="http://purl.org/dc/elements/1.1/"
   xmlns:cc="http://creativecommons.org/ns#"
   xmlns:rdf="http://www.w3.org/1999/02/22-rdf-syntax-ns#"
   xmlns:svg="http://www.w3.org/2000/svg"
   xmlns="http://www.w3.org/2000/svg"
   id="svg8"
   version="1.1"
   viewBox="0 0 4.7624998 4.7624998"
   height="4.7624998mm"
   width="4.7624998mm">
  <defs
     id="defs2">
    <pattern
       id="EMFhbasepattern"
       patternUnits="userSpaceOnUse"
       width="6"
       height="6"
       x="0"
       y="0" />
    <pattern
       id="EMFhbasepattern-8"
       patternUnits="userSpaceOnUse"
       width="6"
       height="6"
       x="0"
       y="0" />
    <pattern
       id="EMFhbasepattern-1"
       patternUnits="userSpaceOnUse"
       width="6"
       height="6"
       x="0"
       y="0" />
    <pattern
       id="EMFhbasepattern-10"
       patternUnits="userSpaceOnUse"
       width="6"
       height="6"
       x="0"
       y="0" />
    <pattern
       id="EMFhbasepattern-82"
       patternUnits="userSpaceOnUse"
       width="6"
       height="6"
       x="0"
       y="0" />
    <pattern
       id="EMFhbasepattern-8-8"
       patternUnits="userSpaceOnUse"
       width="6"
       height="6"
       x="0"
       y="0" />
    <pattern
       id="EMFhbasepattern-1-7"
       patternUnits="userSpaceOnUse"
       width="6"
       height="6"
       x="0"
       y="0" />
    <pattern
       id="EMFhbasepattern-3"
       patternUnits="userSpaceOnUse"
       width="6"
       height="6"
       x="0"
       y="0" />
    <pattern
       id="EMFhbasepattern-8-9"
       patternUnits="userSpaceOnUse"
       width="6"
       height="6"
       x="0"
       y="0" />
    <pattern
       id="EMFhbasepattern-1-2"
       patternUnits="userSpaceOnUse"
       width="6"
       height="6"
       x="0"
       y="0" />
    <pattern
       id="EMFhbasepattern-2"
       patternUnits="userSpaceOnUse"
       width="6"
       height="6"
       x="0"
       y="0" />
    <pattern
       id="EMFhbasepattern-8-95"
       patternUnits="userSpaceOnUse"
       width="6"
       height="6"
       x="0"
       y="0" />
    <pattern
       id="EMFhbasepattern-1-8"
       patternUnits="userSpaceOnUse"
       width="6"
       height="6"
       x="0"
       y="0" />
    <pattern
       id="EMFhbasepattern-4"
       patternUnits="userSpaceOnUse"
       width="6"
       height="6"
       x="0"
       y="0" />
    <pattern
       id="EMFhbasepattern-8-2"
       patternUnits="userSpaceOnUse"
       width="6"
       height="6"
       x="0"
       y="0" />
    <pattern
       id="EMFhbasepattern-37"
       patternUnits="userSpaceOnUse"
       width="6"
       height="6"
       x="0"
       y="0" />
    <pattern
       id="EMFhbasepattern-8-4"
       patternUnits="userSpaceOnUse"
       width="6"
       height="6"
       x="0"
       y="0" />
    <pattern
       id="EMFhbasepattern-6"
       patternUnits="userSpaceOnUse"
       width="6"
       height="6"
       x="0"
       y="0" />
    <pattern
       id="EMFhbasepattern-8-6"
       patternUnits="userSpaceOnUse"
       width="6"
       height="6"
       x="0"
       y="0" />
    <pattern
       id="EMFhbasepattern-1-1"
       patternUnits="userSpaceOnUse"
       width="6"
       height="6"
       x="0"
       y="0" />
    <pattern
       id="EMFhbasepattern-66"
       patternUnits="userSpaceOnUse"
       width="6"
       height="6"
       x="0"
       y="0" />
    <pattern
       id="EMFhbasepattern-8-0"
       patternUnits="userSpaceOnUse"
       width="6"
       height="6"
       x="0"
       y="0" />
    <pattern
       id="EMFhbasepattern-1-76"
       patternUnits="userSpaceOnUse"
       width="6"
       height="6"
       x="0"
       y="0" />
    <pattern
       id="EMFhbasepattern-9"
       patternUnits="userSpaceOnUse"
       width="6"
       height="6"
       x="0"
       y="0" />
    <pattern
       id="EMFhbasepattern-8-5"
       patternUnits="userSpaceOnUse"
       width="6"
       height="6"
       x="0"
       y="0" />
    <pattern
       id="EMFhbasepattern-1-18"
       patternUnits="userSpaceOnUse"
       width="6"
       height="6"
       x="0"
       y="0" />
  </defs>
  <metadata
     id="metadata5">
    <rdf:RDF>
      <cc:Work
         rdf:about="">
        <dc:format>image/svg+xml</dc:format>
        <dc:type
           rdf:resource="http://purl.org/dc/dcmitype/StillImage" />
        <dc:title></dc:title>
      </cc:Work>
    </rdf:RDF>
  </metadata>
  <g
     transform="translate(85.504372,-262.06345)"
     id="layer1">
    <rect
       style="opacity:0.3;fill:none;fill-opacity:1;fill-rule:nonzero;stroke:none;stroke-width:0.26458332"
       id="rect5912"
       width="4.7624998"
       height="4.7624998"
       x="-85.504372"
       y="262.06345" />
    <path
       d="m -81.337188,262.34456 -0.42168,0.42168 c 0,0 -0.07515,0.0714 -0.148828,0.18191 -0.07367,0.1105 -0.157096,0.26182 -0.157096,0.43821 v 1.05833 h -0.79375 l 0.529167,2.11667 h 0.79375 l 0.529166,-2.11667 h -0.79375 v -1.05833 c 0,-0.0882 0.04887,-0.20146 0.107487,-0.28939 0.05862,-0.0879 0.115755,-0.14882 0.115755,-0.14882 l 0.42168,-0.42168 z m -1.256771,2.36472 h 0.529167 v 0.52916 h -0.396875 z m 0.79375,0 h 0.529167 l -0.107487,0.52916 h -0.42168 z m -2.538346,-1.66192 -0.107487,0.0744 -0.107487,0.0744 0.04961,0.0661 -0.735872,1.71152 1.314648,-0.83509 0.537435,0.7028 v 1.71979 h 0.264584 v -1.85208 l -0.578776,-0.71107 1.372526,-0.87643 h -1.959571 z"
       style="opacity:0.3;fill:none;fill-opacity:1;stroke:#ffffff;stroke-width:0.52916664;stroke-linejoin:round;stroke-miterlimit:4;stroke-dasharray:none;stroke-opacity:1"
       id="path5944" />
    <path
       id="path5916"
       style="fill:#747473;fill-opacity:1;stroke:none;stroke-width:0.26458332"
       d="m -81.337188,262.34456 -0.42168,0.42168 c 0,0 -0.07515,0.0714 -0.148828,0.18191 -0.07367,0.1105 -0.157096,0.26182 -0.157096,0.43821 v 1.05833 h -0.79375 l 0.529167,2.11667 h 0.79375 l 0.529166,-2.11667 h -0.79375 v -1.05833 c 0,-0.0882 0.04887,-0.20146 0.107487,-0.28939 0.05862,-0.0879 0.115755,-0.14882 0.115755,-0.14882 l 0.42168,-0.42168 z m -1.256771,2.36472 h 0.529167 v 0.52916 h -0.396875 z m 0.79375,0 h 0.529167 l -0.107487,0.52916 h -0.42168 z m -2.538346,-1.66192 -0.107487,0.0744 -0.107487,0.0744 0.04961,0.0661 -0.735872,1.71152 1.314648,-0.83509 0.537435,0.7028 v 1.71979 h 0.264584 v -1.85208 l -0.578776,-0.71107 1.372526,-0.87643 h -1.959571 z" />
    <rect
       style="opacity:0.3;fill:none;stroke:none;stroke-width:0.52916664;stroke-linecap:butt;stroke-linejoin:round;stroke-miterlimit:4;stroke-dasharray:none;stroke-opacity:1"
       id="rect5946"
       width="4.7624998"
       height="4.7624998"
       x="-85.504372"
       y="262.06345" />
  </g>
</svg>
