<?xml version="1.0" encoding="UTF-8" standalone="no"?>
<svg
   xmlns:dc="http://purl.org/dc/elements/1.1/"
   xmlns:cc="http://creativecommons.org/ns#"
   xmlns:rdf="http://www.w3.org/1999/02/22-rdf-syntax-ns#"
   xmlns:svg="http://www.w3.org/2000/svg"
   xmlns="http://www.w3.org/2000/svg"
   id="svg8"
   version="1.1"
   viewBox="0 0 4.4979298 3.4396993"
   height="0.13542123in"
   width="0.17708385in">
  <defs
     id="defs2">
    <pattern
       id="EMFhbasepattern"
       patternUnits="userSpaceOnUse"
       width="6"
       height="6"
       x="0"
       y="0" />
    <pattern
       id="EMFhbasepattern-8"
       patternUnits="userSpaceOnUse"
       width="6"
       height="6"
       x="0"
       y="0" />
    <pattern
       id="EMFhbasepattern-1"
       patternUnits="userSpaceOnUse"
       width="6"
       height="6"
       x="0"
       y="0" />
    <pattern
       id="EMFhbasepattern-10"
       patternUnits="userSpaceOnUse"
       width="6"
       height="6"
       x="0"
       y="0" />
    <pattern
       id="EMFhbasepattern-82"
       patternUnits="userSpaceOnUse"
       width="6"
       height="6"
       x="0"
       y="0" />
    <pattern
       id="EMFhbasepattern-8-8"
       patternUnits="userSpaceOnUse"
       width="6"
       height="6"
       x="0"
       y="0" />
    <pattern
       id="EMFhbasepattern-1-7"
       patternUnits="userSpaceOnUse"
       width="6"
       height="6"
       x="0"
       y="0" />
    <pattern
       id="EMFhbasepattern-3"
       patternUnits="userSpaceOnUse"
       width="6"
       height="6"
       x="0"
       y="0" />
    <pattern
       id="EMFhbasepattern-8-9"
       patternUnits="userSpaceOnUse"
       width="6"
       height="6"
       x="0"
       y="0" />
    <pattern
       id="EMFhbasepattern-1-2"
       patternUnits="userSpaceOnUse"
       width="6"
       height="6"
       x="0"
       y="0" />
    <pattern
       id="EMFhbasepattern-2"
       patternUnits="userSpaceOnUse"
       width="6"
       height="6"
       x="0"
       y="0" />
    <pattern
       id="EMFhbasepattern-8-95"
       patternUnits="userSpaceOnUse"
       width="6"
       height="6"
       x="0"
       y="0" />
    <pattern
       id="EMFhbasepattern-1-8"
       patternUnits="userSpaceOnUse"
       width="6"
       height="6"
       x="0"
       y="0" />
    <pattern
       id="EMFhbasepattern-4"
       patternUnits="userSpaceOnUse"
       width="6"
       height="6"
       x="0"
       y="0" />
    <pattern
       id="EMFhbasepattern-8-2"
       patternUnits="userSpaceOnUse"
       width="6"
       height="6"
       x="0"
       y="0" />
    <pattern
       id="EMFhbasepattern-37"
       patternUnits="userSpaceOnUse"
       width="6"
       height="6"
       x="0"
       y="0" />
    <pattern
       id="EMFhbasepattern-8-4"
       patternUnits="userSpaceOnUse"
       width="6"
       height="6"
       x="0"
       y="0" />
    <pattern
       id="EMFhbasepattern-6"
       patternUnits="userSpaceOnUse"
       width="6"
       height="6"
       x="0"
       y="0" />
    <pattern
       id="EMFhbasepattern-8-6"
       patternUnits="userSpaceOnUse"
       width="6"
       height="6"
       x="0"
       y="0" />
    <pattern
       id="EMFhbasepattern-1-1"
       patternUnits="userSpaceOnUse"
       width="6"
       height="6"
       x="0"
       y="0" />
    <pattern
       id="EMFhbasepattern-66"
       patternUnits="userSpaceOnUse"
       width="6"
       height="6"
       x="0"
       y="0" />
    <pattern
       id="EMFhbasepattern-8-0"
       patternUnits="userSpaceOnUse"
       width="6"
       height="6"
       x="0"
       y="0" />
    <pattern
       id="EMFhbasepattern-1-76"
       patternUnits="userSpaceOnUse"
       width="6"
       height="6"
       x="0"
       y="0" />
    <pattern
       id="EMFhbasepattern-9"
       patternUnits="userSpaceOnUse"
       width="6"
       height="6"
       x="0"
       y="0" />
    <pattern
       id="EMFhbasepattern-8-5"
       patternUnits="userSpaceOnUse"
       width="6"
       height="6"
       x="0"
       y="0" />
    <pattern
       id="EMFhbasepattern-1-18"
       patternUnits="userSpaceOnUse"
       width="6"
       height="6"
       x="0"
       y="0" />
    <pattern
       id="EMFhbasepattern-42"
       patternUnits="userSpaceOnUse"
       width="6"
       height="6"
       x="0"
       y="0" />
    <pattern
       id="EMFhbasepattern-0"
       patternUnits="userSpaceOnUse"
       width="6"
       height="6"
       x="0"
       y="0" />
    <pattern
       id="EMFhbasepattern-93"
       patternUnits="userSpaceOnUse"
       width="6"
       height="6"
       x="0"
       y="0" />
    <pattern
       id="EMFhbasepattern-8-00"
       patternUnits="userSpaceOnUse"
       width="6"
       height="6"
       x="0"
       y="0" />
    <pattern
       id="EMFhbasepattern-1-25"
       patternUnits="userSpaceOnUse"
       width="6"
       height="6"
       x="0"
       y="0" />
  </defs>
  <metadata
     id="metadata5">
    <rdf:RDF>
      <cc:Work
         rdf:about="">
        <dc:format>image/svg+xml</dc:format>
        <dc:type
           rdf:resource="http://purl.org/dc/dcmitype/StillImage" />
        <dc:title></dc:title>
      </cc:Work>
    </rdf:RDF>
  </metadata>
  <g
     transform="translate(66.990821,-268.42101)"
     id="layer1">
    <g
       style="fill:#747473;fill-opacity:1"
       id="g7426"
       transform="matrix(0.26458333,0,0,0.26458333,-84.717904,38.666828)">
      <g
         style="fill:#747473;fill-opacity:1"
         id="g7328">
        <path
           id="path5766"
           d="m 78,869.3622 v 1 l 1,0.5 v 1.5 h -5 v -1 h 1 v -0.5 h -3 v 0.5 h 1 v 1 l -1.25,1.5625 c -0.16425,-0.026 -0.32857,-0.062 -0.5,-0.062 -1.79493,0 -3.25,1.4551 -3.25,3.25 0,1.7949 1.45507,3.25 3.25,3.25 1.70922,0 3.08884,-1.3241 3.21875,-3 h 1.0625 c -0.005,-0.086 -0.0312,-0.1629 -0.0312,-0.25 0,-1.634 0.92903,-3.0387 2.28125,-3.75 h 1.21875 v 0.5938 c -1.43076,0.3404 -2.5,1.6212 -2.5,3.1562 0,1.7949 1.45507,3.25 3.25,3.25 1.79493,0 3.25,-1.4551 3.25,-3.25 0,-1.4067 -0.9057,-2.6101 -2.15625,-3.0625 L 80,872.3627 v -2 z m -4.5,4 H 76 l -1.75,2.5 c -0.27539,-0.6511 -0.76914,-1.2101 -1.375,-1.5625 z m -2.25,2 c 0.9665,0 1.75,0.7835 1.75,1.75 0,0.9665 -0.7835,1.75 -1.75,1.75 -0.9665,0 -1.75,-0.7835 -1.75,-1.75 0,-0.9665 0.7835,-1.75 1.75,-1.75 z m 8.5,0 c 0.9665,0 1.75,0.7835 1.75,1.75 0,0.9665 -0.7835,1.75 -1.75,1.75 -0.9665,0 -1.75,-0.7835 -1.75,-1.75 0,-0.9665 0.7835,-1.75 1.75,-1.75 z"
           style="color:#000000;display:inline;overflow:visible;visibility:visible;opacity:0.3;fill:#747473;fill-opacity:1;fill-rule:nonzero;stroke:#ffffff;stroke-width:2;stroke-linecap:butt;stroke-linejoin:round;stroke-miterlimit:4;stroke-dasharray:none;stroke-dashoffset:0;stroke-opacity:1;marker:none;enable-background:accumulate" />
        <path
           style="color:#000000;display:inline;overflow:visible;visibility:visible;fill:#747473;fill-opacity:1;fill-rule:nonzero;stroke:none;stroke-width:1;marker:none;enable-background:accumulate"
           d="m 78,869.3622 v 1 l 1,0.5 v 1.5 h -5 v -1 h 1 v -0.5 h -3 v 0.5 h 1 v 1 l -1.25,1.5625 c -0.16425,-0.026 -0.32857,-0.062 -0.5,-0.062 -1.79493,0 -3.25,1.4551 -3.25,3.25 0,1.7949 1.45507,3.25 3.25,3.25 1.70922,0 3.08884,-1.3241 3.21875,-3 h 1.0625 c -0.005,-0.086 -0.0312,-0.1629 -0.0312,-0.25 0,-1.634 0.92903,-3.0387 2.28125,-3.75 h 1.21875 v 0.5938 c -1.43076,0.3404 -2.5,1.6212 -2.5,3.1562 0,1.7949 1.45507,3.25 3.25,3.25 1.79493,0 3.25,-1.4551 3.25,-3.25 0,-1.4067 -0.9057,-2.6101 -2.15625,-3.0625 L 80,872.3627 v -2 z m -4.5,4 H 76 l -1.75,2.5 c -0.27539,-0.6511 -0.76914,-1.2101 -1.375,-1.5625 z m -2.25,2 c 0.9665,0 1.75,0.7835 1.75,1.75 0,0.9665 -0.7835,1.75 -1.75,1.75 -0.9665,0 -1.75,-0.7835 -1.75,-1.75 0,-0.9665 0.7835,-1.75 1.75,-1.75 z m 8.5,0 c 0.9665,0 1.75,0.7835 1.75,1.75 0,0.9665 -0.7835,1.75 -1.75,1.75 -0.9665,0 -1.75,-0.7835 -1.75,-1.75 0,-0.9665 0.7835,-1.75 1.75,-1.75 z"
           id="path5430" />
      </g>
    </g>
  </g>
</svg>
