<?xml version="1.0" encoding="UTF-8" standalone="no"?>
<svg
   xmlns:dc="http://purl.org/dc/elements/1.1/"
   xmlns:cc="http://creativecommons.org/ns#"
   xmlns:rdf="http://www.w3.org/1999/02/22-rdf-syntax-ns#"
   xmlns:svg="http://www.w3.org/2000/svg"
   xmlns="http://www.w3.org/2000/svg"
   id="svg8"
   version="1.1"
   viewBox="0 0 3.8340627 4.4032197"
   height="0.1733551in"
   width="0.15094735in">
  <defs
     id="defs2">
    <pattern
       id="EMFhbasepattern"
       patternUnits="userSpaceOnUse"
       width="6"
       height="6"
       x="0"
       y="0" />
    <pattern
       id="EMFhbasepattern-8"
       patternUnits="userSpaceOnUse"
       width="6"
       height="6"
       x="0"
       y="0" />
    <pattern
       id="EMFhbasepattern-1"
       patternUnits="userSpaceOnUse"
       width="6"
       height="6"
       x="0"
       y="0" />
    <pattern
       id="EMFhbasepattern-10"
       patternUnits="userSpaceOnUse"
       width="6"
       height="6"
       x="0"
       y="0" />
    <pattern
       id="EMFhbasepattern-82"
       patternUnits="userSpaceOnUse"
       width="6"
       height="6"
       x="0"
       y="0" />
    <pattern
       id="EMFhbasepattern-8-8"
       patternUnits="userSpaceOnUse"
       width="6"
       height="6"
       x="0"
       y="0" />
    <pattern
       id="EMFhbasepattern-1-7"
       patternUnits="userSpaceOnUse"
       width="6"
       height="6"
       x="0"
       y="0" />
    <pattern
       id="EMFhbasepattern-3"
       patternUnits="userSpaceOnUse"
       width="6"
       height="6"
       x="0"
       y="0" />
    <pattern
       id="EMFhbasepattern-8-9"
       patternUnits="userSpaceOnUse"
       width="6"
       height="6"
       x="0"
       y="0" />
    <pattern
       id="EMFhbasepattern-1-2"
       patternUnits="userSpaceOnUse"
       width="6"
       height="6"
       x="0"
       y="0" />
    <pattern
       id="EMFhbasepattern-2"
       patternUnits="userSpaceOnUse"
       width="6"
       height="6"
       x="0"
       y="0" />
    <pattern
       id="EMFhbasepattern-8-95"
       patternUnits="userSpaceOnUse"
       width="6"
       height="6"
       x="0"
       y="0" />
    <pattern
       id="EMFhbasepattern-1-8"
       patternUnits="userSpaceOnUse"
       width="6"
       height="6"
       x="0"
       y="0" />
    <pattern
       id="EMFhbasepattern-4"
       patternUnits="userSpaceOnUse"
       width="6"
       height="6"
       x="0"
       y="0" />
    <pattern
       id="EMFhbasepattern-8-2"
       patternUnits="userSpaceOnUse"
       width="6"
       height="6"
       x="0"
       y="0" />
    <pattern
       id="EMFhbasepattern-37"
       patternUnits="userSpaceOnUse"
       width="6"
       height="6"
       x="0"
       y="0" />
    <pattern
       id="EMFhbasepattern-8-4"
       patternUnits="userSpaceOnUse"
       width="6"
       height="6"
       x="0"
       y="0" />
    <pattern
       id="EMFhbasepattern-6"
       patternUnits="userSpaceOnUse"
       width="6"
       height="6"
       x="0"
       y="0" />
    <pattern
       id="EMFhbasepattern-8-6"
       patternUnits="userSpaceOnUse"
       width="6"
       height="6"
       x="0"
       y="0" />
    <pattern
       id="EMFhbasepattern-1-1"
       patternUnits="userSpaceOnUse"
       width="6"
       height="6"
       x="0"
       y="0" />
    <pattern
       id="EMFhbasepattern-66"
       patternUnits="userSpaceOnUse"
       width="6"
       height="6"
       x="0"
       y="0" />
    <pattern
       id="EMFhbasepattern-8-0"
       patternUnits="userSpaceOnUse"
       width="6"
       height="6"
       x="0"
       y="0" />
    <pattern
       id="EMFhbasepattern-1-76"
       patternUnits="userSpaceOnUse"
       width="6"
       height="6"
       x="0"
       y="0" />
    <pattern
       id="EMFhbasepattern-9"
       patternUnits="userSpaceOnUse"
       width="6"
       height="6"
       x="0"
       y="0" />
    <pattern
       id="EMFhbasepattern-8-5"
       patternUnits="userSpaceOnUse"
       width="6"
       height="6"
       x="0"
       y="0" />
    <pattern
       id="EMFhbasepattern-1-18"
       patternUnits="userSpaceOnUse"
       width="6"
       height="6"
       x="0"
       y="0" />
    <pattern
       id="EMFhbasepattern-42"
       patternUnits="userSpaceOnUse"
       width="6"
       height="6"
       x="0"
       y="0" />
    <pattern
       id="EMFhbasepattern-0"
       patternUnits="userSpaceOnUse"
       width="6"
       height="6"
       x="0"
       y="0" />
    <pattern
       id="EMFhbasepattern-93"
       patternUnits="userSpaceOnUse"
       width="6"
       height="6"
       x="0"
       y="0" />
    <pattern
       id="EMFhbasepattern-8-00"
       patternUnits="userSpaceOnUse"
       width="6"
       height="6"
       x="0"
       y="0" />
    <pattern
       id="EMFhbasepattern-1-25"
       patternUnits="userSpaceOnUse"
       width="6"
       height="6"
       x="0"
       y="0" />
    <pattern
       id="EMFhbasepattern-11"
       patternUnits="userSpaceOnUse"
       width="6"
       height="6"
       x="0"
       y="0" />
    <pattern
       id="EMFhbasepattern-8-61"
       patternUnits="userSpaceOnUse"
       width="6"
       height="6"
       x="0"
       y="0" />
    <pattern
       id="EMFhbasepattern-1-20"
       patternUnits="userSpaceOnUse"
       width="6"
       height="6"
       x="0"
       y="0" />
    <pattern
       id="EMFhbasepattern-7"
       patternUnits="userSpaceOnUse"
       width="6"
       height="6"
       x="0"
       y="0" />
    <pattern
       id="EMFhbasepattern-5"
       patternUnits="userSpaceOnUse"
       width="6"
       height="6"
       x="0"
       y="0" />
    <pattern
       id="EMFhbasepattern-8-1"
       patternUnits="userSpaceOnUse"
       width="6"
       height="6"
       x="0"
       y="0" />
    <pattern
       id="EMFhbasepattern-28"
       patternUnits="userSpaceOnUse"
       width="6"
       height="6"
       x="0"
       y="0" />
    <pattern
       id="EMFhbasepattern-8-80"
       patternUnits="userSpaceOnUse"
       width="6"
       height="6"
       x="0"
       y="0" />
    <pattern
       id="EMFhbasepattern-1-185"
       patternUnits="userSpaceOnUse"
       width="6"
       height="6"
       x="0"
       y="0" />
    <pattern
       id="EMFhbasepattern-90"
       patternUnits="userSpaceOnUse"
       width="6"
       height="6"
       x="0"
       y="0" />
    <pattern
       id="EMFhbasepattern-8-06"
       patternUnits="userSpaceOnUse"
       width="6"
       height="6"
       x="0"
       y="0" />
    <pattern
       id="EMFhbasepattern-1-79"
       patternUnits="userSpaceOnUse"
       width="6"
       height="6"
       x="0"
       y="0" />
  </defs>
  <metadata
     id="metadata5">
    <rdf:RDF>
      <cc:Work
         rdf:about="">
        <dc:format>image/svg+xml</dc:format>
        <dc:type
           rdf:resource="http://purl.org/dc/dcmitype/StillImage" />
        <dc:title></dc:title>
      </cc:Work>
    </rdf:RDF>
  </metadata>
  <g
     transform="translate(68.630796,-255.187)"
     id="layer1">
    <path
       id="path4212"
       d="m -65.841937,255.45158 c -0.252775,0 -0.50555,0.0756 -0.661458,0.23151 -0.249452,0.24945 -0.07912,0.75824 -0.264583,1.05833 -0.414716,0.67103 -1.461143,0.27969 -1.5875,1.05834 -0.09989,0.61557 0.482176,1.08426 1.058333,1.32291 0.488886,0.20251 1.174729,0.33112 1.5875,0 0.634262,-0.50878 0.440441,-1.57299 0.529167,-2.38125 0.03849,-0.35067 0.249451,-0.80888 0,-1.05833 -0.155909,-0.15591 -0.408684,-0.23151 -0.661459,-0.23151 z m 0,0.29766 c 0.132226,0 0.264451,0.066 0.396875,0.19843 0.211871,0.21188 0.03269,0.49592 0,0.79375 -0.07538,0.68651 0.264584,1.5875 -0.529166,2.11667 -0.373957,0.24931 -0.907677,0.17199 -1.322917,0 -0.489368,-0.20269 -0.878597,-0.53548 -0.79375,-1.05833 0.264578,-0.52919 1.322917,-0.26459 1.5875,-1.05834 0.09475,-0.28424 0.05273,-0.58187 0.264583,-0.79375 0.132427,-0.13242 0.26465,-0.19843 0.396875,-0.19843 z m 0,0.15709 c -0.04941,0.001 -0.09652,0.0156 -0.132291,0.0413 -0.210783,0.15193 -0.03516,0.25389 -0.223243,0.69453 l 0.487826,0.19844 c 5.29e-4,-0.0328 -0.0021,-0.0659 0,-0.0992 0.01643,-0.26407 0.187089,-0.60666 0,-0.79375 -0.03118,-0.0312 -0.08288,-0.0427 -0.132292,-0.0413 z m -0.479557,0.97565 c -0.548714,0.8905 -1.504818,0.67872 -1.504818,1.18236 0,0.52917 1.322917,1.05833 1.852084,0.52917 0.429948,-0.42995 0.310475,-0.9159 0.272851,-1.46348 z"
       style="opacity:0.3;fill:#000000;stroke:#ffffff;stroke-width:0.52916664;stroke-linejoin:round;stroke-miterlimit:4;stroke-dasharray:none;stroke-opacity:1;fill-opacity:1" />
    <path
       style="fill:#747473;fill-opacity:1;stroke:none;stroke-width:0.26458332"
       d="m -65.841937,255.45158 c -0.252775,0 -0.50555,0.0756 -0.661458,0.23151 -0.249452,0.24945 -0.07912,0.75824 -0.264583,1.05833 -0.414716,0.67103 -1.461143,0.27969 -1.5875,1.05834 -0.09989,0.61557 0.482176,1.08426 1.058333,1.32291 0.488886,0.20251 1.174729,0.33112 1.5875,0 0.634262,-0.50878 0.440441,-1.57299 0.529167,-2.38125 0.03849,-0.35067 0.249451,-0.80888 0,-1.05833 -0.155909,-0.15591 -0.408684,-0.23151 -0.661459,-0.23151 z m 0,0.29766 c 0.132226,0 0.264451,0.066 0.396875,0.19843 0.211871,0.21188 0.03269,0.49592 0,0.79375 -0.07538,0.68651 0.264584,1.5875 -0.529166,2.11667 -0.373957,0.24931 -0.907677,0.17199 -1.322917,0 -0.489368,-0.20269 -0.878597,-0.53548 -0.79375,-1.05833 0.264578,-0.52919 1.322917,-0.26459 1.5875,-1.05834 0.09475,-0.28424 0.05273,-0.58187 0.264583,-0.79375 0.132427,-0.13242 0.26465,-0.19843 0.396875,-0.19843 z m 0,0.15709 c -0.04941,0.001 -0.09652,0.0156 -0.132291,0.0413 -0.210783,0.15193 -0.03516,0.25389 -0.223243,0.69453 l 0.487826,0.19844 c 5.29e-4,-0.0328 -0.0021,-0.0659 0,-0.0992 0.01643,-0.26407 0.187089,-0.60666 0,-0.79375 -0.03118,-0.0312 -0.08288,-0.0427 -0.132292,-0.0413 z m -0.479557,0.97565 c -0.548714,0.8905 -1.504818,0.67872 -1.504818,1.18236 0,0.52917 1.322917,1.05833 1.852084,0.52917 0.429948,-0.42995 0.310475,-0.9159 0.272851,-1.46348 z"
       id="path3385-7" />
  </g>
</svg>
