<?xml version="1.0" encoding="UTF-8" standalone="no"?>
<svg
   xmlns:dc="http://purl.org/dc/elements/1.1/"
   xmlns:cc="http://creativecommons.org/ns#"
   xmlns:rdf="http://www.w3.org/1999/02/22-rdf-syntax-ns#"
   xmlns:svg="http://www.w3.org/2000/svg"
   xmlns="http://www.w3.org/2000/svg"
   id="svg8"
   version="1.1"
   viewBox="0 0 3.7041667 4.7625013"
   height="0.18750004in"
   width="0.14583333in">
  <defs
     id="defs2">
    <pattern
       id="EMFhbasepattern"
       patternUnits="userSpaceOnUse"
       width="6"
       height="6"
       x="0"
       y="0" />
    <pattern
       id="EMFhbasepattern-8"
       patternUnits="userSpaceOnUse"
       width="6"
       height="6"
       x="0"
       y="0" />
    <pattern
       id="EMFhbasepattern-1"
       patternUnits="userSpaceOnUse"
       width="6"
       height="6"
       x="0"
       y="0" />
    <pattern
       id="EMFhbasepattern-10"
       patternUnits="userSpaceOnUse"
       width="6"
       height="6"
       x="0"
       y="0" />
    <pattern
       id="EMFhbasepattern-82"
       patternUnits="userSpaceOnUse"
       width="6"
       height="6"
       x="0"
       y="0" />
    <pattern
       id="EMFhbasepattern-8-8"
       patternUnits="userSpaceOnUse"
       width="6"
       height="6"
       x="0"
       y="0" />
    <pattern
       id="EMFhbasepattern-1-7"
       patternUnits="userSpaceOnUse"
       width="6"
       height="6"
       x="0"
       y="0" />
    <pattern
       id="EMFhbasepattern-3"
       patternUnits="userSpaceOnUse"
       width="6"
       height="6"
       x="0"
       y="0" />
    <pattern
       id="EMFhbasepattern-8-9"
       patternUnits="userSpaceOnUse"
       width="6"
       height="6"
       x="0"
       y="0" />
    <pattern
       id="EMFhbasepattern-1-2"
       patternUnits="userSpaceOnUse"
       width="6"
       height="6"
       x="0"
       y="0" />
    <pattern
       id="EMFhbasepattern-2"
       patternUnits="userSpaceOnUse"
       width="6"
       height="6"
       x="0"
       y="0" />
    <pattern
       id="EMFhbasepattern-8-95"
       patternUnits="userSpaceOnUse"
       width="6"
       height="6"
       x="0"
       y="0" />
    <pattern
       id="EMFhbasepattern-1-8"
       patternUnits="userSpaceOnUse"
       width="6"
       height="6"
       x="0"
       y="0" />
    <pattern
       id="EMFhbasepattern-4"
       patternUnits="userSpaceOnUse"
       width="6"
       height="6"
       x="0"
       y="0" />
    <pattern
       id="EMFhbasepattern-8-2"
       patternUnits="userSpaceOnUse"
       width="6"
       height="6"
       x="0"
       y="0" />
    <pattern
       id="EMFhbasepattern-37"
       patternUnits="userSpaceOnUse"
       width="6"
       height="6"
       x="0"
       y="0" />
    <pattern
       id="EMFhbasepattern-8-4"
       patternUnits="userSpaceOnUse"
       width="6"
       height="6"
       x="0"
       y="0" />
    <pattern
       id="EMFhbasepattern-6"
       patternUnits="userSpaceOnUse"
       width="6"
       height="6"
       x="0"
       y="0" />
    <pattern
       id="EMFhbasepattern-8-6"
       patternUnits="userSpaceOnUse"
       width="6"
       height="6"
       x="0"
       y="0" />
    <pattern
       id="EMFhbasepattern-1-1"
       patternUnits="userSpaceOnUse"
       width="6"
       height="6"
       x="0"
       y="0" />
    <pattern
       id="EMFhbasepattern-66"
       patternUnits="userSpaceOnUse"
       width="6"
       height="6"
       x="0"
       y="0" />
    <pattern
       id="EMFhbasepattern-8-0"
       patternUnits="userSpaceOnUse"
       width="6"
       height="6"
       x="0"
       y="0" />
    <pattern
       id="EMFhbasepattern-1-76"
       patternUnits="userSpaceOnUse"
       width="6"
       height="6"
       x="0"
       y="0" />
    <pattern
       id="EMFhbasepattern-9"
       patternUnits="userSpaceOnUse"
       width="6"
       height="6"
       x="0"
       y="0" />
    <pattern
       id="EMFhbasepattern-8-5"
       patternUnits="userSpaceOnUse"
       width="6"
       height="6"
       x="0"
       y="0" />
    <pattern
       id="EMFhbasepattern-1-18"
       patternUnits="userSpaceOnUse"
       width="6"
       height="6"
       x="0"
       y="0" />
    <pattern
       id="EMFhbasepattern-42"
       patternUnits="userSpaceOnUse"
       width="6"
       height="6"
       x="0"
       y="0" />
    <pattern
       id="EMFhbasepattern-0"
       patternUnits="userSpaceOnUse"
       width="6"
       height="6"
       x="0"
       y="0" />
    <pattern
       id="EMFhbasepattern-93"
       patternUnits="userSpaceOnUse"
       width="6"
       height="6"
       x="0"
       y="0" />
    <pattern
       id="EMFhbasepattern-8-00"
       patternUnits="userSpaceOnUse"
       width="6"
       height="6"
       x="0"
       y="0" />
    <pattern
       id="EMFhbasepattern-1-25"
       patternUnits="userSpaceOnUse"
       width="6"
       height="6"
       x="0"
       y="0" />
    <pattern
       id="EMFhbasepattern-11"
       patternUnits="userSpaceOnUse"
       width="6"
       height="6"
       x="0"
       y="0" />
    <pattern
       id="EMFhbasepattern-8-61"
       patternUnits="userSpaceOnUse"
       width="6"
       height="6"
       x="0"
       y="0" />
    <pattern
       id="EMFhbasepattern-1-20"
       patternUnits="userSpaceOnUse"
       width="6"
       height="6"
       x="0"
       y="0" />
    <pattern
       id="EMFhbasepattern-7"
       patternUnits="userSpaceOnUse"
       width="6"
       height="6"
       x="0"
       y="0" />
    <pattern
       id="EMFhbasepattern-5"
       patternUnits="userSpaceOnUse"
       width="6"
       height="6"
       x="0"
       y="0" />
    <pattern
       id="EMFhbasepattern-8-1"
       patternUnits="userSpaceOnUse"
       width="6"
       height="6"
       x="0"
       y="0" />
    <pattern
       id="EMFhbasepattern-28"
       patternUnits="userSpaceOnUse"
       width="6"
       height="6"
       x="0"
       y="0" />
    <pattern
       id="EMFhbasepattern-8-80"
       patternUnits="userSpaceOnUse"
       width="6"
       height="6"
       x="0"
       y="0" />
    <pattern
       id="EMFhbasepattern-1-185"
       patternUnits="userSpaceOnUse"
       width="6"
       height="6"
       x="0"
       y="0" />
    <pattern
       id="EMFhbasepattern-90"
       patternUnits="userSpaceOnUse"
       width="6"
       height="6"
       x="0"
       y="0" />
    <pattern
       id="EMFhbasepattern-8-06"
       patternUnits="userSpaceOnUse"
       width="6"
       height="6"
       x="0"
       y="0" />
    <pattern
       id="EMFhbasepattern-1-79"
       patternUnits="userSpaceOnUse"
       width="6"
       height="6"
       x="0"
       y="0" />
    <pattern
       id="EMFhbasepattern-01"
       patternUnits="userSpaceOnUse"
       width="6"
       height="6"
       x="0"
       y="0" />
    <pattern
       id="EMFhbasepattern-8-3"
       patternUnits="userSpaceOnUse"
       width="6"
       height="6"
       x="0"
       y="0" />
    <pattern
       id="EMFhbasepattern-1-6"
       patternUnits="userSpaceOnUse"
       width="6"
       height="6"
       x="0"
       y="0" />
    <pattern
       id="EMFhbasepattern-41"
       patternUnits="userSpaceOnUse"
       width="6"
       height="6"
       x="0"
       y="0" />
    <pattern
       id="EMFhbasepattern-8-55"
       patternUnits="userSpaceOnUse"
       width="6"
       height="6"
       x="0"
       y="0" />
    <pattern
       id="EMFhbasepattern-1-72"
       patternUnits="userSpaceOnUse"
       width="6"
       height="6"
       x="0"
       y="0" />
    <pattern
       id="EMFhbasepattern-50"
       patternUnits="userSpaceOnUse"
       width="6"
       height="6"
       x="0"
       y="0" />
    <pattern
       id="EMFhbasepattern-660"
       patternUnits="userSpaceOnUse"
       width="6"
       height="6"
       x="0"
       y="0" />
  </defs>
  <metadata
     id="metadata5">
    <rdf:RDF>
      <cc:Work
         rdf:about="">
        <dc:format>image/svg+xml</dc:format>
        <dc:type
           rdf:resource="http://purl.org/dc/dcmitype/StillImage" />
        <dc:title></dc:title>
      </cc:Work>
    </rdf:RDF>
  </metadata>
  <g
     transform="translate(74.054558,-265.24413)"
     id="layer1">
    <path
       style="stroke-width:0.26458332"
       d="M -73.043038,266.13458"
       id="path8201" />
    <path
       style="stroke-width:0.26458332"
       d="M -73.451258,268.44081"
       id="path8205" />
    <g
       transform="matrix(0.26458333,0,0,0.26458333,-74.583725,50.306634)"
       style="opacity:0.3;fill:#4d4d4d;stroke:#ffffff;stroke-width:2;stroke-linejoin:round;stroke-miterlimit:4;stroke-dasharray:none;stroke-opacity:1"
       id="g8268">
      <path
         style="fill:#747474;fill-opacity:1;stroke:#ffffff;stroke-width:2;stroke-linejoin:round;stroke-miterlimit:4;stroke-dasharray:none;stroke-opacity:1"
         d="m 6.19275,813.3622 c -1.364157,-0.003 -2.46571,1.12512 -2.46875,2.5 0.003,1.37792 1.104593,2.49776 2.46875,2.5 0.9023143,-10e-4 1.6957214,-0.51786 2.125,-1.25 H 9.349 l 0.78125,-0.8125 0.59375,0.625 0.59375,-0.59375 0.59375,0.59375 0.59375,-0.59375 0.625,0.59375 1.03125,-1.03125 c 0.1496,-0.15584 0.15328,-0.25137 0,-0.40625 l -0.84375,-0.875 h -5 c -0.4270202,-0.74001 -1.2158614,-1.25192 -2.125,-1.25 z m -1.0625,1.8125 c 0.358559,-0.002 0.65353,0.28857 0.65625,0.65625 -0.0026,0.36256 -0.297531,0.68414 -0.65625,0.6875 -0.36464,-0.003 -0.65961,-0.32494 -0.65625,-0.6875 -0.0034,-0.36768 0.29161,-0.65801 0.65625,-0.65625 z"
         id="path8270" />
      <path
         style="fill:#747474;fill-opacity:1;stroke:#ffffff;stroke-width:2;stroke-linejoin:round;stroke-miterlimit:4;stroke-dasharray:none;stroke-opacity:1"
         d="m 13.910978,822.7569 -0.98392,-2.54447 c -0.183686,-0.48704 -0.58588,-0.90144 -1.346822,-0.90496 H 10.193164 7.8223307 6.4111392 c -0.7572671,0.003 -1.1593008,0.41776 -1.3466615,0.90496 l -0.9839208,2.54447 c -0.3905333,0.0504 -1.0818329,0.51024 -1.0805551,1.38128 v 3.23951 H 3.959644 v 1.03392 c -0.0022,1.27504 1.79869,1.25984 1.7982108,0 v -1.03392 h 3.2418271 3.2338401 v 1.03392 c 0.004,1.25984 1.805079,1.27504 1.806197,0 v -1.03392 H 15 v -3.23951 c -0.0032,-0.87104 -0.695133,-1.33088 -1.089022,-1.38128 z m -9.0239568,2.6656 c -0.4600148,0.002 -0.8326596,-0.38304 -0.8305832,-0.85584 -0.0021,-0.476 0.3705684,-0.86064 0.8305832,-0.8568 0.4587371,-0.004 0.8312211,0.38096 0.8305822,0.8568 7.987e-4,0.4728 -0.3718451,0.85728 -0.8305822,0.85584 z m 4.1128204,-2.68976 h -0.00819 -3.8869663 l 0.7419343,-2.00351 c 0.089447,-0.28432 0.2285694,-0.48784 0.5564894,-0.4928 h 2.5885426 0.00819 2.5966874 c 0.323288,0.005 0.46257,0.20848 0.55617,0.4928 l 0.742254,2.00351 z m 4.1128194,2.68976 c -0.463369,0.002 -0.836013,-0.38304 -0.838888,-0.85584 0.0029,-0.476 0.375519,-0.86064 0.838888,-0.8568 0.455223,-0.004 0.827707,0.38096 0.830423,0.8568 -0.0027,0.4728 -0.3752,0.85728 -0.830423,0.85584 z"
         id="path8272" />
    </g>
    <g
       transform="matrix(0.26458333,0,0,0.26458333,-74.583725,50.306634)"
       id="g8258"
       style="fill:#747473;fill-opacity:1">
      <path
         id="path8203"
         d="m 6.19275,813.3622 c -1.364157,-0.003 -2.46571,1.12512 -2.46875,2.5 0.003,1.37792 1.104593,2.49776 2.46875,2.5 0.9023143,-10e-4 1.6957214,-0.51786 2.125,-1.25 H 9.349 l 0.78125,-0.8125 0.59375,0.625 0.59375,-0.59375 0.59375,0.59375 0.59375,-0.59375 0.625,0.59375 1.03125,-1.03125 c 0.1496,-0.15584 0.15328,-0.25137 0,-0.40625 l -0.84375,-0.875 h -5 c -0.4270202,-0.74001 -1.2158614,-1.25192 -2.125,-1.25 z m -1.0625,1.8125 c 0.358559,-0.002 0.65353,0.28857 0.65625,0.65625 -0.0026,0.36256 -0.297531,0.68414 -0.65625,0.6875 -0.36464,-0.003 -0.65961,-0.32494 -0.65625,-0.6875 -0.0034,-0.36768 0.29161,-0.65801 0.65625,-0.65625 z"
         style="fill:#747473;fill-opacity:1" />
      <path
         id="path8207"
         d="m 13.910978,822.7569 -0.98392,-2.54447 c -0.183686,-0.48704 -0.58588,-0.90144 -1.346822,-0.90496 H 10.193164 7.8223307 6.4111392 c -0.7572671,0.003 -1.1593008,0.41776 -1.3466615,0.90496 l -0.9839208,2.54447 c -0.3905333,0.0504 -1.0818329,0.51024 -1.0805551,1.38128 v 3.23951 H 3.959644 v 1.03392 c -0.0022,1.27504 1.79869,1.25984 1.7982108,0 v -1.03392 h 3.2418271 3.2338401 v 1.03392 c 0.004,1.25984 1.805079,1.27504 1.806197,0 v -1.03392 H 15 v -3.23951 c -0.0032,-0.87104 -0.695133,-1.33088 -1.089022,-1.38128 z m -9.0239568,2.6656 c -0.4600148,0.002 -0.8326596,-0.38304 -0.8305832,-0.85584 -0.0021,-0.476 0.3705684,-0.86064 0.8305832,-0.8568 0.4587371,-0.004 0.8312211,0.38096 0.8305822,0.8568 7.987e-4,0.4728 -0.3718451,0.85728 -0.8305822,0.85584 z m 4.1128204,-2.68976 h -0.00819 -3.8869663 l 0.7419343,-2.00351 c 0.089447,-0.28432 0.2285694,-0.48784 0.5564894,-0.4928 h 2.5885426 0.00819 2.5966874 c 0.323288,0.005 0.46257,0.20848 0.55617,0.4928 l 0.742254,2.00351 z m 4.1128194,2.68976 c -0.463369,0.002 -0.836013,-0.38304 -0.838888,-0.85584 0.0029,-0.476 0.375519,-0.86064 0.838888,-0.8568 0.455223,-0.004 0.827707,0.38096 0.830423,0.8568 -0.0027,0.4728 -0.3752,0.85728 -0.830423,0.85584 z"
         style="fill:#747473;fill-opacity:1" />
    </g>
    <path
       style="stroke-width:0.26458332"
       d="M -71.271181,268.44081"
       id="path8209" />
    <path
       style="stroke-width:0.26458332"
       d="M -73.329423,266.13242"
       id="path8213" />
  </g>
</svg>
